<?xml version="1.0" standalone="no"?>
<!DOCTYPE svg PUBLIC "-//W3C//DTD SVG 1.1//EN" "http://www.w3.org/Graphics/SVG/1.1/DTD/svg11.dtd" >
<svg xmlns="http://www.w3.org/2000/svg">
<metadata></metadata>
<defs>
<font id="xxii_armystraight" horiz-adv-x="1024" >
<font-face units-per-em="2048" ascent="1638" descent="-410" />
<missing-glyph horiz-adv-x="841" />
<glyph horiz-adv-x="2048" />
<glyph horiz-adv-x="2048" />
<glyph unicode="&#xd;" />
<glyph />
<glyph unicode=" "  horiz-adv-x="841" />
<glyph unicode="&#x09;" horiz-adv-x="841" />
<glyph unicode="&#xa0;" horiz-adv-x="841" />
<glyph unicode="!" horiz-adv-x="364" d="M4 1286h244q-16 -219 -25.5 -442t-23.5 -447h-146q-18 217 -28.5 440.5t-20.5 448.5zM16 -6v244h207v-244h-207z" />
<glyph unicode="#" d="M2 342v231h123q14 35 15 82t7 88q-2 10 -14 13.5t-26.5 2.5t-30 -3t-25.5 0v231h121q12 35 18.5 74t11.5 80t9 83t10 81h207q-49 -352 -86 -719q0 -10 9 -12.5t20.5 -1.5t24 2t20.5 -1q-4 -59 -14.5 -112t-10.5 -119h-84q-8 -86 -22.5 -167t-14.5 -175h-219 q20 76 25.5 164t23.5 166q-4 10 -15 12t-26.5 1l-31 -2t-25.5 1zM428 0q16 90 27.5 183t21.5 188.5t21.5 189.5t27.5 182q0 10 -9 12.5t-20.5 1.5t-23.5 -2t-20 1q-2 33 0 58.5t6 51t7 51t-1 58.5q12 12 37 12h49q18 72 23.5 159t23.5 159h207q-10 -37 -15.5 -78t-8.5 -82 t-8 -82t-15 -76q29 -2 60.5 1t47.5 -13v-219h-121q-14 -12 -19 -33t-6 -45.5t-3 -49t-8 -42.5q4 -10 15 -12.5t25.5 -1.5t30 3.5t25.5 -2.5v-231h-121q-20 -78 -27.5 -167t-21.5 -175h-207z" />
<glyph unicode="$" horiz-adv-x="944" d="M-55 168q20 23 34.5 52.5t30 58t31.5 50t39 23.5t46.5 -18.5t51 -44t61 -40t72.5 -7.5q10 33 12.5 72.5t1.5 83.5t-2 89t1 84q-104 -2 -176 47.5t-111 128t-45 174t17.5 182.5t77.5 155.5t138 91.5q20 -49 18.5 -102.5t-11 -107t-18.5 -104.5t-6 -93t25.5 -72.5 t77.5 -45.5q10 80 12.5 167t1.5 178.5t-2 183.5t1 178h145v-158q43 -14 86 -27.5t81 -32t70.5 -42t55.5 -55.5q-8 -27 -24.5 -48.5t-34 -41l-35 -39t-29.5 -41.5q-43 23 -83 49t-99 34q-10 -29 -12.5 -66.5t-1.5 -78.5t3.5 -82t-2.5 -78q37 -18 71 -28.5t65.5 -19.5 t62.5 -21.5t57 -38.5q49 -47 74 -113.5t28 -140.5t-14.5 -146.5t-53.5 -132t-87 -100.5t-117 -49q-12 55 -6 111.5t18.5 109.5t22.5 101.5t6 88t-29.5 69.5t-84.5 44q-10 -86 -12.5 -179t-1.5 -190.5t3.5 -195.5t-2.5 -191h-133v195q-123 14 -212 58t-154 112z" />
<glyph unicode="%" horiz-adv-x="1462" d="M-6 1118q0 102 27.5 189.5t83 143.5t139.5 54v-153q-20 -20 -39 -54t-30 -79t-12 -97.5t11 -107.5q6 -29 22.5 -56.5t32 -60.5t21.5 -72t-6 -92q-84 -2 -139.5 54.5t-83 143.5t-27.5 187zM272 2q43 121 93.5 254t105.5 274.5t112.5 284.5t110.5 283q14 37 29.5 91 t32 107.5t36 99.5t44.5 68q35 35 79 43t103 -2q-63 -195 -134 -382t-143.5 -372.5t-145.5 -371.5t-140 -377h-183zM287 733q-10 88 5 149.5t50 102.5q16 88 7 151.5t-24.5 120t-29.5 114.5t-8 134q80 2 134 -54t80.5 -143t26.5 -190q0 -100 -26.5 -187t-80.5 -143.5 t-134 -54.5zM767 376q-1 97 22.5 182t70.5 146.5t115 71.5h29q4 -72 -8.5 -132t-27 -118.5t-23.5 -117t1 -125.5q6 -33 21.5 -65t28 -65.5t17.5 -70.5t-9 -80q-80 2 -132.5 56.5t-78 137.5t-26.5 180zM1056 56.5q-3 37.5 4 74.5t21.5 66.5t34.5 44.5q14 88 6 153.5 t-23.5 124t-29.5 118.5t-10 138q82 0 135 -57t78.5 -143.5t25.5 -186.5t-25.5 -187t-75.5 -147.5t-124 -66.5q-14 31 -17 68.5z" />
<glyph unicode="&#x26;" horiz-adv-x="1099" d="M-20.5 352.5q-8.5 98.5 12 192.5t69 173t117.5 118q-43 41 -68.5 104.5t-32.5 135t4 143t43 129t85 92.5t129 33q-14 -115 -17.5 -204t0 -174t9.5 -177.5t8 -215.5q-37 -18 -66.5 -56t-48 -85t-23.5 -99t7 -97.5t44 -79t87 -45.5v-240q-115 -4 -190.5 45t-117.5 129 t-50.5 178.5zM421 696q-3 82 4 162t22.5 150.5t35.5 119.5q-31 68 -47 151t-6 194q92 -2 149.5 -46.5t84 -111t26.5 -146.5t-23.5 -154.5t-66.5 -134t-102 -83.5q45 -68 89 -136.5t95 -130.5q33 41 45 102.5t8 137.5h213q2 -145 -29.5 -254.5t-89.5 -196.5 q23 -39 51.5 -78.5t58.5 -79.5t53.5 -78t35.5 -69q-59 -2 -119.5 -4t-109.5 7.5t-81 35t-36 80.5q-53 -43 -108.5 -83t-143.5 -50q-4 57 -4 111q0 53 10 96t34 73.5t67 38.5q-39 31 -63.5 89.5t-37 132t-15.5 155.5z" />
<glyph unicode="'" horiz-adv-x="360" d="M-20 1343q4 0 7 14.5t5 32t2 31.5q0 17 -2 19q23 10 43 7t40.5 -8t42 -8.5t42.5 7.5q2 -14 8 -10t10 -1q0 -41 -8 -77.5t2 -79.5q-10 -47 -15 -94.5t-7 -100.5q-16 -6 -32 -13t-32 -13q2 -12 0 -22.5t8 -25.5q-8 -4 -14 -6t-10 -6q-6 2 -10.5 9.5t-8.5 14.5t-9 11t-13 0 q-2 10 -5.5 17.5t-7.5 13.5q10 8 7 19t-7 23.5t-6 24t6 17.5l-9 22.5l-9 22.5q10 12 4 31.5t-12 41.5q12 0 11 6.5t-6 14.5t-6 14t11 8q-4 10 -9 21.5t-11 21.5zM-2 1358q0 -16 8 -11t12 1q-6 -2 -7 -10.5t2 -15.5t8.5 -12t11.5 -3q4 -4 6 -9.5t4 -9.5q-8 -2 -9 -5t0 -8 t0 -8t-9 -5q2 -4 4 -9.5t6 -9.5q6 6 8 5t4 -4t4 -5t8 0q4 6 3 12t-2 12.5t0 11.5t10 7l-6.5 13t-4.5 12q-12 -8 -15 2t-11 6q4 6 2 15t-8.5 17.5t-13.5 11.5t-15 -1zM10 1217q4 -10 1 -18.5t9 -22.5q6 4 19 8q-4 10 -8 19t-8 20zM91 1134q1 -15 11 -38q10 4 18.5 7t14.5 7 q-8 10 -1 13t1 12q-12 0 -18 18q-27 -4 -26 -19zM305 1434q18 6 8 18q6 4 19 8q0 -14 8 -10t12 0q0 -20 -37 -37q-4 6 -6 11.5t-4 9.5z" />
<glyph unicode="(" horiz-adv-x="456" d="M2 760q0 123 5 232.5t14.5 196.5t25.5 128q12 35 31.5 59.5t40 47t38 43t25.5 44.5q43 -31 72.5 -73.5t60.5 -83.5q-6 -18 -20 -38t-29.5 -42.5t-29 -48t-17.5 -54.5q-8 -55 -13 -134t-8 -170t-3 -187q0 -94 3 -181t8 -160t13 -118q10 -61 44 -104t52 -80 q-27 -47 -58.5 -87t-74.5 -71q-12 23 -36.5 51.5t-49 63.5t-45 76t-26.5 90q-6 57 -11.5 152.5t-8.5 210t-3 237.5z" />
<glyph unicode=")" horiz-adv-x="444" d="M-41 27q10 35 45 69.5t51 87.5q10 33 17.5 108t11.5 172t5 206.5t-2 211t-11 184.5t-21 128q-14 53 -43.5 90t-52.5 57q27 49 63.5 88t69.5 82q18 -27 46 -57.5t53.5 -67t45 -80.5t25.5 -100q6 -51 11.5 -140t9.5 -198.5t4 -228.5q0 -117 -4 -226.5t-14.5 -198.5 t-30.5 -140q-12 -33 -33 -60.5t-40.5 -50t-36.5 -43t-24 -41.5q-25 10 -42 29.5t-32.5 41t-31.5 42t-39 35.5z" />
<glyph unicode="*" horiz-adv-x="706" d="M-12 1149q20 8 37.5 19.5t34 23.5t34 23.5t39.5 17.5q-10 23 -27.5 37t-38 25.5t-42 22.5t-37.5 25q2 25 10 44.5t17.5 38t18.5 36t15 39.5q41 -29 79 -60.5t79 -60.5q4 33 2 59.5t-6 51.5t-7 51t-1 57h145q-2 -53 1 -110t-13 -96q18 -2 36.5 12t39 32.5t44 34t52.5 17.5 q12 -35 24.5 -72t34.5 -61q-37 -27 -72.5 -54.5t-85.5 -44.5q10 -20 27.5 -34.5t38 -25.5t42 -22.5t40.5 -25.5q-2 -49 -22.5 -78t-26.5 -70q-29 4 -49.5 16.5t-37 28t-34 30t-39.5 24.5q-4 -12 -3 -37t2 -53.5t3 -60t-2 -56.5h-145q-2 31 0 55.5t6 48t7 48t-1 55.5 q-12 -2 -31.5 -13.5t-40 -28t-40 -34.5t-34.5 -35q-55 66 -73 160z" />
<glyph unicode="+" horiz-adv-x="833" d="M2 539v219h231q10 29 12.5 63.5t1.5 73.5t-2 79t1 75h182v-291h231v-219h-219q-10 -27 -12 -64t-1 -76t3 -78.5t-2 -74.5h-182v280q-23 10 -52.5 12.5t-62.5 1.5t-66.5 -2t-62.5 1z" />
<glyph unicode="," horiz-adv-x="385" d="M2 242h219q-6 -49 -3 -95.5t7 -88.5t5 -80.5t-9 -75.5q-12 -43 -40.5 -73t-62.5 -53.5t-66 -42t-50 -38.5v547z" />
<glyph unicode="-" horiz-adv-x="655" d="M-4 432v232h450q10 -20 12.5 -49t1.5 -60t-2 -62.5t1 -60.5h-463z" />
<glyph unicode="." horiz-adv-x="417" d="M0 -2v268h219v-268h-219z" />
<glyph unicode="/" horiz-adv-x="735" d="M-29 -156q106 381 208 761t206 761q2 27 24.5 34t52.5 6t62.5 -5t55.5 2q-100 -393 -208 -777t-206 -782h-195z" />
<glyph unicode="0" horiz-adv-x="837" d="M-8 891q2 113 17.5 214t48 179t88 126t139.5 54q10 -20 12 -47.5t1 -59.5t-2 -63.5t1 -60.5q-4 -16 -15.5 -24.5t-23.5 -16.5t-21.5 -17.5t-11.5 -27.5q2 -72 -3 -157t-10 -174t-7 -178t5 -170t27.5 -147.5t59.5 -111.5v-207q-80 2 -133 35t-86 89t-49.5 133t-22.5 169 q-6 113 -11 231.5t-3 231.5zM378 81q-3 48 6 92t30.5 78t54.5 44q-4 72 1 158t11 177t8.5 183t-6 172t-31 145.5t-69.5 102.5v231q92 4 152.5 -46t96.5 -136t52 -198.5t19.5 -233.5t-2 -243t-13.5 -226q-14 -178 -82.5 -271.5t-210.5 -119.5q-14 43 -17 91z" />
<glyph unicode="1" horiz-adv-x="600" d="M2 915v267q16 53 58 93t81 62l9 -245q-12 -70 -57.5 -109t-90.5 -68zM237 731q-1 184 1 364.5t12 352.5h194v-1450h-206q4 180 2 364.5t-3 368.5z" />
<glyph unicode="2" horiz-adv-x="854" d="M0 1034q-18 360 268 426q20 -10 24.5 -36.5t3.5 -58.5t-5 -65.5t2 -58.5q-16 -20 -35.5 -37.5t-33 -41t-19.5 -53.5t2 -75h-207zM3 190.5q13 83.5 53 157.5t95.5 141.5t104.5 141.5q35 51 73 104t69.5 108.5t51 112t13.5 115.5q-4 49 -25.5 84t-41 75t-29 93t9.5 137 q90 -6 153.5 -52t99.5 -120t43 -168t-16 -196q-18 -84 -70 -179.5t-116.5 -192.5t-133.5 -189.5t-118 -169.5q-18 -31 -37.5 -67t-41 -66.5t-50 -49t-65.5 -12.5q-35 109 -22 192.5zM195 -2q31 68 71.5 124t75.5 120h328v-244h-475z" />
<glyph unicode="3" horiz-adv-x="833" d="M0 428h207q-4 -82 25.5 -132t82.5 -75v-219q-90 4 -149.5 37t-95 89t-51 133t-19.5 167zM12 1051q0 88 17.5 160.5t53.5 127t93 86t139 39.5v-207q-18 -20 -36.5 -39.5t-33 -42t-22.5 -53t-4 -71.5h-207zM315 625v229q27 2 55.5 0t43.5 12q41 25 58 81.5t13 117.5 t-28.5 112.5t-67.5 67.5v219q96 -4 164 -62.5t105.5 -144.5t42 -186t-30.5 -192q-4 -10 -19.5 -26.5t-33 -34t-32 -34t-14.5 -26.5q0 -8 11.5 -20.5t28 -29t32.5 -35t27 -38.5q29 -59 38 -131t1.5 -145.5t-31 -142.5t-64.5 -121t-97 -80.5t-128 -24.5v219q39 12 65.5 50 t38 87t8.5 103.5t-23.5 96.5t-60.5 65.5t-102 13.5z" />
<glyph unicode="4" horiz-adv-x="880" d="M0 209q-12 123 2 219t43 180t67 164t70 168q49 131 92 260t91 252h231q-96 -248 -187.5 -494.5t-189.5 -492.5h146v-256h-365zM438 733h207v-256q4 -10 15.5 -12t25.5 -1t29.5 3t25.5 -2v-256h-96v-207h-194v371q-1 186 -13 360z" />
<glyph unicode="5" horiz-adv-x="811" d="M-27 416h207q6 -31 11.5 -61.5t15.5 -57.5t26.5 -47.5t45.5 -28.5v-219q-92 -2 -147.5 33t-87.5 93t-46.5 133t-24.5 155zM-2 635v817h281v-244h-86v-268q6 -10 15 -6t20.5 11t23.5 14.5t27 5.5q12 -63 6 -110.5t-20.5 -84.5t-34 -68.5t-37.5 -66.5h-195zM350 -10v219 q35 14 58.5 57t36 99.5t12.5 117.5q0 63 -11.5 119.5t-35 98.5t-60.5 57v219q82 4 143.5 -37t101.5 -110.5t59.5 -159.5t18.5 -184.5t-22.5 -184.5t-61.5 -159.5t-100.5 -111.5t-138.5 -40zM350 1208v244h281v-244h-281z" />
<glyph unicode="6" horiz-adv-x="837" d="M-2 408.5q6 103.5 33.5 216t68.5 228.5t83 224.5t79 203.5t55 167h232q-16 -94 -66.5 -216t-108 -251t-105.5 -255t-62 -228q-6 -45 -4 -89t12 -83t32.5 -68t57.5 -41v-219q-121 23 -189.5 81t-96 142t-21.5 187.5zM342 643q23 53 41 110.5t45 108.5q70 -4 122 -45 t86 -104.5t50 -143.5t14 -160.5t-22.5 -156.5t-60 -134.5t-99 -92t-139.5 -27.5v195q31 14 55.5 52t38.5 89t16.5 105.5t-12 100.5t-47.5 74.5t-88 28.5z" />
<glyph unicode="7" horiz-adv-x="858" d="M4 975v475h475q-4 -37 -14 -66.5t-22.5 -57.5t-22.5 -56.5t-14 -63.5h-207v-231h-195zM125 0q57 180 108.5 366.5t104.5 371t111.5 364.5t125.5 348h134q-8 -211 -50.5 -394.5t-96.5 -357.5t-113.5 -344t-104.5 -354h-219z" />
<glyph unicode="8" horiz-adv-x="854" d="M6 483q10 86 45 158t92 104q-53 39 -83.5 107t-39 146.5t5 161.5t48.5 149.5t89 110.5t128 44q20 -10 24 -36.5t2 -58.5t-6 -65.5t2 -58.5q-41 -20 -63.5 -78.5t-23.5 -124t20.5 -124t66.5 -76.5v-207q-51 -14 -76.5 -74.5t-24.5 -131.5t26.5 -131t74.5 -77v-219 q-86 -12 -149.5 30t-101 113.5t-52 161.5t-4.5 176zM398 91q1 30 3 60.5t-2 57.5q53 18 81 80.5t30 134.5t-24.5 133t-86.5 78v196q43 20 69 79t29 125.5t-19.5 124t-78.5 73.5v231q90 2 160 -54t110 -144t45 -194.5t-34 -205.5q-4 -8 -19.5 -24.5t-33 -33.5t-31.5 -31.5 t-14 -18.5q0 -12 14 -27.5t33.5 -31t38 -32t24.5 -32.5q43 -98 40 -212t-43 -210t-111.5 -159.5t-165.5 -63.5q-10 18 -12.5 44.5t-1.5 56.5z" />
<glyph unicode="9" horiz-adv-x="841" d="M-7 1028q3 113 38 210t100.5 161.5t161.5 64.5q20 -8 24.5 -32.5t2 -55t-5.5 -63.5t3 -56q-33 -10 -59.5 -50t-41.5 -93t-16 -110.5t15 -104.5t52 -73.5t98 -18.5q-14 -63 -37 -115.5t-47 -103.5q-100 2 -165 67.5t-95.5 162.5t-27.5 210zM145 2q14 80 57.5 183.5 t94.5 217t99 231.5t72 229.5t9.5 209.5t-88.5 172v219q90 -4 151.5 -46t98.5 -110.5t49 -157.5t6 -185q-8 -127 -53 -258.5t-98.5 -256t-104.5 -239.5t-73 -209h-220z" />
<glyph unicode=":" horiz-adv-x="421" d="M2 4v268h219v-268h-219zM2 492v268h219v-268h-219z" />
<glyph unicode=";" horiz-adv-x="417" d="M-2 471v268h231v-268h-231zM10 240h207q-8 -49 -5 -95.5t7 -88.5t6 -82t-8 -76q-12 -41 -39.5 -71t-59.5 -54.5t-61.5 -44t-46.5 -37.5v549z" />
<glyph unicode="=" horiz-adv-x="860" d="M1 485.5q-1 30.5 1 58t12 48.5h645v-230h-657q2 29 1 61t-2 62.5zM2 752v231h657v-231h-657z" />
<glyph unicode="?" horiz-adv-x="862" d="M4 1044q8 172 81.5 276.5t229.5 127.5q14 -76 6 -131t-26.5 -99t-40 -84t-33.5 -90h-217zM248 4v270h229v-270h-229zM248 449q-10 76 4 135t42 108t62.5 94t63.5 90.5t46 95.5t11 111q-4 39 -22.5 73t-35 74t-22 91t12.5 127q68 -8 123 -46t94 -95.5t60.5 -126 t19.5 -136.5q0 -55 -18.5 -106t-45.5 -100.5t-56.5 -96.5t-54 -95t-41 -96t-14.5 -101h-229z" />
<glyph unicode="@" horiz-adv-x="1751" d="M-2 672q0 100 4 190t12.5 161t20.5 103q23 55 57.5 87t50.5 71q35 -25 59.5 -59.5t49.5 -69.5q-4 -14 -15.5 -29.5t-24.5 -34t-23.5 -40t-14.5 -43.5q-6 -45 -10 -109.5t-6 -138.5t-2 -152t2 -148.5t6 -130t10 -96.5q8 -49 35 -83.5t43 -63.5q-23 -39 -48.5 -71.5 t-60.5 -57.5q-8 18 -28.5 42t-41 51.5t-38 61t-21.5 72.5q-4 45 -8 124t-6 172t-2 192zM367 305v178q10 47 37.5 81t68.5 54.5t93 24.5t110 -12v-119q-92 10 -132 -47t-7 -150q4 -20 25.5 -24t45.5 -4h45t23 -13q-2 -18 -1 -38.5t1 -40.5t-1 -38t-9 -30q-127 -33 -207 19.5 t-92 158.5zM397 881q62 136 279 118v-180q-35 16 -60.5 11t-47 -19t-40 -31.5t-41.5 -27.5q-18 35 -45.5 61.5t-44.5 67.5zM745 127v852q70 -14 107 -62.5t52.5 -118t15.5 -155.5q0 -84 -5.5 -174t-8.5 -178t7 -164h-168zM1012 825v150h69v248h170v-240q6 -8 19.5 -10t29 0 t32 3t28.5 -1v-150h-109q4 -127 -2 -264t11 -252q6 -8 17 -10t26.5 -1t30 2t26.5 -1v-168q-98 -18 -155.5 4.5t-86 74.5t-36 125t-5.5 155.5t6 166.5t-2 158q-4 16 -28.5 11t-40.5 -1zM1477 82q6 29 35.5 56.5t41.5 70.5q8 27 13.5 88t9.5 140t4 167q0 90 -2 173t-8 150.5 t-17 104.5q-10 43 -34.5 74t-42.5 47q23 41 51 71.5t57 65.5q16 -20 38 -45.5t43.5 -55.5t37.5 -66t20 -81q4 -41 8.5 -114.5t7.5 -161.5t3 -186q0 -96 -3 -184.5t-11.5 -161t-24.5 -113.5q-10 -27 -26.5 -49.5t-33 -41t-29.5 -34.5t-20 -33q-20 8 -34.5 23.5t-26.5 33 t-25.5 34t-31.5 28.5z" />
<glyph unicode="A" horiz-adv-x="968" d="M-88 0q94 371 192 732.5t209 717.5q20 -2 45 -1l48 2h16q14 0 28 -1q20 -2 33 -12q-25 -180 -66.5 -360.5t-91 -360.5t-100.5 -359.5t-94 -357.5h-219zM289 256q8 59 24.5 109.5t24.5 109.5h194q-23 98 -44 194.5t-54 184.5q31 88 53 183.5t45 193.5 q96 -299 181.5 -605.5t158.5 -625.5h-219q-10 68 -31.5 126t-27.5 130h-305z" />
<glyph unicode="B" horiz-adv-x="956" d="M3 736v122q0 122 1 242q2 180 12 352h207v-1450h-219q3 120 3 242q0 60 -1 122q-2 186 -3 370zM309 2v231q49 -15 89 -15q26 0 48 6q56 16 88 54q34 40 46 94q7 32 7 64q1 22 -3 44q-8 54 -35 100.5t-70 66.5h-170v209q45 -12 81 -12q24 0 44 5q51 13 83 47t44 81 q8 33 8 67q0 14 -1 29q-5 49 -27.5 92t-61.5 68h-170v219q75 21 138 21q41 -1 77 -9q92 -22 152.5 -81.5t90.5 -145.5q28 -81 28 -163v-11q-2 -88 -36 -170t-97 -135q66 -43 104 -130q39 -88 46 -188q2 -22 2 -44q0 -76 -20 -152q-24 -96 -83 -156q-37 -37 -80 -53.5 t-92.5 -22.5t-106.5 -6t-123 -4z" />
<glyph unicode="C" horiz-adv-x="985" d="M-10 636q-2 45 -2 90q0 56 3 114q5 104 18.5 195t37 167t55.5 121q35 51 101 84t119 49h49v-205q-43 -20 -66.5 -44.5t-44.5 -78.5q-12 -35 -22.5 -100t-14.5 -145t-5 -167v-29q0 -71 4 -137q5 -79 14.5 -141.5t23.5 -95.5q10 -20 25.5 -33.5t32 -25.5t30.5 -26.5 t23 -37.5q9 -25 9 -53q0 -21 -6 -44q-12 -52 -16 -97q-106 12 -193 84t-124 196q-20 74 -33.5 166.5t-17.5 193.5zM442 -4v219q47 2 76 22.5t45.5 52.5t24.5 72.5t14 83.5h219q-6 -98 -25.5 -183t-61.5 -147t-112 -94q-59 -27 -146 -27q-17 0 -34 1zM442 1262v194h86 q84 -10 137.5 -50t86 -101.5t48 -140.5t21.5 -169h-219q-6 100 -45 168t-115 99z" />
<glyph unicode="D" horiz-adv-x="980" d="M-1 725v122q0 123 1 243q2 180 12 352h207v-1450h-219q3 120 3 242q0 60 -1 122q-2 184 -3 369zM305 -8v233q34 -10 64 -10q59 -1 99 37q62 56 94 160t36 234q1 24 1 48q-1 104 -15 202q-18 120 -52 208t-81 106q-29 12 -73 14q-19 1 -35 0q-21 0 -38 -1v219 q54 12 103 12q51 0 96 -13q88 -26 152.5 -86.5t101.5 -151.5t45 -199q10 -123 14 -251q1 -34 1 -68q0 -92 -8 -179q-11 -119 -42 -220.5t-89 -173.5q-57 -70 -149 -104q-60 -22 -137 -22q-42 0 -88 6z" />
<glyph unicode="E" horiz-adv-x="909" d="M5 734v122q0 122 1 242q2 180 12 352h207v-1450h-217q1 90 1 181t-1 183q-2 186 -3 370zM311 0v231h426v-231h-426zM311 645v207h293v-207h-293zM311 1231v219h426v-219h-426z" />
<glyph unicode="F" horiz-adv-x="901" d="M5 734v122q0 122 1 242q2 180 12 352h207v-1438q-17 -10 -45 -12q-18 -1 -38 -1h-20q-30 1 -59.5 2t-56.5 -1q3 120 3 242q0 60 -1 122q-2 186 -3 370zM297 645v207h305v-207h-305zM297 1231v219h428v-219h-428z" />
<glyph unicode="G" horiz-adv-x="1005" d="M0 898q4 118 20.5 215t42.5 153q35 78 108.5 126t147.5 68h60v-217q-18 -10 -34.5 -18t-32 -19.5t-29 -28t-25.5 -44.5q-12 -29 -22.5 -89.5t-15.5 -137.5t-7 -162q-1 -28 -1 -56q0 -56 3 -108q4 -80 15.5 -145.5t27.5 -104.5q12 -27 28.5 -43.5t34 -27.5t33 -19.5 t25.5 -20.5q-2 -27 -1 -57.5t3 -60t0 -56.5t-12 -45q-51 4 -116 26.5t-106 59.5q-43 41 -72.5 128t-48 199.5t-24.5 239.5q-4 76 -4 149q0 49 2 96zM416 621v194h413q4 -104 4 -203q0 -50 -1 -98q-3 -145 -38.5 -259t-114.5 -182.5t-226 -72.5v231q61 6 95 39t49 84.5 t17 117.5v33q0 50 -4 103q-14 10 -38.5 12.5t-51 1.5t-54.5 -2.5t-50 1.5zM453 1255v205h61q158 -35 231.5 -156.5t83.5 -304.5h-219v14q0 44 -11 77q-13 38 -36.5 67t-52.5 52.5t-57 45.5z" />
<glyph unicode="H" horiz-adv-x="1011" d="M3 734v122q0 122 1 242q2 180 12 352h207v-1438q-19 -10 -45 -12q-18 -1 -36 -1h-20q-30 1 -60.5 2t-57.5 -1q3 120 3 242q0 60 -1 122q-2 186 -3 370zM297 645v207h278q11 66 13 140q2 53 1 108v44q-1 76 -2 154v52q0 51 1 100h219v-1450h-219v645h-291z" />
<glyph unicode="I" horiz-adv-x="436" d="M-5 734v122q0 122 1 242q2 180 12 352h207v-1450h-219q1 120 1 242v122q-1 186 -2 370z" />
<glyph unicode="J" horiz-adv-x="815" d="M-41 133q23 59 61.5 102.5t71.5 94.5q20 -20 42 -39t48.5 -31t61.5 -17q16 -2 34 -2q21 0 46 3v-244q-39 -4 -74 -4q-91 0 -154 26q-86 37 -137 111zM408 743q0 182 3 361.5t11 345.5h207q-11 -94 -11 -199q0 -30 1 -61q4 -139 11 -281.5t10 -279.5v-38q0 -115 -16 -216 q-18 -117 -65 -206t-137 -132q-8 166 -11 345t-3 361z" />
<glyph unicode="K" d="M3 740v121q0 121 1 240q2 179 12 349h207v-1450q-27 2 -57 1l-60 -2h-20q-18 0 -36 1q-26 2 -46 12q3 119 3 240q0 62 -1 122q-2 184 -3 366zM296 772q4 90 25 166t56 141.5t75 126t79.5 119.5t68.5 125h268q-82 -152 -175 -289t-179 -284q45 -109 96.5 -220.5 t102.5 -222t98 -220.5t82 -214h-244q-72 166 -142.5 327.5t-137.5 329.5q-14 -18 -27.5 -37.5t-22.5 -48.5q-24 98 -24 180q1 11 1 21z" />
<glyph unicode="L" horiz-adv-x="884" d="M0 740q-1 91 -1 181.5t1 179.5q2 179 12 349h221v-1450q-29 2 -61 1q-30 -1 -62 -2h-21q-21 0 -39 1q-28 2 -48 12q3 119 3 240q0 62 -1 122q-2 184 -4 366zM317 0v231h402v-231h-402z" />
<glyph unicode="M" horiz-adv-x="1204" d="M1 734v122q0 122 1 242q2 180 12 352h207v-1450h-219q3 120 3 242q0 60 -1 122q-2 186 -3 370zM301 942q0 129 4 264q59 -139 103.5 -288.5t91.5 -296.5q41 98 75.5 203.5t68.5 212t70 211t79 202.5h206v-1450h-219v815q-55 -123 -103 -254t-104 -256h-133 q-55 74 -84.5 174.5t-42 217t-12.5 245.5z" />
<glyph unicode="N" d="M0 734q-1 92 -1 183t1 181q2 180 12 352q25 -2 51.5 -1t52.5 2h18q17 0 34 -1q25 -2 41 -12q10 -172 12 -352q1 -120 1 -240v-121q-1 -183 -2 -365v-121q0 -121 1 -239h-219q3 120 3 242q0 60 -1 122q-2 186 -4 370zM296 949q-3 41 -3 84q0 87 12 186q82 -160 158 -319 t147 -329q10 100 12 210q2 79 2 158v65l-2 224v75q0 74 1 147h219v-1450h-195q-35 96 -79 182l-88 172t-83 176.5t-65.5 193.5t-35.5 225z" />
<glyph unicode="O" horiz-adv-x="985" d="M-18 782q2 100 12 190.5t27.5 167.5t41.5 126q35 72 104.5 121.5t139.5 72.5h62v-217q-33 -16 -69 -42.5t-52 -67.5q-16 -39 -26.5 -104.5t-15.5 -143.5t-5 -162t5 -160t16 -137t26 -96q10 -23 26.5 -37t35 -27.5t34.5 -30t25 -40.5q9 -27 9 -56q0 -21 -4 -43 q-12 -52 -18 -96q-104 8 -190 72.5t-127 183.5q-20 63 -34.5 149.5t-19.5 181.5q-4 68 -4 138q0 29 1 57zM455 0v207q4 18 19 29.5t34.5 24.5t38 31.5t28.5 49.5q16 43 26.5 109.5t14.5 143.5q3 58 4 118v41q-2 82 -7 155.5t-14 132t-24 91.5q-12 29 -28.5 44t-34.5 26 t-33.5 22.5t-23.5 29.5v205h47q66 -23 132 -60.5t111 -121.5q45 -80 70 -208t27 -274v-25q0 -133 -18 -267q-20 -146 -68 -260q-47 -114 -122 -184q-66 -61 -153 -61q-13 0 -26 1z" />
<glyph unicode="P" horiz-adv-x="968" d="M-3 738v122q0 122 1 242q2 180 12 352q27 -2 57.5 -1t60.5 2t56.5 -1t44.5 -12q-10 -356 -12 -712q-1 -178 -1 -360t1 -366h-219q3 120 3 242q0 60 -1 122q-2 186 -3 370zM303 602v219q53 -18 95 -18q34 0 62 12q62 27 91 82q27 51 27 115v11q-2 71 -34 128t-92 85 q-30 14 -67 14q-38 0 -82 -15v219q71 19 131 19q46 1 86 -11q92 -26 154 -90q63 -64 94 -156q30 -89 30 -182v-6q-1 -96 -32 -186t-92.5 -154.5t-154.5 -91.5q-42 -12 -90 -12q-58 0 -126 18z" />
<glyph unicode="Q" horiz-adv-x="993" d="M-20 704q-1 35 -1 68q0 114 15 220q18 138 64 248t124 163q43 29 95.5 37t87.5 24q18 -10 23 -34.5t4 -54t-4 -61.5t1 -57q-20 -16 -45 -29.5t-47.5 -31.5t-39.5 -46t-26 -75q-8 -51 -13 -123.5t-6 -151.5v-53q0 -53 1 -106q2 -80 9 -149.5t18.5 -122t27.5 -74.5 q12 -18 28.5 -27.5t33 -16.5t32 -12.5t27.5 -15.5v-233q-53 4 -115.5 18.5t-103.5 42.5q-51 39 -93 138.5t-66.5 232.5t-30.5 282zM389 381q6 27 18.5 46t28 35.5t29.5 35t22 41.5q20 -2 32.5 -14.5t23 -28t19.5 -30.5t24 -26v32q0 50 4 109q6 78 10 159q3 65 3 129v32 q-1 80 -13 146.5t-43 115.5t-84 70v219q119 -2 192.5 -68.5t114.5 -171t51 -236.5q6 -82 6 -166q0 -51 -2 -102q-6 -135 -26.5 -263t-42.5 -222q16 -37 39.5 -64.5t44.5 -58.5q-6 -25 -19.5 -44t-28 -35.5t-28.5 -35t-21 -42.5q-41 18 -61 54t-49 66q-35 -27 -76 -45 t-94 -28q-2 30 -2 57q0 41 4 76q5 44 5 83q0 12 -1 24q-2 49 -17.5 85.5t-62.5 65.5z" />
<glyph unicode="R" horiz-adv-x="976" d="M1 734v122q0 122 1 242q2 180 12 352h207v-1448h-219q3 120 3 242q0 60 -1 122q-2 184 -3 368zM294 1348v20q0 19 1 37q2 27 12 45q68 17 125 17q60 0 110 -18q98 -36 157 -114t81 -183q14 -64 14 -127q0 -41 -6 -81q-14 -104 -62 -192t-128 -129q25 -82 54.5 -159 t60 -152.5t61.5 -151.5t55 -158h-254q-51 154 -108 300.5t-113 295.5q2 12 -7 13t-21.5 0t-22.5 -1t-8 13v194q51 -13 91 -13q20 0 37 3q52 10 85 41t48 77t15 97t-15 100t-42 86q-77 26 -179 26q-20 0 -40 -1q2 27 1 56t-2 59z" />
<glyph unicode="S" horiz-adv-x="960" d="M-51 184q12 29 30.5 51.5t38 45t37 46t29.5 52.5q29 -23 54.5 -47.5t54 -46t63.5 -35.5t84 -17v-231h-18q-63 0 -113 12q-57 14 -103.5 41t-83 61t-73.5 68zM-14 996v14q0 74 20 148q22 81 62.5 147.5t99.5 109.5t135 47q20 -8 24.5 -32.5t2.5 -55.5t-5 -62.5t3 -56.5 q-27 -12 -57.5 -50t-48.5 -86q-18 -46 -18 -94v-5q1 -51 38 -92q27 -29 73.5 -40t103 -19.5t113 -20.5t101.5 -43q66 -45 99.5 -123t38.5 -168q1 -17 1 -34q0 -73 -18 -149q-22 -93 -68 -167q-44 -74 -114 -120q-64 -42 -146 -42h-14v219q51 10 87 62.5t45 118.5q3 20 3 39 q-1 45 -15 89q-20 62 -83 93q-39 18 -86.5 24t-95.5 12.5t-92 18.5t-79 43q-55 49 -81.5 121.5t-28.5 153.5zM412 1245v230q115 -10 194.5 -55.5t134.5 -114.5q-31 -47 -67.5 -89t-65.5 -94q-41 39 -87 72t-109 51z" />
<glyph unicode="T" horiz-adv-x="917" d="M-39 1354q-1 9 -1 18q0 21 4 40q5 26 24 36h487v-1448h-219v1231h-293q4 25 2 58t-4 65zM559 1231v217h195v-217h-195z" />
<glyph unicode="U" horiz-adv-x="1005" d="M-10 546q-1 54 -1 109q0 97 4 198q7 159 13 317q2 48 2 94q0 106 -10 202h219q12 -79 12 -175q0 -21 -1 -42q-3 -121 -10 -248t-12 -251q-2 -39 -1 -75q0 -81 7 -153q11 -106 45 -185t105 -112v-219q-141 10 -220 84t-113.5 191t-38.5 265zM436 6v207q10 23 27.5 34 t37 22.5t38 25.5t30.5 39q23 51 31 135q7 75 7 163v22q-1 102 -7 213.5t-11 221t-5 205.5q0 98 10 172h207q-10 -94 -10 -201q0 -45 2 -93q6 -158 13 -318q5 -112 5 -218q0 -46 -1 -90q-3 -148 -39 -265t-113.5 -191t-221.5 -84z" />
<glyph unicode="V" horiz-adv-x="1015" d="M-29 1450h222q51 -176 87.5 -360.5t81.5 -368.5q23 -90 49.5 -180t48.5 -179q22 -90 34 -180q6 -48 7 -96q0 -42 -5 -84h-170q-82 367 -177.5 722t-177.5 726zM482 564q-4 48 -4 97q0 99 16 199q22 150 64 299.5t73 290.5h219q-23 -139 -58.5 -283.5t-74.5 -292t-78 -296 t-70 -295.5q-76 135 -87 281z" />
<glyph unicode="W" horiz-adv-x="1417" d="M-41 1450h207q31 -180 72 -359.5t80.5 -359.5t71.5 -361.5t42 -367.5h-194q-31 184 -68 363.5t-74 357.5t-72.5 359.5t-64.5 367.5zM417 584q-4 52 -4 104q0 94 13 190q20 148 61 292.5t80 279.5h109q57 -217 112.5 -434t106.5 -443q33 100 55.5 210t42 222.5l39 225 t45.5 219.5h221q-29 -186 -65.5 -366.5t-74.5 -358.5t-73.5 -357.5t-66.5 -365.5h-195q-47 225 -95 446.5t-101 442.5q-41 -141 -68 -296t-65 -300q-66 141 -77 289z" />
<glyph unicode="X" horiz-adv-x="1015" d="M-29 6q86 178 168 361.5t163 367t165 364.5t174 355h231q-158 -369 -322.5 -724t-322.5 -724h-256zM8 1454h244q29 -88 63.5 -168t69.5 -160q-16 -33 -29.5 -68.5t-27 -69.5t-31.5 -64.5t-45 -53.5q-25 78 -57.5 149t-66.5 140.5t-65.5 142t-54.5 152.5zM483 395 q33 55 58.5 118t50.5 126q45 -70 83 -148.5t73.5 -158.5t71.5 -160t77 -154q-23 -10 -55 -12q-21 -1 -43 -1h-23q-36 1 -70 3q-12 1 -22 1q-22 0 -43 -3q-37 102 -80 194.5t-78 194.5z" />
<glyph unicode="Y" horiz-adv-x="997" d="M-16 1413v35h231q35 -113 75 -218.5t79 -213t73.5 -219t57 -234.5t30.5 -262q2 -43 2 -87q0 -102 -12 -214h-219q-6 63 -6 121q0 22 1 43q3 78 7 150.5t6 141.5v24q0 58 -8 116q-8 53 -26.5 106.5t-41 105.5t-47 103.5t-43.5 98.5q-41 106 -78.5 205.5t-80.5 197.5z M487 876q-6 40 -6 82q0 51 9 104q18 95 55 191.5t73 194.5h230q-29 -100 -63.5 -193.5t-71.5 -185.5t-74 -185t-70 -190q-68 90 -82 182z" />
<glyph unicode="Z" horiz-adv-x="925" d="M-8 6q-5 45 -5 85t5 75q10 70 34.5 130t57.5 118.5t68 128.5q43 88 83.5 168t80.5 157.5t80 156.5t83 163q18 35 32.5 83t36.5 90q23 41 58 69q31 24 78 25q7 0 14 -1q27 -71 27 -134v-16q-4 -70 -26.5 -135t-56.5 -126.5t-64 -122.5q-113 -227 -226.5 -461t-224.5 -453 h-135zM16 1200v254h488q-25 -70 -58.5 -129t-64.5 -125h-365zM223 6q29 66 64 125t59 131h377v-256h-500z" />
<glyph unicode="[" horiz-adv-x="604" d="M2 -158v1559h377v-219h-182v-1108q14 -10 35.5 -12.5t47 -1.5t52 3.5t47.5 -2.5v-219h-377z" />
<glyph unicode="\" horiz-adv-x="761" d="M-18 1403q23 -6 55.5 -2t62 5t52 -6t24.5 -34q104 -381 205.5 -761t208.5 -761h-195q-98 397 -205.5 781.5t-207.5 777.5z" />
<glyph unicode="]" horiz-adv-x="575" d="M2 59h182q10 131 13.5 270.5t2.5 283t-3 286.5t0 281q-14 12 -40 13t-55.5 0t-56.5 -1t-43 12v207h391v-1558h-391v206z" />
<glyph unicode="_" horiz-adv-x="1073" d="M0 -4h889v-170h-889v170z" />
<glyph unicode="`" horiz-adv-x="440" d="M-4 1419h207q8 -43 20.5 -81t24.5 -74.5t23.5 -75.5t17.5 -84h-133q-16 43 -38 82t-43.5 75.5t-42 75.5t-36.5 82z" />
<glyph unicode="a" horiz-adv-x="845" d="M-14 221v219q10 57 43.5 99.5t85 67t115.5 29.5q14 1 27 2q51 0 105 -15v-146q-15 2 -29 2q-39 0 -69 -13q-41 -17 -63.5 -50t-24.5 -80v-9q0 -43 17 -94q6 -25 31.5 -29.5t56.5 -4.5h55q25 0 26 -15q-2 -23 -1 -48t2.5 -50t-1 -47.5t-12.5 -36.5q-56 -15 -106 -15 q-16 0 -34 2q-64 7 -112.5 36.5t-77 79.5t-34.5 116zM23 928q67 148 275 149q31 0 64 -4v-219q-32 14 -58 14q-8 0 -16 -2q-32 -6 -57.5 -23.5t-49 -40t-50.5 -34.5q-23 45 -56.5 79t-51.5 81zM449 2v1047q86 -18 132 -77t64.5 -145t18.5 -190t-6 -215q-7 -112 -11 -220 q-1 -27 -1 -53q0 -78 9 -147h-206z" />
<glyph unicode="b" horiz-adv-x="862" d="M4 4v1413q0 29 22 35q17 4 39 4h15q31 -2 63.5 -6t55.5 2v-1448h-195zM282 954q1 32 5 61t10 48q72 36 129 36q18 1 34 -3q68 -14 116.5 -70.5t75.5 -145.5q28 -90 39 -192q9 -81 9 -163q0 -23 -1 -45q-3 -106 -19 -199t-43 -160.5t-62 -91.5q-29 -20 -64.5 -29.5 t-74.5 -9.5t-77.5 7t-73.5 19v207q27 -7 50 -7q39 0 65 18q42 30 62.5 90.5t23.5 139.5q1 18 1 36q0 60 -8 120q-10 76 -30.5 140.5t-42.5 95.5q-12 -2 -29 -1t-33 2t-29.5 -1t-17.5 -12q-8 18 -12 48q-3 24 -3 49v13z" />
<glyph unicode="c" horiz-adv-x="817" d="M-4 530q0 135 33.5 253t101.5 202t168 94q20 -6 24.5 -29.5t2.5 -52t-5.5 -59.5t3.5 -53q-35 -29 -59.5 -83t-38 -121t-14.5 -139v-13q0 -65 10 -125q11 -66 37 -119.5t65 -81.5v-195q-111 2 -183.5 80t-108.5 192.5t-36 249.5zM389 109q6 47 21.5 84.5t38 68.5t45.5 62 q47 -29 90 -61t80 -73q-37 -80 -99.5 -132t-169.5 -62q-8 44 -8 80q0 17 2 33zM395 1079q129 -4 195.5 -67.5t85.5 -175.5q-47 -12 -82 -34t-76 -40q-72 42 -106 116q-23 50 -22 124q0 36 5 77z" />
<glyph unicode="d" horiz-adv-x="854" d="M-4 625q6 109 21.5 203t57.5 156q41 62 115 86q32 10 73 11q54 0 124 -18v-207q-16 8 -28.5 9t-23.5 -1t-25.5 -5t-33.5 -3q-39 -47 -57 -132t-19 -179v-11q0 -88 15 -170q16 -88 49 -141q10 -2 25.5 -7t32 -7t31 0t22.5 14q10 -16 12 -41.5t1 -54.5t-2 -57.5t1 -53.5 q-79 -30 -139 -30q-41 0 -74 14q-80 35 -122 126t-52 223q-6 82 -6 170q0 52 2 106zM471 731q-1 92 -1 183.5t1 181.5q2 182 12 356h195v-1448h-195q-2 176 -6 359.5t-6 367.5z" />
<glyph unicode="e" horiz-adv-x="862" d="M-30 540q1 100 21.5 197t61.5 172.5t100.5 121.5t139.5 48v-194q-57 -33 -85 -93q-18 -39 -18 -96q0 -31 5 -67q4 -10 15 -12.5t26.5 -1.5t31 3.5t25.5 -2.5v-157h-98q-3 -29 -3 -55q0 -153 101 -201v-195q-82 0 -143.5 46t-101.5 121t-60 170q-19 90 -18 186v9zM377 -4 v207q66 4 99.5 42t60.5 79q41 -35 72.5 -78t60.5 -92q-31 -27 -59.5 -54.5t-62.5 -50t-75 -38t-96 -15.5zM377 459v157h110q0 47 -3 90.5t-14 78t-32.5 58t-60.5 29.5v207q109 -8 172 -62t97 -138q34 -85 42 -193q6 -87 6 -180v-47h-317z" />
<glyph unicode="f" horiz-adv-x="595" d="M0 852v182h74q-1 27 -1 53q0 72 8 135q11 85 50 143t111 85q44 16 105 16q36 0 79 -6v-207h-109q-33 -29 -35 -87q-2 -32 -2 -65q0 -27 1 -54q10 -10 27.5 -12.5t38 -1.5t42 3t37.5 -2v-182h-145v-852h-207v840q0 10 -9.5 12t-20.5 1t-23.5 -2t-20.5 1z" />
<glyph unicode="g" horiz-adv-x="866" d="M-2 472v24q0 89 12 174q15 96 44.5 179t77.5 134t114 63q14 3 29 3q56 0 124 -37q10 -18 12.5 -43t1.5 -52.5t-2 -57.5t1 -54q-25 13 -55 13q-8 0 -16 -1q-40 -4 -62 -24q-31 -45 -45 -125q-12 -74 -12 -155v-12q1 -87 15.5 -167t41.5 -125q10 -2 26.5 -7t34.5 -7t34.5 0 t24.5 14q8 -14 12.5 -41t3.5 -56.5t-5 -56t-11 -43.5q-31 -2 -66.5 -7t-72.5 -7q-11 -1 -21 -1q-26 0 -49 4q-34 5 -59 24q-41 31 -69.5 98t-45 157.5t-18.5 191.5zM47 -315q6 27 20.5 48t30 40.5t30.5 39t28 42.5q25 -16 54.5 -35t61.5 -29q31 -10 66 -10q1 0 3 1 q36 0 71 23v-243q-43 -9 -85 -9q-14 0 -27 1q-56 4 -104.5 21t-86 46t-62.5 64zM496 305q0 182 3 361.5t11 345.5h182q-12 -98 -12 -208q0 -23 1 -47q3 -136 11 -277.5t12 -277.5v-49q0 -109 -12 -205q-16 -118 -58 -209t-124 -140q-8 166 -11 345t-3 361z" />
<glyph unicode="h" horiz-adv-x="841" d="M2 0v1413q0 29 22 35q17 4 39 4h15q31 -2 63.5 -6t55.5 2v-1448h-195zM276 990q20 50 61 70q37 18 82 19q7 0 13 -1q53 -3 94 -19q61 -25 94 -93q34 -67 46 -159q12 -85 11 -185v-16q-1 -110 -6 -220t-7 -210q0 -17 -1 -33q0 -80 9 -143h-207q-10 50 -10 120q0 16 1 36 q3 94 9 195.5t8 199.5v22q1 84 -13 149q-16 72 -57 110q-28 25 -73 26q-22 0 -47 -6q-16 51 -16 89q1 28 9 49z" />
<glyph unicode="i" horiz-adv-x="440" d="M-12 1245v207q18 10 44 12q18 1 37 1h20q30 -1 60.5 -2t57.5 1v-219h-219zM0 4v1059h207v-1059h-207z" />
<glyph unicode="j" horiz-adv-x="405" d="M-147 -186q12 10 34.5 11t44.5 1q20 0 40 3t26 19v1219h209q-13 -86 -13 -198v-43q3 -140 11 -289.5t13 -300.5q1 -41 1 -81q0 -104 -9 -196q-13 -127 -50 -218t-113 -124h-194v197zM-2 1249v219h209q10 -18 11 -44v-28v-29q-1 -30 -2 -60.5t1 -57.5h-219z" />
<glyph unicode="k" horiz-adv-x="874" d="M3 732v122q0 122 1 242q2 180 12 352h195v-1448h-207q3 120 3 242q0 60 -1 122q-2 184 -3 368zM284 501q-10 47 -10 98q0 52 11 108q10 51 33.5 95t53 86t58.5 84t49 87h244q-72 -111 -139.5 -221.5t-141.5 -216.5q74 -156 151 -305.5t142 -315.5h-243q-27 76 -70 154.5 t-80.5 165t-57.5 181.5z" />
<glyph unicode="l" horiz-adv-x="526" d="M-8 508q0 125 7 261t12 264q5 129 6 239v16q0 99 -11 166h207q3 -100 3 -202q0 -52 -1 -102q-2 -154 -3 -306v-102q0 -102 1 -202q2 -150 12 -290q4 -18 17.5 -26.5t32 -10.5t41 -1t42.5 1v-207q-34 -3 -65 -3q-75 -1 -131 17q-78 24 -119 107q-29 57 -40 157.5 t-11 223.5z" />
<glyph unicode="m" horiz-adv-x="1314" d="M2 -2v1059h207v-1059h-207zM282 954v18q0 18 1 34q2 24 12 38q29 8 50.5 16.5t42 12.5t44.5 4q25 0 57 -8q18 -4 39 -19.5t37.5 -33t29.5 -31.5t15 -14q12 0 29.5 13t37 30.5t40 34t41.5 20.5q61 14 110 14q62 0 106 -22q79 -39 120 -122t51 -201q8 -90 8 -187 q0 -29 -1 -59q-3 -130 -8 -259q-2 -50 -2 -96q0 -74 5 -139h-207q-4 43 -4 101v40q2 84 5 176.5t4 185.5v26q0 77 -5 141q-2 33 -9 71.5t-25.5 70.5t-50.5 48q-18 9 -43 9q-19 0 -42 -5q-53 -12 -76.5 -63t-29.5 -127q-4 -41 -4 -87q0 -39 2 -80q6 -91 13 -183.5t9 -177.5 v-21q0 -72 -12 -125h-207q-5 64 -5 133q0 43 2 89q5 118 7 232v42q0 92 -7 176q-9 104 -46 180q-29 12 -68 12q-37 0 -65 -12q4 23 2 50.5t-3 53.5z" />
<glyph unicode="n" horiz-adv-x="858" d="M-2 8v1059h195v-1059h-195zM264 976q6 42 30 68q23 26 59 36q32 9 65 9q5 -1 9 -1q38 -2 73 -10.5t57 -22.5q53 -33 79 -103q26 -72 34 -164q5 -62 5 -130q0 -34 -1 -70q-4 -108 -10 -212q-4 -104 -6 -200q0 -11 -1 -21q0 -83 11 -147h-207q-5 64 -5 133q0 43 2 89 q5 118 7 233v41q0 92 -7 177q-9 103 -46 179q-12 10 -33 11t-42.5 0t-37.5 -2t-20 3q-16 49 -16 86q0 9 1 18z" />
<glyph unicode="o" horiz-adv-x="845" d="M2 526v20q0 89 16 175q18 96 55.5 173t92.5 127t131 58q20 -6 24.5 -29.5t2.5 -52t-5.5 -59.5t3.5 -53q-53 -37 -76 -117t-26 -174q-1 -17 0 -34q0 -78 10 -156q14 -96 30 -164q-2 -14 6 -18.5t19.5 -5.5t22.5 -2t14 -11v-207q-78 2 -137.5 49t-99.5 121t-60.5 168 t-22.5 192zM404 86q2 27 4 54.5t-2 49.5q4 14 15 21.5t22.5 14.5t21.5 15.5t14 22.5q7 74 17 164q10 82 9 162v15q-1 87 -22.5 160t-76.5 107v207q82 -4 141 -51t98 -122t58.5 -169t19.5 -192t-20.5 -193.5t-58.5 -172.5t-95 -126t-131 -57q-10 16 -12 40q-2 15 -2 30 q-1 10 0 20z" />
<glyph unicode="p" horiz-adv-x="845" d="M9 360v122q0 121 1 240q2 179 13 349h194v-1450q-25 2 -54.5 1t-56.5 -2h-18q-18 0 -34 1q-25 2 -44 12q3 119 3 240q0 60 -1 121q-2 184 -3 366zM290 974v18q0 18 1 35q2 26 12 44q71 34 128 34q19 0 36 -3q70 -15 118 -71t76.5 -145t40.5 -190q10 -77 10 -157 q0 -26 -1 -51q-4 -107 -20.5 -199t-44.5 -160t-62 -94q-55 -38 -130 -38h-11q-82 3 -152 26v206q32 -9 57 -9q33 0 56 14q42 26 62.5 79.5t23.5 126.5q2 25 2 51q0 47 -4 96q-7 75 -19 142.5t-20 110.5q-29 18 -73 32q-16 4 -32 4q-27 0 -53 -14q2 25 1 54.5t-2 57.5z" />
<glyph unicode="q" horiz-adv-x="854" d="M10 651q6 109 22.5 200t58.5 151.5t117 81.5q31 10 71 10q54 0 122 -17q10 -16 12.5 -40.5t1.5 -51.5t-2 -53.5t1 -50.5q-14 2 -27 2q-55 0 -91 -28q-44 -34 -64.5 -93.5t-22.5 -135.5v-25q0 -63 8 -125q10 -75 27.5 -139.5t34.5 -100.5q27 -10 61.5 -11.5t73.5 -1.5 v-194q-83 -32 -146 -32q-43 0 -76 15q-83 35 -125 129.5t-53 229.5q-6 86 -6 176q0 51 2 104zM483 366q-1 63 -1 124q0 123 3 243q4 180 25 344h182v-1450h-207q4 119 4 242q0 61 -1 123q-3 188 -5 374z" />
<glyph unicode="r" horiz-adv-x="663" d="M2 -6v1061h207v-1061h-207zM283 836v206q49 23 104 24h7q50 0 94 -14q46 -16 77 -43.5t33 -64.5q0 -10 -17.5 -40t-41 -60.5t-48 -56t-38.5 -25.5h-4q-23 0 -39 20q-18 22 -35 44t-38 30.5t-54 -20.5z" />
<glyph unicode="s" horiz-adv-x="817" d="M-27 143q8 29 24.5 50.5t35 42t35 42t28.5 48.5q45 -37 92.5 -72t114.5 -49v-209h-11q-114 0 -186 41q-76 43 -133 106zM4 706q-2 18 -2 37q0 51 12 101q16 70 52 125t90 87q45 26 101 26q11 0 22 -1q20 -8 24 -31.5t2 -52t-5 -59.5t3 -53q-23 -10 -48.5 -17.5 t-37.5 -29.5q-2 -25 -3 -47q0 -37 7 -66q10 -47 45 -70q51 -8 97.5 -11t87.5 -9t76.5 -19.5t66.5 -46.5q40 -41 58 -102q17 -58 17 -120v-7q-1 -66 -21.5 -130.5t-58.5 -112.5q-39 -47 -93 -73q-39 -18 -84 -19q-18 0 -37 3q6 31 4 54.5t-5 44t-4 41t5 45.5q6 20 19.5 31.5 t26.5 22.5t25.5 22.5t14.5 31.5q2 11 2 22q1 25 -9 49q-14 34 -42 74q-45 12 -84 15.5t-75 4.5t-67.5 6t-64.5 24q-53 31 -82 86.5t-35 123.5zM375 872v209q92 -6 159.5 -36.5t96.5 -98.5q-33 -37 -61.5 -77t-59.5 -81q-14 12 -27.5 27.5t-29 28t-34 20.5t-44.5 8z" />
<glyph unicode="t" horiz-adv-x="536" d="M-55 864v185h86v303h207v-291q8 -10 23 -13.5t34.5 -2t40 3.5t35.5 0v-185h-133q1 -39 1 -79q0 -41 -1 -81q-2 -82 -4 -163v-49q0 -57 2 -111q4 -78 14 -150q6 -10 20.5 -12t31.5 -1t35.5 3t33.5 -2v-207q-54 -10 -97 -10q-56 0 -94 16q-70 29 -105.5 92.5t-43.5 153.5 q-6 72 -6 151v39q2 100 8 206q3 45 3 86q0 56 -5 108q-2 10 -12.5 12t-23.5 1t-27.5 -3t-22.5 0z" />
<glyph unicode="u" horiz-adv-x="862" d="M2 576q2 130 8 261q3 56 3 107q0 69 -5 131h207q5 -64 5 -133q0 -43 -2 -87q-5 -115 -7 -229v-41q0 -91 7 -175q9 -102 46 -177q34 -16 64 -19q7 -1 14 -1q25 0 55 8v-194q-75 -23 -133 -23q-46 0 -82 14q-80 32 -121 112t-51 198q-8 98 -8 205v43zM483 14v1061h195 v-1061h-195z" />
<glyph unicode="v" horiz-adv-x="870" d="M-18 1061h219q57 -266 120.5 -525.5t110.5 -535.5h-158q-74 268 -150 527.5t-142 533.5zM415 616q9 112 35.5 225t55.5 220h219q-25 -113 -55.5 -221.5t-61 -216t-60.5 -216t-54 -223.5q-56 100 -72 210q-11 71 -10 143q0 39 3 79z" />
<glyph unicode="w" horiz-adv-x="1286" d="M-31 1067h207q59 -262 111.5 -523t107.5 -526q-15 -8 -37 -11q-17 -2 -35 -2h-13q-26 1 -50 2t-47 -1q-59 270 -122 531.5t-122 529.5zM377 646q10 108 35.5 214.5t54.5 206.5h160q41 -154 75.5 -308.5t81.5 -301.5q37 147 68 298.5t53 311.5h219q-53 -274 -115.5 -535.5 t-127.5 -525.5h-170q-35 168 -78 324.5t-80 322.5q-35 -102 -59.5 -209.5t-51.5 -218.5q-49 100 -62 207q-7 60 -7 121q0 46 4 93z" />
<glyph unicode="x" horiz-adv-x="880" d="M-2 0q123 279 261 537t276 524h219q-135 -268 -272.5 -531.5t-276.5 -529.5h-207zM-2 1061h244q25 -55 50 -108.5t46 -110.5q-20 -23 -33.5 -52.5t-26 -59.5t-29 -55.5t-44.5 -39.5q-43 115 -101.5 215t-105.5 211zM412 219q29 55 55 110.5t55 108.5q43 -43 74 -96 t58.5 -111.5t53 -118t58.5 -112.5h-244q-33 53 -54.5 112.5t-55.5 106.5z" />
<glyph unicode="y" horiz-adv-x="866" d="M-31 1094h219q29 -106 54.5 -212t33.5 -210q4 -38 4 -74q0 -67 -10 -134q-16 -102 -69 -200q-63 203 -122 408t-110 422zM55 -137h99q55 145 103 298.5t92 310.5t88 313.5t93 308.5h183q-27 -117 -63 -252t-73.5 -278.5t-78.5 -291t-78 -286.5q-18 -72 -39 -139.5 t-59.5 -118t-101.5 -76.5q-37 -15 -89 -15q-35 0 -76 7v219z" />
<glyph unicode="z" horiz-adv-x="806" d="M-23 -4q-4 39 -4 75q1 61 13 110q20 79 57 146.5t85 133t93 145.5q72 125 132.5 242t123.5 209h121v-209q-68 -102 -129 -211t-122.5 -217.5t-125 -216t-135.5 -207.5h-109zM2 848v209h377q-27 -57 -60.5 -105.5t-60.5 -103.5h-256zM197 -4q23 63 56.5 114.5t63.5 104.5 h281v-219h-401z" />
<glyph unicode="{" horiz-adv-x="743" d="M-18 526v219q14 2 32.5 1t34.5 -1t30.5 2.5t22.5 10.5q39 43 47.5 100t5.5 121.5t-9.5 130.5t6.5 123q12 63 41.5 102t76.5 58.5t111.5 23.5t146.5 -2v-219q-35 -2 -78.5 2t-66.5 -14q-4 -172 -8 -340t-6 -314.5t-2 -261.5t4 -180q12 -8 31.5 -11t41 -2t44 2t40.5 -1 v-219q-61 2 -107 1t-82 0t-62.5 9t-51.5 27q-47 37 -60 101t-13 138t4 148.5t-7.5 132t-48.5 90.5t-118 22z" />
<glyph unicode="|" horiz-adv-x="397" d="M-4 -96v1521q0 29 22.5 36t53 5t63 -6t55.5 2v-1558h-194z" />
<glyph unicode="}" horiz-adv-x="731" d="M4 -100v219h148q25 33 39 113.5t20 187t4 227.5t-7 231.5t-14.5 200.5t-19.5 135q-25 25 -74 25h-96v219q111 25 181.5 11.5t114.5 -55.5t64.5 -106.5t28.5 -142.5t8 -161q0 -84 5 -166q4 -25 22 -34t43 -12.5t50.5 -4.5t43.5 -11v-207q-53 4 -95 -3t-64 -34 q-4 -82 -5.5 -166.5t-8.5 -163.5t-26.5 -145.5t-62.5 -110.5t-114.5 -58.5t-184.5 12.5z" />
<glyph unicode="&#xa7;" horiz-adv-x="761" d="M-10 699.5q4 60.5 22.5 116.5t42.5 99q25 -4 44.5 -14t37 -21.5t34.5 -21.5t42 -16q-43 -70 -45 -119t24.5 -85t72.5 -61.5t98.5 -48t100.5 -46t79 -54.5q70 -70 78 -165t-27 -181t-103.5 -147.5t-154.5 -65.5q-61 -4 -115.5 11.5t-96.5 54t-69.5 100t-36.5 149.5 q29 18 79 14.5t93 -1.5q18 -16 26.5 -34t17 -33t19.5 -26.5t34 -15.5q47 -10 88 17.5t45 78.5q8 70 -30 98.5t-96 48t-124 45t-115 89.5q-41 53 -55 113.5t-10 121zM-6 1171q-12 100 23.5 176t96 122.5t135.5 59.5t142.5 -12.5t116.5 -95t59 -188.5q-29 -14 -72.5 -13 t-84.5 1q-8 47 -45 73.5t-78 29.5t-74 -18.5t-35 -72.5q-2 -49 28 -76t75 -44t97 -32.5t91 -42.5q66 -45 98.5 -107.5t38.5 -133t-11 -141t-52 -130.5q-27 0 -45.5 8.5t-36 19.5t-34.5 20.5t-42 13.5q35 98 22.5 157.5t-53.5 98.5t-98 66.5t-112.5 59t-98.5 78t-51 123.5z " />
<glyph unicode="&#xa9;" d="M-33 1139q10 18 33 45.5t47 27.5q18 0 33 -20q14 2 16 13.5t10 17.5q25 -4 35.5 -12.5t14.5 -16.5t6 -17.5t10 -17.5q4 12 4 17q4 0 4 -7q0 -2 -1 -5t-1 -7q35 -12 59.5 -32.5t57.5 -37.5q4 2 5 4.5t3 2.5t4 -2q0 -2 -6 -9q10 -6 18.5 -13t18.5 -13q4 2 4 4t4 2h2 q0 -6 -6 -6q2 -4 5 -5t7 -5q0 -2 -1 -1t-1 -2q37 -20 74 -40.5t74 -42.5q-12 0 -13 -7q-2 2 -6 2q-2 0 -11 -7t-15 -15q-10 4 -17.5 8t-17.5 14l-2 -2q-14 0 -38 20.5t-32 31.5q-2 0 -1 -2.5t-3 -2.5q0 8 -6 9l2 -4q-4 4 -8 4q-2 0 -2 -2h-2q-20 23 -58.5 44t-76.5 35 q0 2 1 3.5t1 3.5v2q-4 4 -5 6q4 4 6.5 3t6.5 1q-4 4 -8.5 9t-8.5 9v-6q0 -4 -2 -4t-3 1t-3 1q0 -2 2 -2t2 -2q0 -4 -4 -6t-6 -2q-4 0 -10 6q0 -4 2 -6t2 -6v-2q-16 12 -31.5 27.5t-40.5 21.5q-6 -2 -9 -5l-7 -7q12 -18 12 -46q-2 -16 -15.5 -23t-29.5 -7q-20 0 -33 6 q0 2 1 1t1 1t-2 2t-1 -2t-1 -2q-29 2 -36 24.5t-7 51.5zM-31 51q8 0 13 -4q0 4 -6.5 7t-4.5 3q0 -2 -2 -2q4 10 6 18.5t11 12.5q0 -2 -2 -4q2 0 3 1t5 1q-2 -10 -5 -20.5t-3 -20.5t4 -16.5t4 -18.5q-16 0 -19.5 13.5t-3.5 29.5zM-6 8q0 2 1 4t1 4t-2 2q6 0 8 9.5t6 17.5 q-2 10 -7 16.5t-5 16.5q0 2 1 3t1 3q10 0 15 -11.5t5 -25.5q0 -16 -6 -28.5t-16 -12.5zM-6 1141q0 -16 2 -21q12 6 18 6q14 0 22.5 -12t16.5 -24q-2 16 -13 38.5t-28 22.5q-10 0 -18 -10zM20 33q2 2 5 2q4 0 4 -2v51q14 0 15 -10.5t1 -32.5q0 -12 -2 -23.5t-10 -11.5l2 2 q-6 0 -6 10v15q-2 -2 -2 -4t-4 -2q-2 2 -3 6zM33 782q4 8 4 15q0 6 -4 10q12 8 27.5 15t33.5 7q23 0 34 -10t34 -10q14 0 37.5 7t50.5 11q10 2 30.5 10.5t41 18.5t37 19.5t16.5 11.5t-2 3t-2 5q4 4 8 4q8 0 8 -6q0 -4 -2 -4l-2 -4q6 6 10 6l2 -2l23 12q22 12 48 27.5 t47.5 30t21.5 16.5h-3q2 0 1 -1t2 -1q18 14 38.5 23.5t40.5 21.5q10 0 15 -2q0 4 -11 4q10 6 17.5 13t17.5 11q0 2 -1 3.5t-1 3.5q0 4 4 4q6 0 9 -4q16 4 27 11t26 11q2 0 1 -1t3 -1q2 4 5 8t9 4q2 0 2 -2h2q6 4 13.5 8.5t13.5 10.5q-4 4 -4 10q4 0 5 -2t5 -2q12 4 22.5 13 t10.5 24q0 4 -4 16q16 12 35 12q16 0 28 -6q0 -4 -2 -4t-2 -4q2 0 4 2q2 -8 15 -8q16 0 22 6q0 2 -2 2v2q18 23 33.5 47.5t54.5 24.5h6q0 -2 -2 -4t-2 -6q4 0 4 4q0 6 6 6q4 0 5 -4q6 6 14 6q20 0 28.5 -16.5t8.5 -38.5q0 -70 -64 -70q0 14 5 27.5t5 27.5q0 6 -4 19 q-29 -8 -53 -27q2 -4 3 -8t1 -12h-8q8 -8 8 -19q0 -4 -6 -4q-4 8 -5 11l-1 3q0 2 -1 4.5t-7 8.5q-6 -14 -26.5 -17.5t-37.5 -7.5q4 -16 4 -24t-2 -11q-4 0 -4 6q-14 -4 -23.5 -9t-11.5 -5q4 -2 4 -6q0 -8 -10 -8q-6 0 -6 8q-14 -6 -23.5 -11t-17.5 -9q0 4 -2 4v2l-2 -2 q0 -2 1 -3t1 -4h-2q0 2 -2 3l-2 -3l8 -4q0 -6 -6 -6q-4 0 -3 2t-1 4q-4 -2 -9 -4l-10 -4q-6 4 -6 10q0 8 -10 11v2q2 0 2 2q-2 0 -2 -2t-2 -2t-2 4q-2 0 -2 -6q-2 2 -6 2l-2 -2l2 -2q2 0 3 1t3 1q0 -4 -2 -4v-3v-2q2 0 2 -4h-2v-4q2 0 4 -4q2 2 2 6t4 4l2 -2q0 -4 -1 -3 t-3 -1q0 -4 2 -4q4 0 4 -4q-10 -10 -26 -16q0 4 -2.5 3t-4.5 1v-2q2 0 3 -2q0 -4 -9.5 -5t-13.5 -4q0 -4 2 -4t4 -2q0 -6 -2 -6h-4v-2q2 0 2 -2q-2 -6 -8 -6q-4 0 -12 4q0 -8 -11 -8q-2 0 -6 4q-10 0 -12 -8q-4 2 -5 1t-5 3q4 -6 9 -7t9 -5l4 4q4 0 4 -2l-4 -4 q8 -4 12.5 -10.5t12.5 -10.5q4 10 12 12t10 2t4 -2q4 4 11 4h10q-4 -10 -22.5 -13t-24.5 -9q-14 8 -26.5 15t-22.5 20q-29 -8 -51.5 -23.5t-47.5 -23.5l2 -2q0 2 -19.5 -10.5t-33.5 -18.5q-4 0 -4 4q-2 0 -2 -4q0 -2 2 -2q-4 -2 -6 -4t-6 -4q0 -4 2 -4t2 -5q-4 -4 -6 -4 q-4 0 -4 2t-2 4q-8 -4 -14.5 -8t-14.5 -8q-4 0 -2 3t-2 3q0 -6 2 -6q-4 -4 -10.5 -7t-10.5 -3q-6 0 -6 6q-4 0 -2 -2t-2 -2q-2 0 -8 6q-2 2 -2 4t4 6q10 -2 14 -8l4 4l2 -2q0 2 -2 2v2q-4 0 -4 -2h-2q0 2 -2 2t-2 2l2 2h-6l2 2q0 2 -2 2v2v3q2 0 2 2q-4 0 -5 -2.5t-3 -2.5 q0 -4 3 -2t3 -2q-6 0 -8 2q0 -4 2 -4q-6 0 -6 4q-2 0 -2 -2h-2q0 -4 3 -3t5 -3h-2q-2 0 -2 -2t1 -1t1 -1q-2 0 -6 4q-2 -2 -4 -2q2 -2 4 -1t4 -3q-4 -4 -8 -4q-6 0 -11 6v-4q-2 0 -1 1t-1 1h-2q0 -4 11.5 -6t11.5 -4h-11q2 -2 3 -2q4 0 8 4q4 0 3 -1t3 -1l-2 -2q0 -2 10 -8 q-8 -4 -12 -7.5t-13 -11.5q-4 0 -6 2q-10 -12 -25.5 -20t-30.5 -17.5t-27.5 -20.5t-16.5 -30q0 -8 2 -13t2 -11q0 -68 -70 -68q-23 0 -41 18.5t-18 47.5q0 20 6 36.5t17 28.5q-10 10 -11 8q-2 0 -2 -2h-2q-51 0 -86 15q0 -14 4 -21.5t9 -17.5q-18 0 -20.5 11t-12.5 17z M37 1073q4 -2 4 -12q6 4 6 8q0 2 -4 6q0 2 2 2t2 2l-4 4q-2 0 -2 -8q-2 -2 -4 -2zM49 74q0 10 10 10q0 2 -1 3t-1 3q2 2 2 4l2 2v-2v4q0 -2 -2 -2q0 4 2 4t2 -2q0 -4 -2 -6t-2 -6q12 -2 15.5 -12.5t3.5 -22.5q0 -4 -1 -8t-1 -8q0 -14 4 -23q0 -4 -1 -6t-1 -4l-2 2q2 0 -2 4 l2 -2q2 0 1 2t1 4q-2 -4 -7 -3t-10 -1q0 35 -6 49q-4 8 -6 17zM70 1075q2 4 4 6t4 6q-8 -4 -8 -12zM70 1110q0 -4 4 -4q-2 2 -1 4t-1 2zM84 498q2 0 2 -2t2 -2q0 2 -1 3t-1 3l2 2q-4 0 -2 6t-2 10q4 2 4 4t2 4l-4 -4q-2 2 -2 8q2 2 8 2l-2 -2v-2q2 0 2 -2q4 4 8 4 q0 -14 17 -14q-4 8 -7.5 9t-3.5 3q8 4 11 4q12 0 12 -16h21q10 0 18 -8q-4 2 -8 2q-2 0 -4 2q4 -10 12 -14t12 -15q8 2 5 12.5t5 14.5q10 -4 12.5 -8t6.5 -8q-6 0 -6 -9q0 -2 1 -4t1 -4q-6 -2 -6 -8q0 -4 2 -8t2 -8t-4 -9q2 -4 3 -5t3 -5q-2 -2 -2 -4l-2 -2q0 -2 2 -2 q0 2 2 2q2 -2 2 -4q-14 -10 -21.5 -24.5t-15.5 -30.5q-12 16 -21.5 38.5t-13.5 22.5v-2q0 -2 -2 -2v-2q0 4 2 4q-4 14 -14 20.5t-10 12.5t4 10q-4 6 -7.5 14.5t-11.5 14.5q-4 -4 -5 -6t-5 -7q-2 2 -2 11zM86 55l2 2q2 0 2 -2v54h12q4 0 4 -9q0 -4 -1 -10t-1 -10q0 -8 2 -10 q0 -4 -1 -9.5t-1 -11.5q0 -20 6.5 -25.5t6.5 -9.5q0 -8 -8 -8q-16 0 -17 14q0 14 -6 35zM86 158q12 23 23.5 45t23.5 45q0 4 -2 3t-2 3l2 2q2 0 2 -2h2q23 39 42.5 78t41.5 80q2 0 1 -2t3 -2t4 4q0 2 -2 1t-4 1q4 6 7 14t8 14q0 -2 -7 4q4 0 3 2.5t1 2.5q4 -2 5 -2 q10 14 18 31.5t18 33.5q4 -2 9 -2q4 0 8 -2q-2 -2 -2 -4h-4q4 -2 5 -6t5 -4q2 0 1 3t3 3q0 -8 3 -17.5t5 -13.5q4 2 3 5t1 7q-6 4 -6 11q6 4 6 8t-4 8q-2 -2 -2 -4t1 -3t1 -5q-4 4 -4 8t-4 10q6 0 6 -4q4 0 3 1t1 3l4 -2q0 -2 -2 -4q6 0 5 3t10 3v-4q2 0 2 4q2 0 2 -4 q0 -2 -2 -4h4l-2 -2q-2 -2 -2 -10q4 0 2 3t8 3q-10 -18 -19.5 -37t-17.5 -37q2 -2 7 -1t5 -3q-4 -4 -7 -8t-7 -6q-4 0 -4 6q-2 -2 -5 -6t-3 -9q2 -2 2 -4q4 2 3 6.5t3 4.5q4 -4 4 -9q0 -8 -4 -18t-4 -21q-8 2 -10 9q0 6 2 10t4 10l-4 4q-8 -12 -15.5 -24.5t-11.5 -24.5h-2 q0 2 -2 2q0 -8 -5 -17.5t-9 -17.5h-2q0 2 -3 2q-2 0 -2 -2t-2 -2q0 -2 2 -1t5 -3q-4 -4 -15.5 -27.5t-25 -49t-24.5 -46t-17 -20.5q-10 0 -19.5 2t-19.5 2q2 6 8 6q8 0 12 -2l7 7t8 7q0 2 -1.5 3t-1.5 3q-4 0 -5 -1t-5 -1q-4 6 -2 12.5t-2 10.5q-4 -6 -8 -11t-4 -10 q-2 0 4 7q0 -4 4 -4l2 2q2 -4 2 -5q0 -4 -10 -10t-14 -6q4 -4 4 -6q-4 0 -5.5 1t-3.5 1q-2 -2 -4 -2q10 -2 16.5 -3t16.5 -5q2 2 6 2q6 0 19 -4q-6 0 -15.5 -1t-17.5 -1q-10 0 -12 4q-4 0 -3 -2t-16 -2q-6 0 -8 2zM92 1180q6 0 6 2l-2 2q-2 0 -4 -2v-2zM111 489q4 0 6 3 l-2 2q-4 -1 -4 -5zM119 82q2 0 3 1t3 1q12 0 13 -9t5 -20v2v6q0 6 4 7q0 -6 -2 -11.5t-2 -9.5h2q0 2 2 2q-4 -6 -6 -13t-4 -13q-6 12 -10 27.5t-8 29.5zM123 473q2 0 2 -2q4 4 8 4t6 4l-4 -2q-2 0 -3 1t-3 1q-2 -2 -4 -2zM127 -4q8 0 12 13.5t8.5 29.5t10.5 29.5t16 13.5 q-10 -25 -15 -53.5t-20 -48.5q-6 4 -9 2t-3 14zM141 215q4 0 4 4q0 2 -2 2q0 -2 -2 -2v-4zM145 193q6 0 7 4q-2 -2 -5 -2zM145 240q4 -2 5 -4l2 -3q0 4 1 6.5t1 6.5q0 2 -2 2q-7 0 -7 -8zM147 172q1 -6 3 -6q4 0 4 4h-2q0 2 -5 2zM147 698q2 -2 3 -2h2q0 2 -5 2zM147 713 q2 -2 3 -2q2 0 2 2h-5zM152 162q6 0 6 2t-6 2v-4zM154 256q0 -2 1 -3t1 -3q6 0 6 4h-4q0 2 -4 2zM156 700q0 4 1 3t1 4q-2 -1 -2 -7zM156 729q6 0 6 4q-2 0 -6 -4zM156 788q2 2 7 3.5t7 5.5q-2 2 -4 2q-4 -1 -10 -11zM162 244q0 -6 4 -6q-2 0 -1 2t-1 2v-2q0 4 -2 4z M166 246q6 0 6 4q-6 0 -6 -4zM166 766q10 0 14 10q-14 -4 -14 -10zM172 401q0 -4 2 -4v2q2 0 2 4q-4 0 -4 -2zM172 422q6 2 7 8t3 10q-6 -2 -6 -8t-4 -10zM174 715q0 -23 5 -34t9 -11q0 35 21 43q-6 8 -14 8q-11 0 -21 -6zM174 721q2 -2 4 -2q0 2 -4 2zM178 315l2 -2 q2 0 2 4q-2 0 -4 -2zM180 449q0 -2 2 -3l2 3h-4zM180 739l2 4q-2 -2 -2 -4zM184 420q10 0 15 8q-2 0 -1 1t-3 1q-11 0 -11 -10zM188 467q0 -2 1 -3t1 -3q4 0 7 6q-2 0 -7 4zM193 653q4 0 6 2l-2 2zM195 739q4 -4 6 -4q0 4 -6 4zM197 309l2 -4q2 2 0 2l2 2q0 2 -2 2 q0 -2 -2 -2zM197 780q0 -2 2 -2l2 2v2q-4 0 -3 -1t-1 -1zM203 317l4 5l-4 2v-7zM203 1108q2 0 2 -2h4q-2 0 -2 2q0 4 -2 4l-2 -2v-2zM207 309q4 0 4 4zM207 1468q4 0 11 9.5t15.5 20.5t16.5 20.5t16 9.5q10 0 16.5 -5t20.5 -5q-31 27 -33 69q-2 -2 -4 -2q-4 0 -4 4l2 4 q4 0 4 -2t2 -2q0 4 1 6t1 4q0 23 -11 44.5t-11 42.5q0 8 2 12t6 10q4 -2 3 -5t3 -3q2 47 26.5 74.5t47.5 58.5q14 6 25.5 9t25.5 11q14 6 23.5 19.5t25.5 13.5q12 0 21 -6q-16 -10 -21.5 -29.5t-19.5 -31.5q2 -4 2 -11q0 -12 -8.5 -16t-8.5 -18h3q2 2 4 2l4 -4q0 -4 -6 -5 h-2q0 2 -3 2q-2 -16 -22 -20q0 -2 3 -1t3 -1q0 -23 -6 -35q-2 0 -4 2q-6 -4 -7 -12t-5 -16q2 0 2 -3h4q0 14 16 19q23 -14 26 -28.5t17 -14.5q6 -8 6 -19q0 -8 -2 -15t-2 -15q0 -10 4 -17q-8 -6 -8 -22q0 -12 3 -28.5t3 -29.5q0 -25 -17.5 -22.5t-35.5 -1.5q20 -6 39 -21 q2 0 3 1t3 1t4 -2q0 -2 -6 -8q10 -4 16 -9t13 -11q4 4 6 4t2 -4t-4 -4q8 -4 10 -12.5t10 -12.5q0 -2 -4 -6q6 -2 13.5 -13.5t14.5 -21.5t12 -19.5t7 -9.5v2q0 -2 -10 -2q0 -4 -2 -8t-6 -4q2 -2 10 -2h12q6 0 6 -6q8 2 18.5 4t20.5 6q-2 0 -2 -2t-2 -2q16 6 37 8t39 6 q4 -2 5 -3t5 -1q0 -12 -2 -18q4 0 4 2v6q0 4 3 7t12 3q29 0 59 -10q-4 12 -5 25.5t-11 17.5q4 16 10 27.5t10 23.5q0 2 -4 2q-2 0 -2 4q4 2 4 3q4 0 4 -3q8 12 16.5 22.5t24.5 14.5q-27 0 -50.5 -7t-23.5 -11h2q-4 2 -10 2q-23 0 -40 -19.5t-27 -39.5h2q0 2 2 2h4q2 0 2 -2 t-10.5 -11.5t-23.5 -19.5t-28.5 -19.5t-27.5 -9.5q-16 0 -17 23q33 20 47 39q-2 2 -2 8q4 4 9 4l4 -2q16 20 30.5 44.5t18.5 57.5q-6 -2 -14.5 -3t-16.5 -3q0 31 8.5 50.5t32.5 25.5q4 18 8 43.5t4 48.5q0 12 -4 25q8 -4 16.5 -8.5t8.5 -20.5q4 2 2 7t2 7q16 -6 17 -24.5 t10 -28.5q0 2 -1 5t-1 5l2 2q0 2 2 4q-6 47 -29 69t-29 32q4 8 4 10q0 6 -4 6t-8 4q4 6 8 6l2 -2q0 4 -1 7.5t-1 7.5q0 10 1 18t1 16q0 14 -6 19q0 6 2 6q-8 4 -12 18q53 -4 95 -58t42 -136q4 -4 6 -4t2 -8q0 -14 -9 -25.5t-9 -19.5t14 -15q0 -29 -7 -42t-18.5 -19t-24.5 -8 t-28 -9q16 0 47 4.5t54 4.5q18 0 24.5 -8.5t6.5 -26.5q0 -20 -11.5 -31.5t-25 -23t-25.5 -25.5t-16 -39q4 -2 6 -4t6 -2q2 2 2 4q0 4 -3 3t-3 3l4 4q4 0 6 -3t4 -5q0 -4 -2 -8t-8 -4q2 -12 13.5 -23.5t11.5 -15.5q-10 -35 -39 -35q0 2 2 1t2 1t-4 2t-6.5 -3t-10.5 -3 q-2 0 -4 2q0 -2 -6 -2q-8 0 -12 6q0 -2 -13.5 -10t-17.5 -27q-6 0 -6 4q0 8 7 15.5t11 15.5q-2 6 -9 8t-15 3t-14.5 4t-6.5 12q-4 -4 -6 -6.5t-10 -2.5q-2 0 -2 3v2q-4 -2 -3 -6.5t-9 -4.5q0 2 4 6q-2 0 -3 -1t-4 -1q-8 0 -26.5 1t-32.5 4q6 -8 8 -21.5t2 -26.5 q0 -23 -2 -30q4 2 12.5 18.5t8.5 24.5h-4q4 12 13 15t21 3q10 0 11 -8q0 -25 -13 -41q4 -2 5 -8q-4 0 -5 2q0 4 -4 4q-2 0 -1 -2t-3 -2q2 -2 2 -6q0 -6 -3 -13.5t-3 -13.5q2 -4 6 -4t4 -4q0 -2 -2 -2v-2q-2 0 -8 6q-6 -16 -16 -35q-4 2 -8 2q-2 0 -7 2l-9 -9t-15 -5 q-2 0 -8 4l-9 6q0 6 7 6q2 0 2 -2h2q0 8 -1 14.5t-1 12.5q0 12 3 13t7 7q-2 0 -2 -2t-2 -2l-2 2q0 4 6 4q0 2 -2 2h-4q0 4 1 8.5t1 8.5q0 18 -4 39q-2 0 -2 -2h-2l-2 2l4 4q-6 12 -11.5 24.5t-19.5 12.5q2 0 2 -2q0 -16 -12.5 -22.5t-12.5 -27.5q10 -23 8.5 -45t2.5 -47 q4 2 4 9q0 6 4 6t4 -4q-4 -4 -2 -10.5t-6 -6.5q4 -20 4 -31q-27 0 -33 9q-2 0 -2 -2v-2q2 0 2 -3q0 -4 -4 -4q2 4 2 9q0 16 -18.5 19t-22.5 20q2 2 4 2q4 0 7 -1t8 -1q0 4 -5 4h-8h-6q0 4 2 4t2 2l-4 4l-2 -2q0 6 -2 9t-2 7h2q2 0 1 3t3 3q-2 0 -2 -2t-4 -2q0 10 -4 12.5 t-8 6.5q0 2 1 3t1 3q0 6 -2 13t-2 13t4 11q-4 4 -4 8q0 16 10 16q14 0 19 -10t7.5 -21.5t3.5 -21.5t7 -10q0 37 24 65q-10 14 -30 15q-18 0 -37 4q-2 -2 -3 -7.5t-5 -5.5t-7 2v5q2 0 4 4q-2 0 -3 1t-3 1q-14 0 -13 -7.5t-3 -7.5t-3 6.5t-3 6.5t-4 -4q0 -2 -2 -5q-4 2 -4 3 q0 2 -3 4q-16 -2 -23 -17.5t-17 -15.5q-2 0 -7 4q-23 -12 -39 -25q-8 4 -18 13.5t-18.5 20.5t-14.5 20.5t-6 11.5q0 23 14.5 36t18.5 36q-20 47 -45 77zM209 274q2 0 2 2h-2v-2zM209 383q0 -2 4 -2q2 0 2 4q-6 0 -6 -2zM209 723q6 0 6 2q-4 0 -4 -2h-2zM211 283q0 -2 2 -4 q0 4 2 4t2 4l-2 4q-4 0 -4 -8zM211 299q4 0 4 4q0 2 -2 2q0 -4 -2 -4v-2zM211 342q2 -2 4 -2q6 0 6 4h-6q-4 0 -4 -2zM211 684q2 0 2 -2q8 0 8 6l-2 2q-4 0 -8 -4v-2zM217 707q8 0 8 4q0 2 -2 2q-6 0 -6 -6zM217 739q2 -2 4 -2l4 2q-4 0 -4 2t-4 2q2 0 2 -2q-2 0 -2 -2z M221 395q6 -8 21.5 -7t21.5 -7q0 4 -2 6t-2 6l2 2q-10 0 -17 2t-16 2q-4 0 -8 -4zM223 713h2q0 2 2 2q0 4 -4 4v-6zM227 377l2 -4q2 0 2 4h-4zM227 778q10 0 11 6q-4 0 -5 -4q0 -2 -4 -2q2 2 2 4q-2 0 -2 -2t-2 -2zM229 1118q0 -10 4 -12q0 10 -4 12zM231 250q8 4 9 10 q-2 0 -2 2q6 12 13 25.5t15 17.5q0 4 -1 3t-1 3q16 -16 25.5 -40.5t27.5 -41.5q4 4 5.5 6.5t5.5 2.5q6 0 6 -7q0 -2 -6 -6q-4 4 -6 4t-7 -6q4 -6 7 -6q4 0 3 2t1 2h2q0 -2 -1 -4t-1 -4q0 -8 4 -19.5t8 -11.5q0 -4 -2 -6q12 0 12 -14q0 -6 -12 -6h-14q0 14 6 15t6 9 q-4 -6 -8.5 -12t-8.5 -12q-4 2 -10 2q-8 0 -14 -3l-10 -5q-10 0 -11 16q0 16 -8 20q0 2 2 2l4 2q-2 2 -2 3q-2 0 -2 -3h-2v3q-2 0 -2 -3q-2 2 -2 7q4 -2 10 -2q0 4 -6 4q-4 0 -6 -2q-6 16 -13 28.5t-14 24.5zM231 346q1 -6 7 -6q0 2 2 2t2 4l-4 4q-6 0 -7 -4zM233 369 q2 0 3 -2h4l-2 4q-2 0 -5 -2zM233 711q2 0 3.5 1t3.5 1q-2 2 -4 2q-3 -2 -3 -4zM236 328q0 -2 2 -2l2 2q0 2 -2 2t-2 -2zM238 356q0 -4 6 -4t6 6q-2 2 -6 2q-6 0 -6 -4zM242 31q0 14 6 16q2 -4 1 -6t1 -6q2 0 2 4t-1 6t-1 6q2 0 4 1t6 1q2 0 3 -1t3 -1q2 2 1 6t3 4l2 -2 q2 0 0 -2q2 0 2 6v19q14 -2 15 -27q-4 2 -6 6q2 -4 5 -24.5t7 -20.5l-4 -4q-4 -4 -10 -4q-6 6 -7 23v12t2 10v-6q2 2 3 2q0 2 -3 2v2q2 2 3 2q-4 0 -14.5 -10t-10.5 -14q0 -8 4 -8h2q0 2 2 2l-2 -2q0 -2 2 -3h2q4 0 4 -6l-2 2q-2 0 -2 -4h4q-6 -6 -10 -6q-10 0 -13 7t-3 18z M242 362q4 0 6 3q0 2 -2 2q-4 -1 -4 -5zM242 381q0 -4 3 -5t5 -3q6 0 6 4q-6 0 -7 1t-7 3zM242 758q4 -2 6 -2q4 0 8 -4q4 0 4 2t4 2q-2 2 -4 2t-4 4q6 12 17.5 17t21.5 16l-4 2q-4 0 -12 -4v-2q0 -2 -3 -3q-4 4 -8 5q-23 0 -22 -13q0 -4 1 -5t1 -3q0 -8 -6 -14zM244 72 q2 8 10 9t14 1q2 -2 1 -5t1 -5l-12 -6q-4 -2 -6 -5v5q0 2 -2 2v-2q-2 0 -2 2q0 4 -4 4zM244 733h6l-2 4q-4 0 -4 -4zM244 745q2 -2 4 -2q0 2 -4 2zM246 698q0 -4 6 -4q0 4 -2 3t-4 1zM248 367h2v4q-2 -2 -2 -4zM248 1468q8 -6 17 -5t14 -7q6 -14 12 -33.5t6 -38.5 q0 -31 -21 -43q23 0 27 7.5t6 7.5q4 0 4 -6l-2 -2q2 -2 8 -2q41 0 52.5 11t11.5 46q2 0 4 1t4 1l2 -2q0 -12 -2 -21.5t-2 -19.5q0 -6 16.5 -7t24.5 -3q2 14 19 14q10 0 10 -10q0 -6 -2 -10q-4 10 -6 10q-8 0 -9 -8q16 -2 27.5 -8.5t22.5 -10.5q-20 23 -43 48.5t-27 25.5 q-2 0 -2 -2q0 2 2 2t2 4q-10 14 -30 25.5t-36 17.5q-10 4 -38.5 13.5t-53.5 9.5q-6 0 -18 -5zM250 446q6 -4 10 -4t8 -4q0 8 -4 8h-14zM258 477l4 2q0 -2 -1 -3t-1 -3q0 4 6 2t6 2h-8q0 4 2 5t2 3q-2 0 -6 -2t-4 -6zM258 1094q4 -4 6 -4q0 -2 -6 4zM264 1079l4 4h-2z M268 213q4 0 3 2t3 2q2 -4 5 -4q2 0 6 -2q0 2 1 4t1 4v-2q-4 0 -3 4t-3 4h-2v-2q2 0 2 -4q-6 0 -9 -2q4 10 9 10h2q-4 4 -3 5t-1 4v-5q-6 0 -8.5 -6t-2.5 -12zM272 508h7q0 2 -5 2q-2 0 -2 -2zM274 201l2 -2q2 0 3 2q0 2 -3 2zM274 250q1 -6 5 -6q0 2 -5 6zM274 1073l5 -4 q0 6 -3 6q-2 0 -2 -2zM279 174q6 0 6 6zM279 432q6 0 7 1t3 1q-4 8 -4 6t-6 4q0 2 4 7h-2q0 2 -2 2v-21zM279 477h2l2 2h-2q-2 0 -2 -2zM281 475q0 -4 2 -6t2 -6q6 0 6 8h-2q-4 0 -3 3t-3 3zM283 801q6 2 10 18q-4 -4 -5 -9t-5 -9zM287 195q6 0 9 6t3 8h-2q-2 0 -2 -2h-2 l-2 2v-4q2 0 2 -6q0 2 -2 2l-2 -2q-2 -2 -2 -4zM287 477q4 0 4 -6q8 0 8 8v4q0 2 -2 2v-2q-4 0 -4 4q2 2 2 7q-4 -2 -4 -9q0 -4 -4 -8zM289 219q2 0 2 4h-2q0 -2 2 -2q-2 0 -2 -2zM291 223q0 -2 4 -2q0 2 -4 2zM291 430q4 0 4 2t4 6q-4 0 -8 -8zM293 1075q0 -4 2 -4t2 2 q-2 2 -4 2zM295 799q12 0 14 8q-2 0 -1 1t-3 1q-10 0 -10 -8v-2zM297 193q6 0 6 6q-6 0 -6 -6zM299 74v2q6 0 7 4t1 8q0 6 1 10t9 4q4 0 5.5 -6t1.5 -10q0 -2 -1 -3t-1 -3h10q0 -10 -5 -15.5t-5 -19.5q0 -16 5 -21.5t5 -17.5q-16 0 -15.5 14.5t-7.5 26.5q4 -10 4 -20 q0 -8 4 -19q-2 0 -5 10.5t-5 21.5l-4 22l-2 10q0 2 -2 2zM299 831q2 4 4 5q4 0 4 6q-4 0 -3 -3t-3 -3q0 2 1 3t1 3q-4 -5 -4 -11zM309 815q4 -4 8 -4q6 0 9 -6q-2 -2 -2 -4t2 -2q4 10 8 17t8 18q-4 -4 -7 -12.5t-9 -10.5q0 2 -4.5 4t-8.5 2q-2 0 -4 -2zM311 186l2 -4 q2 0 2 2t2 2l-2 2q-2 0 -4 -2zM311 469q4 0 6 2q0 2 -2 2q-4 0 -4 -4zM311 840l4 4q-4 0 -4 -4zM313 164l2 -2q2 2 2 4q-2 0 -4 -2zM315 477q4 2 5.5 3t3.5 1l2 -2q0 2 -4 2q-6 0 -7 -4zM317 500q1 -4 5 -4l2 2q0 2 -7 2zM322 180q0 -2 2 -2q0 2 -2 2zM326 -63q0 18 14 18h2 q0 -10 -4 -10t-4 -8q0 -14 8 -15q-4 -4 -2 -6t-4 -2q-10 0 -10 23zM330 1028l2 -2q2 0 2 2h-4zM332 158l4 2q0 2 -2 2t-2 -4zM332 1321h4q0 2 -2 2t-2 -2zM334 856q0 -4 4 -4l2 2q0 2 -6 2zM338 76q10 0 7 13t11 13q4 0 5 -6t1 -10q0 -2 -1 -3t-1 -3h11q0 -10 -5.5 -15.5 t-5.5 -19.5q0 -16 5.5 -21.5t5.5 -17.5q-16 0 -15.5 15.5t-7.5 25.5q4 -10 4 -20q0 -8 4 -19q-12 0 -10 19.5t-2 27.5q0 4 1 5t1 3q0 4 -4 3.5t-4 9.5zM338 852q4 -6 4 -14q6 4 6 8t-4 8q4 0 4 2q-2 2 -2 4t-4 2l-2 -4q0 -2 1 -3t1 -3h-4zM344 -33q4 0 4 2h4q0 -4 2 -4 q-4 -8 -4 -22q0 -10 1 -17.5t1 -9.5l-2 -2q-6 0 -6 23v30zM360 -61h5q0 -2 2 -2q0 2 -2.5 3t-2.5 5q0 6 7 12q0 -2 4 -2q-2 -8 -2 -21q0 -14 2 -20q-8 0 -10.5 7t-2.5 18zM362 856h5q0 2 -2 2q-3 0 -3 -2zM371 831q6 0 6 7l-2 -2zM373 -80q6 4 6 12q0 6 -1 11.5t-3 11.5 q12 0 12 -12q0 -10 -1 -15.5t-11 -15.5v6q0 2 -2 2zM381 864q2 -4 10 -8q0 8 -10 8zM383 82q18 0 18 -10q0 -4 -1 -8.5t-1 -8.5h2q-2 -4 -2 -22v-17q0 -8 2 -8q0 -2 -4 -2t-7 1t-5 1q-2 18 -1 38t-1 36zM383 104q0 6 2 7h8q6 0 6 -11q2 0 1 2t1 2q0 -4 -1 -5t-1 -5 q-16 0 -16 10zM385 881q4 0 3 2t3 2q-6 0 -6 -4zM391 -45q8 0 8 -6q0 -4 -1 -9.5t-1 -9.5q0 -6 2 -8q2 2 2 8l2 -2q0 -2 -1 -3t-1 -3q4 0 3 -1t2 -3q0 -4 -2.5 -3t-4.5 -3q-8 4 -8 18v25zM399 866q2 0 2 -2q2 0 2 2h-2q0 2 -2 2v-2zM403 860q4 0 5 2q0 2 -5 2v-4zM408 -57 q0 12 8 12q0 -4 1 -11t1 -14q0 -16 -10 -16q0 2 1 3t1 3q0 6 -1 12.5t-1 10.5zM408 133q0 8 8 22.5t17 30t18.5 33t11.5 31.5q0 2 -1 3t-1 3q4 4 6 4t2 -2q6 8 10 17.5t8 19.5q0 2 -2 1t-2 1q10 23 21.5 35t15.5 22q6 -2 8 -2q4 0 9 -4q0 4 -4.5 7t-8.5 7q10 14 16.5 32 t22.5 28q4 -4 7 -10t12 -6v2q2 0 2 2q0 4 -5.5 5t-7.5 5q0 4 2 4t5 2q-6 0 -11.5 -2t-11.5 -2q6 4 7 13.5t11 13.5q0 2 -2 1t-2 3q4 0 4 2q0 4 2 6q4 0 5 -2q0 -2 2 -2q0 4 -7 4q0 6 7 6l2 -2q0 4 -4 4q4 4 5 9t7 5q2 0 3 -1t3 -1q0 6 -4 5t-4 3l4 -2q2 2 2 5q2 0 6 -5 q4 4 8 13q2 4 2 8v-2v4q4 0 3 -3t1 -3l2 2q0 2 -2 2v2h15q6 0 12 -6q2 0 2 6q6 -2 13.5 -1t13.5 -1q-8 -14 -15.5 -28.5t-15.5 -30.5q-8 8 -14 12q2 -6 5 -8t7 -4q-4 -16 -14 -31q0 -2 2 -2t2 -4q-6 0 -12.5 -9.5t-12.5 -21.5t-11 -24.5t-9 -18.5h-2q0 2 -2 2q0 -4 -7 -4 q-4 0 -4 -4q4 0 6.5 1t4.5 1q0 -4 -2 -6q-4 2 -5 2q-4 0 -12 -4v2q0 2 2 2t2 2q-4 -2 -10 -4t-12 -2t-11 4q-2 0 -2 -4q0 -2 -4 -2h-2q0 2 -2 2q-4 -2 -12 -11q4 0 4 -4t4 -4h2q0 2 2 2q0 4 -2 4h-2q0 4 2 4q2 -2 4 -2q10 6 23.5 5t27.5 4l-12 -25q-4 2 -12 2q2 -2 4 -2 q4 0 6 -2q-4 -12 -7 -16.5t-6 -5.5t-4 -2t-1 -5l4 2l-4 -8l-4 -8q-2 0 -1 3t-1 3q-4 0 -3 -2t-4 -2q0 -4 7 -4q-4 -12 -11.5 -26.5t-13.5 -20.5q0 -4 2 -4t2 -2v-2h-4q0 2 -2 2q-2 -6 -6 -12.5t-4 -10.5q0 -2 1 -1t1 -1q-4 -6 -10 -12q-12 -12 -17 -12q-4 0 -7 2t-5 2 q-4 -4 -8 -4q-10 0 -15 4q-4 -4 -15 -2t-11 -11q0 -2 1 -3t1 -5q0 -6 -6 -10q-2 4 -2 10zM408 508q0 2 6 2q8 0 8 -6q10 0 18.5 3t18.5 3l-2 -2q10 0 10 6t-6 5t-6 7q4 14 18 15q4 -1 8 -11q-2 0 -3 -1t-5 -1q0 6 -2 7q-6 -2 -6 -9q0 -6 8 -8q4 2 7 5t5 3h2q-2 -4 -2 -16 q0 -25 18.5 -48.5t20.5 -47.5q0 2 -2 4q-2 -2 -4 -2q0 -4 2 -4t2 -4q-4 -4 -5 -9.5t-7 -7.5v2q0 2 -2 2q0 -2 4 -6q-4 -4 -4 -8t-4 -6q-2 0 -3 1t-3 1t-4 -2q4 -4 6 -3t2 -5q-8 -4 -10 -7v-2q2 0 2 -4q-10 6 -13.5 17.5t-11.5 21.5q2 2 4 2t4 4l-2 2q-2 0 -3 -3t-3 -3 q-8 10 -12 21.5t-13 19.5q2 6 4.5 10.5t2.5 8.5q-4 -4 -8.5 -14.5t-12.5 -10.5q-4 0 -6 2q0 4 4 8q2 2 4 0q2 0 2 -2h2q6 4 6 8h-2q0 2 -2 3q-2 0 -3 -2.5t-3 -2.5q0 2 -2 2q0 2 1 5.5t1 5.5q0 4 -2 4q-4 0 -6 -3t-8 -3q0 6 3 9l7 7q0 10 -8 23.5t-10 13.5zM408 864 q0 -4 4 -4q2 2 1 5t1 5q0 -2 2 -2q2 2 2 4q-8 0 -7 -2t-3 -2q0 -4 2 -2t2 -2h-4zM410 -51q2 0 2 -2q2 0 4 2h-6zM412 78q6 0 7 4t1 8q0 6 2 10t8 4q4 0 5 -6t1 -10q0 -2 -1 -3t-1 -3q10 0 10 -6v-6q0 -2 2 -2h-12q4 -29 7 -41.5t3 -18.5q-16 0 -15 14.5t-7 26.5q4 -10 4 -20 q0 -8 4 -19q-6 2 -8 11.5t-2 21.5v27q-2 0 -3 -1t-3 -1q0 6 -1 7t-1 3zM412 961h8q0 2 -4 2t-4 -2zM414 872q6 0 4 3.5t0 1.5zM416 1286l4 2q0 2 -2 2t-2 -4zM418 1278q0 -2 4 -10v2q2 0 2 2q0 6 -6 6zM420 -37q0 2 1 3t1 3q4 0 5 -1t3 -1q0 -18 -1 -37.5t-3 -19.5t-4 22.5 t-2 30.5zM420 1321q4 0 4 2q-2 0 -4 -2zM422 496q2 0 2 -2l2 2h-2q0 2 -2 2v-2zM422 963h2v-5q4 0 4 3q-2 0 -2 2t-2 2t-2 -2zM426 1241l2 -2h2q0 2 2 2q0 2 -2 2t-4 -2zM432 -47q0 2 4 2q12 0 13 -16q-1 -17 -7 -23q0 -2 -4 -2q-6 0 -6 8q8 0 8 12q0 10 -4 11.5t-4 7.5z M434 166q4 0 3 3t-1 1q-2 -2 -2 -4zM434 492q6 0 6 2q-6 0 -6 -2zM436 162q0 -2 2 -2q0 4 -2 4v-2zM438 188l2 -2q2 0 2 4q-4 0 -4 -2zM438 883q2 -2 1 -4t3 -2v6q0 4 -2 4t-2 -4zM440 481l2 -2l4 2q0 2 -2 2t-4 -2zM442 489h4q2 0 3 -4q4 2 6 2t4 2q-4 0 -4 3q0 2 -4 2 q0 -2 -2 -2q-2 2 -5 2q-2 -1 -2 -5zM442 942h4q0 2 -2 2t-2 -2zM442 1257q0 -4 4 -4q0 4 -4 4zM444 899q2 -2 7 -2v2q0 2 -2 2q-5 0 -5 -2zM444 1182q6 -2 7 -6l2 4q2 0 4 -2q0 4 -2 3t-2 1q4 0 3 2t3 2q0 -6 2 -6q0 4 2 4t4 4l-4 -2h-2l-2 2h4l-2 2q-2 0 -3 -2t-5 -2 q0 4 -4 4v-4q2 0 2 -4h-2q0 2 -3 2zM446 53q12 4 13 10q0 2 -2 5q4 0 4 4t1 8t5 8t14 4q4 0 12.5 14.5t18.5 14.5q0 -4 -2 -5t-4 -5q0 -2 2 -1t2 -4q-4 0 -3 1.5t-5 1.5q-12 -12 -18.5 -20.5t-6.5 -43.5q0 -14 4 -20q0 6 2 8l6 6q4 -2 3.5 -6t1.5 -4v34q0 20 16 21v-31 q0 -35 -14 -45v12q-4 0 -4 -4v-2q0 -4 -7 -4q-6 0 -6 -8q-8 0 -11 8t-5 17.5t-2 17.5t-2 8q-4 0 -5 -4t-5 -4q-2 2 -3 8zM449 -61q6 8 3 23t11 15q-4 -6 -6 -8l2 -2q2 0 4 -2q-2 -6 -3 -11t-1 -13q0 -10 3 -16.5t3 -10.5h-2q0 -2 -2 -2q-8 0 -8 12q0 10 -4 15zM449 475 q0 -4 2 -6t2 -8q4 0 4 8v8q-2 2 -1 4t-3 2q0 -4 -4 -8zM449 885l2 -2h2q0 2 2 2l-2 4q-4 0 -4 -4zM451 1171q0 -2 6 -2q-2 4 -2 5q-2 -1 -4 -3zM453 981h4q0 2 -4 2v-2zM459 948q4 0 4 4q-4 0 -4 -4zM461 481h4l-2 -2q4 0 4 4q-6 0 -6 -2zM461 1178h4q0 2 2 2h2q0 2 -2 2 q0 -4 -2 -2t-4 -2zM461 1202q4 0 4 6q-4 0 -4 -6zM461 1331l2 -2q2 0 2 2v2h-4v-2zM463 469q2 0 2 -2h2l4 2q0 2 -2 4q-6 0 -6 -4zM465 1167q2 2 4 2q2 -2 4 -2l2 2q-2 0 -4 1t-4 1q-2 -2 -2 -4zM469 -57q4 4 5 7t7 3q0 -6 -4 -10l2 -4h-2q0 -4 2 -2t2 -7h-4q0 -2 1 -3t1 -3 t-2 -2v-2l2 2q2 0 2 -8q-12 0 -12 10q0 2 1 4t1 6t-2 9zM469 403q2 0 3 -1t3 -1q-2 4 -2 5q2 2 4 2q0 2 -2 4q-2 -4 -4 -4q0 -1 -2 -5zM471 1206q0 -2 2 -4l2 2q0 2 -4 2zM475 498q0 -2 4 -2q0 4 -2 4zM479 1323q0 -2 2 -2q0 4 -2 6v-4zM481 473q2 4 4 6t2 6q-6 -6 -6 -12z M481 1194q0 -6 4 -6q0 2 -4 6zM483 -49q12 0 13 -14q0 -6 -2 -9q-2 0 -2 2h-3q-2 -2 -4 -2q-2 2 -2 6h4q0 12 -4 13v2q2 0 2 2h-2zM483 -80q4 0 4 2t5 2q0 -2 1 -3t1 -3q-1 0 -5 4v-2q0 -2 1.5 -1t1.5 -1q0 -6 -7 -6q-2 2 -2 8zM483 1225q4 0 4 2q-2 0 -1 1t-3 1v-4z M485 190q2 0 3 -1t4 -1l2 2q0 2 -2 3q-7 -1 -7 -3zM485 197q10 0 15 8q-2 0 -2 4q-13 0 -13 -12zM485 225l2 2q0 2 -2 2v-4zM489 281q1 -3 3 -5q4 0 12 -2q16 -4 33 -4q-6 12 -23.5 8t-21.5 9q0 -2 -1.5 -3t-1.5 -3zM492 233q4 2 4 3q0 2 -2 2l-2 -2v-3zM496 72q6 0 6 -2 q2 0 3 1t3 1q0 2 -4 2v-2q-2 0 -3 1t-3 1t-2 -2zM496 256q2 0 2 -2h2t3 1t3 1q0 4 -2 4t-4 2q0 -4 -2 -3t-2 -3zM500 303q2 0 2 -2l4 4h-6v-2zM502 -51q0 2 4 2q0 4 -1 9t-1 9t4 8q0 4 -2 5q-2 0 -2 4q4 6 8 6q4 -4 4 -6q0 -6 -6 -6q2 -2 2 -11q0 -4 -2 -6q8 0 10 -7t2 -11 q0 -6 -2 -6v2q0 4 -6 4v-17q0 -10 2 -10q2 2 4 2q0 -10 -2 -9t-4 1q-2 8 -5 20.5t-7 16.5zM502 1300q0 -4 2 -4q0 2 2 2t2 2h-6zM504 250q0 -4 4 -4zM506 -68q4 -4 3 -9t3 -9q-6 0 -6 4v14zM508 1300q4 1 4 5l-2 2q-2 0 -2 -7zM512 227q4 0 4 4q0 2 -2 2q0 -2 -2 -2v-4z M512 289q0 -2 4 -2q0 2 -4 2zM512 432q0 -4 2 -4l2 2q0 2 -4 2zM512 1247q0 18 10 23q0 -2 1 -3t1 -3h-2q4 -4 4 -7v-2q0 -2 -2 -4h2q8 0 9 -18q0 -12 -11 -23q0 -4 3 -2t3 -2q0 -6 -8 -6l2 -4q2 -4 2 -12q0 -12 -4 -17q-6 0 -6 9l2 2l2 -2q0 6 -2 8t-2 6v2q2 0 2 2 q0 12 -3 26.5t-3 26.5zM516 45q0 6 2 8q4 0 4 -2q0 8 -2 10q0 -2 2 11.5t19 13.5q6 0 10 -4q0 -12 -16 -25q4 -10 2 -21t14 -11q0 -23 -6 -23q-12 0 -16.5 12.5t-6.5 24.5h4l-4 4q0 2 -6 2zM520 297q0 -4 4 -6t8 -2q-4 10 -6 8t-6 2v-2zM520 340q0 -2 2 -2v4zM522 -47 q10 0 10 -12q0 -4 -2 -4q4 -2 5.5 -11.5t1.5 -13.5q-6 0 -9.5 15.5t-5.5 25.5zM530 901q10 0 21.5 -1t13.5 -9l2 2q0 2 -2 2h2q2 0 3 -2t5 -2q0 4 -6 9t-6 9t2 6q0 2 -1 1t-1 2q4 4 12 4q6 0 11 -4q4 6 14 15t14 9q0 4 -2 5t-2 5q2 0 2 2q10 -2 11 -16h-5q0 2 -4 2l-4 -8 q-2 -4 -4 -6q-2 0 -4 2q-6 -2 -8 -7.5t-6 -9.5q16 -4 30.5 -10t24.5 -16q-2 -4 -4 -5t-4 -3q0 -4 2 -7q2 4 4 4t2 3l-2 2q2 2 6 2h6v-4q2 0 2 4q16 -10 44 -23.5t53 -30.5q0 -2 -2 -2v-2q6 0 6 2q2 0 6 -4q0 2 -1 3t-1 5q0 2 2 5q4 -2 8 -3.5t6 -7.5q-4 -2 -6 -1t-6 -1 q16 -12 36.5 -19t37.5 -20q-2 0 -2 -2q10 0 18 -1t16 -5q-2 -2 -4 -2h-4l4 -4q6 6 6 4v2q4 -2 5.5 -1t3.5 -1q6 4 21.5 3t15.5 3q0 8 -4.5 17.5t-4.5 17.5q0 4 4.5 7t4.5 5t-1.5 3t-1.5 3h3q0 2 2 3q4 0 4 -5v-6q-6 -2 -6 -10t5 -14t5 -17q4 0 4 2q0 4 2 9q0 4 -3 3t-5 1v2 q2 0 2 2q2 0 6 -4q4 4 5 10t9 8q0 -2 2 -4q-2 -4 -4 -4t-4 -4q2 -2 2 -4q0 -4 -4 -13q8 0 9 5.5t5 9.5q4 0 4 -4q0 -2 -1 -4t-1 -5q4 0 6.5 3.5t6.5 3.5q2 0 4 -2q0 -4 -2 -7q12 -6 15 -8t7 -16q-2 -8 -11 -11t-18.5 -4.5t-18.5 -4.5t-11 -11q0 -12 6 -18q0 -6 -6 -13 q4 -4 4 -6q0 -6 -8 -18q-2 0 -1 2t-1 2q0 -10 -6.5 -21.5t-8.5 -25.5q-2 2 -4 2l-2 2q2 -2 2 -4l2 -2q-4 -4 -12 -6t-12 -4q2 4 1 7t3 3q0 -2 -1 -3t-1 -3q4 0 4 4t6 4l-2 2q-4 0 -5 -1t-3 -1q2 4 2 12q0 16 -12.5 25.5t-30.5 11.5q-8 -6 -8 -14v-15q0 -10 -2 -14q2 -4 4 -2 t4 -4h-8q4 -8 15 -6t17 -9q0 -2 -16 -2q0 2 -1 3.5t-1 3.5q-2 -4 -8 -5q2 -4 2 -10q0 -4 4 -8q0 -2 -6 -2q-2 4 -3 9t-5 7q-2 0 -7 -4q2 0 5 -2q4 -4 4 -10q-16 -4 -27 -4q6 6 14 22q0 2 -1 3.5t-1 5.5q0 2 1 3t1 3q-8 4 -9 14t-3 21h8q-4 4 -8 4q4 10 10 24.5t6 24.5l-2 2 h-2v-2q2 0 2 -2l-12 8t-16 8l2 2q0 2 -2 2q0 -2 -4 -2q-10 10 -22.5 18.5t-22.5 18.5l-2 2q-4 4 -5 4q-2 -2 -2 -4q-16 10 -29.5 19.5t-29.5 17.5q-2 0 -1 -2t-3 -2l-4 4q0 2 4 2h-2q0 2 -4 2q2 2 4 2t4 -1t4 -1q0 4 -6 4t-8 -2q-14 8 -27 17q-25 14 -31 14v4q-2 -2 -6 -2 t-12 4l-10 -10q-2 0 -2 4q0 10 6 10t12 2q-16 12 -38.5 15.5t-31.5 25.5zM532 293q4 -2 5 -2l2 2q0 2 -4 2q-1 -2 -3 -2zM532 1313q2 0 3 -2h4v4q-2 -2 -3.5 -1t-3.5 -1zM535 283q2 -2 6 -2q0 6 -4 6q-2 -2 -2 -4zM535 956q2 0 2 -2h2q0 4 -2 4t-2 -2zM537 -66q0 4 2 11.5 t8 7.5q4 -16 6 -23q4 8 3 15.5t9 7.5q-2 -10 -4 -25.5t-10 -15.5l-4 12t-2 13q-2 -2 -6 -17q0 6 -2 10q2 0 2 -2v2q0 2 -2 2v2zM539 954q0 -2 4 -2q0 2 -2 2h-2zM543 285q0 -4 4 -4q2 0 2 6q-4 0 -4 -2h-2zM543 303q2 0 3 -1t3 -1t2 2q-2 0 -3 1t-3 1zM545 1165q2 0 2 -2h2 v4q-2 0 -4 -2zM547 1176q0 -2 2 -2q2 2 2 8q-4 0 -4 -6zM551 315q0 -4 6 -4q0 6 -2 6q-2 -2 -4 -2zM551 1352h4q0 2 -4 2v-2zM553 1171q0 -4 6 -4q0 6 -4 7zM555 236q4 0 8 10t12 10q0 2 -3 1t-3 1q4 10 7.5 16.5t7.5 14.5q12 0 12 -6h-10q14 -2 18 -16.5t6 -14.5l2 2 q12 -29 23.5 -51.5t19.5 -57.5q-6 8 -22 9q-14 0 -27 -7q-2 2 -2 3q0 4 4 4q-2 4 -4 4l-2 2l-2 -2q0 -2 1 -3t1 -3q-4 -2 -3 -5.5t-3 -3.5t-3 6.5t-3 8.5q8 4 6 4l2 -2q0 4 -4 4t-6 4q0 2 2 2t2 4h-2q-2 0 -3 -1t-3 -1q-4 12 -9 16q0 4 3 5q2 0 2 2v2h-7q-2 0 -5 9t-5 13 q4 -4 6 -4l2 2q0 2 -8 9t-8 10zM555 332q4 0 4 2l-2 2q-2 0 -2 -2v-2zM555 1235q8 0 8 4v2q-4 0 -4 -2t-4 -4zM556 28.5q-1 16.5 0 35t4 33t11 14.5q0 -6 2 -9q-2 -8 -2 -16v-16q0 -12 1 -21.5t1 -19.5q0 -20 -16 -21q0 4 -1 20.5zM559 1352q0 -2 6 -2q2 2 2 4q-4 0 -4 -2 h-4zM561 1165q0 -2 4 -2q0 2 -4 2zM565 1200q4 0 4 -4l-2 -2q2 0 2 -10q4 0 3 5t1 7q0 2 -2 2v4q-2 0 -2 -2h-2v2q-2 0 -2 -2zM565 1217q4 -2 3 -6.5t3 -4.5q2 2 2 4l2 -2q4 2 9 6q8 8 8 13h-2q-4 0 -5 -3t-5 -7q-2 0 -3.5 1t-3.5 1q2 0 2 -5l-2 -2q-2 0 -2 2q0 4 -4 5z M565 1346q2 0 4 2l2 2q-2 0 -4 2q-2 -2 -1 -3t-1 -3zM567 362q2 0 2 -2q4 0 4 2q-2 2 -4 3q-2 0 -2 -3zM567 920q2 -3 2 -7q10 0 11 2q-6 0 -7.5 2.5t-5.5 2.5zM567 1163q4 0 4 4q-2 2 -4 2v-6zM569 -61q1 6 9 14h4q-4 -16 -4 -23q0 -6 4 -18q-10 0 -11.5 7t-1.5 15 q4 0 6 -2q0 4 -2 5q-2 0 -4 2zM569 954q0 -4 4 -4v2q0 2 -4 2zM575 209q0 -2 7 -2q6 4 6 10q0 -2 -2 5t-6 7q0 -6 -2 -8q2 0 2 -2q0 -4 -2 -4v-2v-2q2 0 2 -2h-5zM575 348q2 -2 3 -2q2 0 2 2v2q-3 0 -5 -2zM578 35q6 14 4 13t4 13q-2 0 -2 -2h-2q4 6 8 15.5t16 9.5 q0 -8 -1 -11t-7 -10l4 -10q0 2 4 -2q0 -2 -2 -2v-2q0 -4 10 -10q-2 -4 -6 -4t-8 -4q4 -4 6 -5t2 -6q0 -4 -1 -6t-1 -4q-14 2 -17 11.5t-11 15.5zM578 1315h4v2q-4 0 -4 -2zM580 256h4l-4 2v-2zM580 258q8 0 8 8l-2 2q-6 0 -6 -10zM580 465q0 -6 4 -6q0 4 -2 4t-2 2z M580 1239q4 -4 10 -4h-2l2 2q0 2 -2 2h-8zM582 -84q4 2 4 8q0 4 4 8q-2 6 -4 9.5t-2 11.5q10 0 10 -6q0 -8 6 -8q-4 -4 -4 -7l4 5l-2 -3h2q-6 -2 -6 -12q0 -12 -10 -12l-2 2l2 4h-2zM584 891q2 -4 4 -4t4 -2q0 2 -8 6zM584 987q0 -4 4 -4q0 4 -4 4zM586 1321h6q0 4 -2 4 q-4 0 -4 -4zM588 256q2 -2 12 -2q-2 2 -6 1t-6 1zM590 63q4 2 4 3v-3v3h-4q2 0 2 -3h-2zM590 901q0 -2 2 -2l2 2h-4zM592 209q4 0 4 4h-2q0 -2 -2 -4zM592 451q0 -8 10 -9h2q-4 0 -6 3.5t-6 5.5zM592 1223q8 0 8 6q-6 -4 -8 -6zM596 193q0 -4 8 -5q0 6 -4 7q-2 -2 -4 -2z M600 877h2q2 0 2 -3q0 -2 4 -2q0 6 -4 7q-2 0 -2 -2h-2zM600 891q0 -2 2 -2v2q-2 0 -2 2v-2zM602 207q0 -2 2 -2q0 2 -2 2zM604 901h2l2 -2q2 0 2 2l-4 2zM606 -78h6t2 -8q-8 0 -8 2v6zM606 475q4 -4 8.5 -8t8.5 -6q-4 4 -8.5 8t-8.5 6zM608 481q6 -6 10 -6q6 0 14.5 7 t16.5 10q0 6 -4 6q-2 0 -8 -6q-4 4 -8 4q-6 0 -11.5 -5.5zM612 8q0 14 2 15q5 0 9 8l6 -6t4 -7q-4 0 -3 -1t-1 -1q0 4 -3 5.5t-5 5.5q0 -4 6 -11q-2 -8 -15 -8zM612 39v8q0 4 9 4q-2 6 -3 10q0 6 -6 9q0 2 2 3t2 3h-2v-2q-2 0 -2 4v6q4 0 6 -2v2q-2 2 -2 4q4 2 5 2q2 0 8 -6 q0 -4 -4 -4q10 -10 10 -37q-4 0 -4 -4q-4 2 -6 1t-4 3q-1 -4 -9 -4zM612 442q0 -4 2 -4t4 -2q0 4 -2 4t-4 2zM616 203q2 -2 11 -2h8q0 6 -10 6q-5 0 -9 -4zM616 455q2 -2 4.5 -3t4.5 -3q0 6 -9 6zM616 997q0 -4 2 -4q0 4 -2 4zM616 1004q5 -7 7 -7q0 6 -7 7zM621 -45 q6 0 7 -7t1 -14q0 -10 -3 -17t-3 -5q-2 8 -2 20v23zM623 455l6 -6q0 6 -6 6zM629 -53q2 0 2 2v6q14 0 14 -21v-8q0 -12 2 -16q0 4 -2 4h-4l-2 4t-2 16q0 10 -1 11.5t-7 1.5zM631 184q2 0 2 -2h2l2 2l-2 2q-4 0 -4 -2zM635 1001q0 -4 4 -4q0 4 -4 4zM649 -59q4 4 5 8t8 4 q2 0 2 -2q0 -4 -3.5 -6t-3.5 -6t3.5 -2t3.5 -7h-7q0 -2 1 -3t1 -3l-2 -2q6 0 7 -8q-12 0 -11.5 8t-3.5 19zM655 985q4 0 4 2q-2 0 -2 -2h-2zM659 850q6 0 7 4q-7 -6 -7 -4zM666 -49q14 0 14 -14q0 -6 -2 -9q-2 0 -3 1t-3 1q-2 -2 -4 -2q-2 2 -2 6h6q0 12 -6 13v2q2 0 2 2h-2 zM666 -88q0 10 4 10l4 -4l-4 4q0 2 1 1t1 3q4 -4 4 -8q-6 -6 -10 -6zM666 856q6 0 6 4q0 2 -2 2q-2 -4 -4 -6zM674 993q0 -2 4 -2q0 2 -4 2zM674 1051h4v2q-4 0 -4 -2zM676 840l10 -11q0 2 6 8.5t10 8.5q2 0 1 -2t4 -2q0 6 1 5t1 3q-2 0 -2 -2t-5 -2q0 2 -1 3t-1 3t-2 4 q-2 0 -2 -2q2 0 2 -6q-6 -2 -8 -8q-4 0 -6 2q0 -2 1 -3t1 -3t-2 -2q-6 6 -8 6zM680 -49q10 0 7 6t7 6q0 -8 -2 -10q6 0 6 -6q0 -2 -2 -2q0 2 -2 2q0 -16 2 -22.5t2 -10.5q-6 0 -6 6t-4 12v-6q0 -6 4 -10q-2 8 -6 16q-6 12 -6 19zM682 1051q0 -4 6 -3.5t6 -3.5q6 0 9.5 -1 t11.5 -1q-2 2 -4 7q0 2 -4 6l-2 2q0 -2 1 -3t1 -3l-2 -2q-6 2 -23 2zM688 854q0 -4 6 -4l-2 2v2q2 0 2 2l-2 2l-2 -2l2 -2h-4zM694 1292q14 0 27 -8q-4 10 -14 10l4 2l-2 2q-4 -2 -7.5 -3t-7.5 -3zM702 47q0 14 6.5 25.5t18.5 13.5v-10l2 4l2 -2q2 0 1 3t1 5q16 0 19 -18 q-6 0 -13 -7q-4 8 -8 11q-10 -6 -10 -29q0 -10 3 -16.5t3 -18.5q-10 2 -17.5 13.5t-7.5 25.5zM705 831l4 -4q0 4 -4 4zM707 840q4 -2 6 -5.5t6 -7.5q-4 12 -12 13zM709 1022q2 0 2 -2h4q0 4 -4 4zM713 815l6 -6l-2 -2l4 -4q4 2 4 4t4 4l-4 4q-2 0 -3 -1t-3 -1q-4 0 -6 2z M719 258l12 6q0 2 -2 2v4h6q-2 -4 -1 -9t-3 -9q8 0 8 8q0 4 -1 5t-1 3q4 0 4 2q-4 0 -3 2t-1 4q-4 0 -3 -2t-1 -4l-2 2q8 20 9 57.5t1 65.5q-2 0 -2 2q4 0 4 -6q0 2 -2 2q0 -4 8.5 -11t14.5 -13h-2q-2 0 -2 -4h4q0 2 2 2q2 -2 3 -4.5t5 -6.5q-2 2 -4 2h-6q10 0 13 -6t7 -6 q0 -2 -2 -2v-2q2 -2 4 -2t5 -4q2 2 1 4t1 2t2 -2q2 0 2 4q0 2 -1 3t-1 3t4 2q-4 4 -4 6q-2 -2 -4 -2q-6 0 -9.5 5.5t-7.5 5.5l2 2v2h-4l2 -2q-10 4 -18 14t-17 18v2q2 0 2 3q-2 0 -2 4v10q0 -2 6 -2q-6 6 -7 22.5t-1 34.5q0 16 2 26.5t11 10.5q14 0 18 -4t6 -11.5t2 -15.5 q0 -6 4 -12q0 10 -2 20.5t-4 20.5h19q12 0 12 -12t-1 -26.5t-1 -29.5q0 -20 6 -36l-4 -5q2 -2 2 -6q0 -6 -2 -13t-2 -17q-2 0 -5 2t-7 2q-2 0 -5 -2l2 -2q0 -2 -2 -3v-2q2 0 2 5q10 0 11 -7l4 2l-2 2q2 0 2 -2h2q-4 -10 -2 -22t-2 -23q4 -14 3 -24t1 -27q-4 0 -4 2q2 2 2 4 q-2 0 -3 -1t-3 -1l2 2q0 2 -1 4t-1 5q-4 -4 -9 -7q2 -2 3 -2h4h-9q0 -2 5 -2q-6 0 -7 2v2q-2 0 -2 -2h-2q0 -4 4 -4t7 -4q2 2 4 2q8 0 8 -8q-6 6 -10 6q4 -4 8 -5t4 -9q-4 0 -3 1t-1 3q-2 0 -1 -2t-1 -2q-4 0 -3 3t-3 7q-2 0 -3.5 -1t-3.5 -1v4l-2 -2v2h2v2q-6 0 -10 -2 q2 -2 4 -1t4 -1q0 -4 -2 -3t-2 -1l4 -2q0 2 4 0q-4 0 -4 -2q-4 4 -10 4t-12 4q0 -6 6 -6q8 0 12 -4h-4q-2 0 -2 -2h2q2 0 3 -1t3 -1q4 0 4 2t-2 2v2l7 -6q4 -4 12 -8q-2 -2 -4 -1t-4 -4l2 -2h2q0 2 2 2l4 -4q0 2 -6 -4q0 -2 3 -1t3 -5q-2 0 -3 1t-3 1l-2 -2q6 -2 9 -11 t1 -11q2 0 3 1t3 1q4 0 4 -7q0 -12 -6 -12t-6 -28h-4q2 -4 2 -5q0 -2 -4 -2h-6l4 4q0 2 -2 3h-2q-2 0 -2 -3h-3l3 -2q-4 0 -11.5 -1t-13.5 -1q-29 0 -29 19q0 10 1 26.5t3 22.5v2q0 2 -2 4q-2 4 -2 8q-4 -2 -3 -3t-3 -3q-6 0 -6 6q4 4 6 4h2q2 0 2 -2h2q2 2 2 11q0 8 -2 10 q-2 0 -2 -2h-4q0 8 -6 6t-6 6zM719 1055q2 0 2 6q0 2 -2 2v-8zM721 1028q0 -2 6 -2q4 0 4 2h-10zM725 821l2 -8q4 0 4 -2t2 -2v4q10 0 14.5 -5t10.5 -9l4 4q-2 0 -2 4q-6 0 -8 -2q0 10 -7 10q-4 0 -4 4q-4 0 -5 -2t-5 -2t-4 2t-2 4zM733 8q0 19 6 25q4 -4 6.5 -5t6.5 -5 q-8 -12 -19 -15zM739 786q0 -8 4 -8l2 2l-2 2q0 2 -4 4zM743 188q4 -2 7.5 -5t9.5 -3q-4 10 -10 10q-5 0 -7 -2zM743 270q0 -6 3.5 -4t3.5 -4l4 2q2 0 6 2l-4 2q0 2 -4 2v-2q-2 0 -3 1t-4 1h-2zM745 254q1 -4 3 -4t2 4h-5zM745 784q1 -2 3 -2t2 2q-4 2 -5 2v-2zM745 793 q1 -3 5 -7l2 2q0 4 -7 5zM748 299q4 0 8 4l-2 2q-6 0 -6 -6zM750 403q4 -2 7 -4t7 -2q0 4 -5 6.5t-9 6.5l2 -4q0 -3 -2 -3zM750 422q6 -6 8 -6q0 6 -8 6zM750 797q0 -3 6 -9q0 2 -6 9zM752 170q0 -2 2 -4q6 0 6 4q0 2 -4 2zM752 352q0 -4 6 -4q2 0 2 2q-2 2 -3 1t-5 1z M752 1294q0 -6 2 -6v2q0 4 -2 4zM756 1337l4 -4q0 4 -4 4zM758 334l4 -4l2 2l4 -4q10 0 10 8q0 4 -8 4q-6 0 -6 -8q-2 2 -6 2zM760 51q4 0 12 -4q0 6 -5 7t-5 3q0 -2 -2 -2q2 10 4 18.5t12 12.5l-4 -4q2 0 4 1t4 1q0 -10 -3 -21.5t-3 -21.5q0 -8 3 -14.5t3 -18.5 q-16 0 -18 13.5t-2 29.5zM760 262q0 2 6 -4h2q0 2 2 2l4 -4q4 0 4 2q-2 -2 -4 -2q2 4 2 8h-4q-6 0 -8 2zM760 276q4 -4 6 -4q0 4 -6 4zM762 500l2 -2l2 2l-2 2q-2 0 -2 -2zM762 805q0 -4 2 -4q0 4 -2 4zM762 1061q4 0 4 -2h2q0 4 -4 4q-2 0 -2 -2zM764 444q0 -4 8 -4 q0 4 -8 4zM764 1323h4l4 2h-4q-4 0 -4 -2zM766 158q2 0 6 -1t8 -1q8 0 8 2q-4 4 -14 4q-6 0 -8 -4zM766 317q4 -4 8 -16l7 7t7 11q-4 0 -8 2.5t-8 2.5q-2 -1 -6 -7zM768 299h2q0 4 -2 4v2v-6zM770 1061q2 -2 4 -2t4 -2q0 -2 -2 -2q0 2 6 2h6q-2 2 -8 3t-10 1zM772 352 q0 -4 4 -4q-4 0 -2 2t-2 2zM772 795q2 0 2 -2h2v2q2 0 2 2t-2 2q-4 0 -4 -4zM774 147q0 -2 2 -2l2 2l-2 3q-2 -1 -2 -3zM774 270h6q0 2 -4 2q-2 0 -2 -2zM774 295h2q2 0 2 -6q4 0 4 4q-4 0 -5 2t-3 4v-4zM774 440q6 0 6 2q-6 0 -6 -2zM776 221q2 -4 6 -6q0 4 1 3t1 3 q-4 4 -6 4v-2q0 -2 -2 -2zM776 236q6 0 6 4q-4 -4 -6 -4zM776 428h4q0 4 -2 4q0 -2 -2 -2v-2zM778 1309l2 -2q2 0 2 2v2q-2 -2 -4 -2zM780 213q2 0 2 -2h2l-4 4v-2zM780 287q0 -2 4 -2t4 6q-4 0 -8 -4zM780 803q2 -2 2 -4t4 -2v4q2 0 2 2t-2 2q-4 0 -6 -2zM782 18 q6 0 8.5 9.5t6.5 17.5q-6 10 -8.5 22.5t-2.5 16.5q10 0 14.5 -10.5t4.5 -24.5q0 -16 -5 -29.5t-16 -13.5q0 2 1 5t1 5t-4 2zM782 231q6 0 6 5q-2 -2 -4 -1.5t-2 -3.5zM782 438h15q0 2 -6 2q-9 0 -9 -2zM784 176q0 -8 4 -8l3 2q-4 0 -3.5 2t-3.5 4zM784 199q0 -2 4 -2 q0 2 -4 2zM786 215q1 -4 7 -4q0 -2 -7 4zM793 334h4l-2 4q-2 -2 -2 -4zM795 289q0 -2 1 -3t1 -3q0 6 -2 8v-2zM795 309q4 0 3 -2t3 -2q0 6 -4 6zM797 281l4 2h2h-4q-2 0 -2 -2zM801 748q0 -7 4 -7q-2 6 -4 7zM801 1077q4 -4 6 -4t2 2t-8 2zM809 1077q4 0 6 2q0 -6 4 -6l2 2 q-4 0 -4 4q2 2 4 2t4 2l-2 2q-4 0 -7 -3t-7 -5zM809 1128q10 6 12 13q2 4 2 8v-2q-2 0 -2 2q4 4 7 9t8 9q-2 0 -1 2t-1 2q-6 -10 -13.5 -20.5t-11.5 -22.5zM811 793q0 -2 2 -2q0 4 -2 4v-2zM813 84q16 0 16 -16q0 -6 -1 -13.5t-1 -15.5q0 -6 4 -14q4 2 2 7t3 5q0 -14 2 -14 t6 -11q-4 -4 -8 -4t-7 -6q0 6 -8 24.5t-8 57.5zM815 674q6 0 6 2l-2 2q0 -2 -2 -2t-2 -2zM817 760l2 -4h8q-2 2 -5 3t-3 5q-2 0 -2 -4zM821 639q2 0 2 4q-2 0 -2 -4zM821 745h2v3q0 2 -2 2v-5zM821 1137q0 -3 2 -7q4 0 4 3q0 2 -2 2h-2q0 2 -2 2zM823 778q0 -4 6 -4 q0 4 -6 4zM825 1090q6 2 13.5 1t11.5 3q4 -2 5 -3t5 -4q-2 4 -2 9q0 4 -4 8q2 4 4 5t2 5q-4 4 -10 4q0 -2 2 -3t2 -5q-4 0 -5 2t-5 2l-2 -2q0 -4 2 -3t2 -3t-6 -4q0 2 -1 4t-1 4q-8 -2 -13 -20zM827 676q2 0 2 4q-2 0 -2 -4zM829 733q0 -4 7 -4v2q0 4 -7 4v-2zM831 719h3 q2 0 3 1t-1 1q-5 0 -5 -2zM831 748q4 0 5 4q-5 0 -5 -4zM831 1151l3 -2q4 0 4 4q-5 0 -7 -2zM836 735l4 -2q0 2 -2 2h-2zM840 776q0 -4 2 -4v2q0 4 -2 2zM842 1137q0 -6 4 -7h-2q0 2 2 3l2 2h-2q0 2 -4 2zM846 8v76q10 0 13 -10.5t3 -24.5q0 -23 -2 -29t-14 -12zM848 758 q0 -4 4 -4v2q2 0 2 2h-6zM852 1128h4q0 2 -4 2v-2zM854 70h2q0 2 2 2q0 2 -4 2v-4zM854 262v6q0 8 4 8q-2 0 -2 5q0 4 1 6t1 6q8 -2 16.5 -5t12.5 -7q2 2 4 2q4 0 10 -7q4 2 4 3q4 0 7 -2.5t8 -4.5q-6 10 -21 11q-14 0 -20 10v-4q-4 2 -11 2q-4 0 -8 4q2 10 2 33v28q8 0 8 2 t-1 1t-1 1q10 0 18.5 -2t14.5 -2q-10 0 -17 6.5t-18 6.5q0 -4 4 -2t4 -2q-2 -2 -2 -3q-2 0 -4 1.5t-6 1.5l2 4q0 2 -2 2l2 2q2 0 3 -1t3 -1q0 4 -4 4q-2 0 -4 -2v10q2 0 2 -4q4 0 4 2q0 4 -6 4q0 2 1 4t1 6q0 6 -1 13.5t-1 13.5q2 -2 4 -2q4 0 4 4q0 6 -6 6v-2q-2 18 -2 39 v43q10 0 21.5 1t21.5 1q14 0 23 -4q-4 -2 -8.5 -1t-8.5 -1q6 -4 11.5 -1t5.5 -13h-2q4 -20 4 -35q0 -12 -1 -24.5t-1 -22.5q0 -16 2 -25q4 0 4 2t4 2q2 0 4 -2q-8 -6 -6 -14t-2 -17q-4 0 -3 2t-1 4q-4 -4 -2 -6t-10 -8q4 0 5 -1t3 -1q0 -4 -2 -3t-2 -1h2q4 0 7 4t9 4 q2 -10 21 -10q6 0 13 1t13 1q14 0 14 -16q0 -6 -20 -7h-29q-12 0 -22 5q-6 -6 -6 -11q0 -2 2 -2t2 -2h-4q4 -4 4 -8q0 -2 -2 -4q2 -4 2 -10v-13v-18l-4 -4q4 -8 4 -27v-18q0 -14 6 -25q0 -2 -6 -2v-20q0 -12 -2 -17q-14 4 -30.5 2t-16.5 15q0 6 2 6q4 0 4 2q0 4 -7.5 9 t-3.5 5q10 -10 19 -12q-16 12 -22.5 32.5t-6.5 41.5q4 0 5 -1t5 -1q0 -2 -4 2q6 2 11 2v-2l4 2q0 2 -2 2v2q2 0 2 -2t2 -2l2 2q4 -4 8 -4q0 2 -6 2q4 2 12 2q10 0 12 -4h-6l4 -4q2 0 1 1t1 1q2 -2 5 -2q2 0 4 -2q0 6 -9.5 11t-11.5 7q0 -4 2 -3t2 -3q-23 4 -35 4 q-10 0 -10 22q-4 0 -2 -6t-6 -8zM864 266q4 0 4 2q-4 0 -4 -2zM864 332q0 -2 2 -2l2 2l-2 2zM866 315q4 4 6 5.5t2 5.5q-4 0 -4 -2t-4 -2v-7zM866 756h2q0 2 2 2h-2q0 2 -2 2v-4zM866 1122q4 4 4 6q2 0 -4 -6zM868 279q0 -2 2 -3v3v2zM870 223q4 0 4 4h-4q0 -4 2 -2z M870 346q4 0 4 4q-4 0 -4 -4zM870 698q8 4 9 9q-4 0 -3 1t-4 1v-2q0 -2 -1 -3.5t-1 -5.5zM870 758q0 -4 7 -4q2 0 2 2t-2 2h-7zM872 211q4 -4 9.5 -2t5.5 -4q8 0 8 4q-8 4 -16 4q-2 0 -3.5 -1t-3.5 -1zM872 383q1 2 7 -4q0 4 -7 4zM874 41v27v16q14 0 15.5 -14.5t1.5 -32.5 q0 -10 -2 -20.5t-10 -10.5l2 2q-2 0 -4.5 10.5t-2.5 22.5zM874 225q2 0 3.5 -1t3.5 -1q0 4 -4 4zM874 309q1 -6 3 -6q0 6 -3 6zM874 328q3 -2 5 -2q0 4 -2 4t-3 -2zM874 356q2 -6 7 -6q6 0 10 -4q-2 0 -3 1t-3 1q-2 -2 -2 -4q10 0 10 -2q-2 -4 -4 -3t-2 -3q0 -8 8 -8 q4 0 4 2t4 2q0 4 -3 5t-5 5q-2 0 2 4q-6 4 -11 7t-12 3zM874 496q4 0 3.5 -2t3.5 -2q0 6 -4 6zM874 721h5q0 2 -2 2q-3 0 -3 -2zM877 236q0 2 2 2q0 -2 3 -4.5t3 -0.5q-4 4 -4 7q-4 0 -4 -4zM881 219h8l-2 2q-4 0 -6 -2zM881 242q0 -4 4 -6q0 4 -2 4t-2 2zM881 266 q2 -6 8 -6t12 -2q-8 8 -20 8zM881 377q2 -2 4 -1t2 -1h2q0 4 -6 4q-2 0 -2 -2zM883 313h2q2 0 2 4q-4 0 -4 -4zM883 367l2 -2q4 0 4 2q-2 2 -4 2t-2 -2zM885 508q2 -2 4 -2q0 2 -4 2zM885 766q0 2 4 2q0 2 -2 2t-2 -4zM887 270q4 0 4 4q-4 0 -4 -4zM889 465q4 0 4 2 q-4 0 -4 -2zM889 700h6l-2 2q-4 0 -4 -2zM891 158q2 -2 12 -2q4 0 5 1t3 1h4q0 2 -7 3t-11 1q-6 0 -6 -4zM891 227q2 -4 5 -5t7 -5q-2 -2 -2 -4q0 -4 2 -8q-4 0 -4 -2t-2 -2q4 -4 16 -4q-2 10 -8 20t-14 10zM891 317q4 -4 6 -12t6 -16q4 2 10 8q-6 2 -6 10q0 4 4 12 q-4 0 -7 2.5t-7 2.5q-2 -1 -6 -7zM891 451q0 -4 4 -5l2 3q-2 0 -6 2zM891 680q0 -4 4 -4q0 4 -4 4zM895 74q0 10 10 10q0 2 -1 3t-1 3q2 2 2 4v2q0 -2 2 -2v4q0 -2 -2 -2v4q2 0 4 -2q0 -4 -2 -6t-2 -6q10 -2 13.5 -11t3.5 -22v-24q0 -10 4 -17q-2 -4 -2 -10q-2 2 -4 6l2 -2 v6q0 -4 -6.5 -3t-8.5 -1q0 35 -6 49q-4 8 -6 17zM895 274q0 -2 6 -2l-4 4zM895 1149h2q2 0 2 4q-4 0 -4 -4zM897 379l2 -4q2 0 2 2q-4 4 -4 2zM897 446q4 -6 9 -11l9 -9q-8 4 -9 12t-9 8zM899 246q0 -4 4 -4l2 2q-2 2 -6 2zM901 238q10 -11 14 -11q-4 4 -6 7.5t-6 3.5h-2z M901 444q2 0 2 2q-2 0 -2 -2zM905 272q5 -4 15 -4q-4 0 -7.5 2t-7.5 2zM905 289q0 -4 4 -4t4 4q-2 2 -4 2t-2 -2h-2zM905 354h4q0 4 -4 4v-4zM909 463q6 -6 9 -6q2 2 2 4t-1 3t-1 3q-5 0 -5 -6zM909 481q0 -4 4 -4q0 2 -2 2t-2 2zM911 254q2 0 2 -2q4 0 5 6q-5 0 -7 -2v-2z M913 231q0 2 1 0t1 2q-2 0 -2 -2zM913 303q4 -4 11 -4l2 2q-4 2 -13 2zM924 276q0 -2 2 -2q2 2 2 5q-4 -1 -4 -3zM930 74v2q10 0 7 13t11 13q2 0 2 -2h2q0 -4 1 -7t1 -7q0 -2 -1 -3t-1 -3h6q4 0 5 -6q0 -6 -11 -6q2 -14 1 -23.5t1 -24.5q2 0 3 1.5t4 1.5q4 0 3 -6.5 t-1 -10.5q-14 0 -15 10q0 10 -4 21q2 -4 2 -10q0 -4 1 -9.5t1 -9.5q-2 0 -5 10.5t-5 21.5l-4 22l-2 10q0 2 -2 2zM932 752q6 0 6 4q-6 0 -6 -4zM934 1141q0 2 2 2q2 -2 4 -2q0 8 -2 8q-4 -4 -4 -8zM938 1200l2 -2l2 2v2zM948 1214q0 -2 4 -2h-2q0 2 -2 2zM961 750h6 q0 4 -4 4q0 -2 -2 -2v-2zM967 764q4 0 4 4q-4 0 -4 -4zM969 754q0 -6 6 -6v2q2 0 2 4l-4 2q-2 0 -2 -2h-2zM973 18q2 4 4 6.5t4 6.5q14 -6 14 -15q0 -6 2 -16l-2 2l-2 -2q0 10 -8 11t-12 7zM975 61q0 21 20 21v-10t-8 -6q2 -14 15.5 -13.5t17.5 -9.5q4 2 6 5t6 3t4 -2 q0 -10 -5 -13t-5 -5h-2q0 2 -2 2q0 -12 -12 -25q-6 -6 -13 -8q2 2 5.5 16.5t5.5 14.5q0 4 -4.5 7t-6.5 7q-4 0 -3 -3t-3 -3q-16 0 -16 22zM977 1190q4 6 8 18q-4 2 -6 -6t-2 -12zM983 1214l4 3q-4 0 -4 -3zM985 1190q4 0 3 -1t1 -1q0 2 6 6t6 6q-10 0 -12 -3t-4 -7z M993 1225q4 0 4 2t2 4q-4 0 -4 -2t-2 -4zM999 70q0 4 1 5t1 5q4 0 7 -2q0 4 -3.5 3t-3.5 1q2 2 5 2q4 0 8 -3t4 -7q-2 -4 -4 -5t-2 -6q-4 0 -5.5 2.5t-5.5 2.5l3 2h-5zM1010 1137q4 -4 20 -4q-4 2 -10 2t-10 2zM1016 1190q4 8 10 17.5t6 17.5q-4 -10 -10 -18.5t-6 -16.5z M1016 1227q0 -4 4 -4q0 4 -4 4zM1030 4q0 4 3 7.5t3 13.5q12 0 13.5 -3.5t1.5 -13.5q-4 -2 -6.5 -4t-4.5 -2h-2h-4h-2q0 2 -2 2zM1042 1210h5q0 4 -3 4q-2 0 -2 -4z" />
<glyph unicode="&#xad;" horiz-adv-x="655" d="M-4 432v232h450q10 -20 12.5 -49t1.5 -60t-2 -62.5t1 -60.5h-463z" />
<glyph unicode="&#xc4;" horiz-adv-x="1103" d="M-33 0h219q43 178 94.5 357.5t100.5 359.5t91 360t67 361q-12 10 -33 12t-44.5 1t-48 -2t-44.5 1q-111 -356 -209.5 -717.5t-192.5 -732.5zM204 1594.5q-1 11.5 1 18.5t10 9q-8 14 -10 35.5t-1 46.5t2 50.5t-1 45.5q47 0 98 -9t98 -9q0 -66 -3 -121t-3 -123h-180 q2 18 -10 14q2 8 1 19.5zM344 256h305q6 -72 27.5 -130t32.5 -126h219q-74 319 -159 625.5t-181 605.5q-23 -98 -45.5 -193.5t-53.5 -183.5q33 -88 54.5 -184.5t44.5 -194.5h-195q-8 -59 -24.5 -109.5t-24.5 -109.5zM584 1532v31q10 6 9 -3.5t7 -7.5q4 16 -2 20.5t-14 8.5 v201q23 -2 48 0t50 2t46.5 -4t33.5 -17v-231h-178z" />
<glyph unicode="&#xd6;" horiz-adv-x="1005" d="M-18 781.5q2 99.5 12 190.5t27.5 168t41.5 126q35 72 104.5 121.5t139.5 72.5h62v-217q-33 -16 -69 -42.5t-52 -67.5q-16 -39 -26.5 -104.5t-15.5 -143.5t-5 -162t5 -160t16 -137t26 -96q10 -23 26.5 -37t35 -27.5t34.5 -30t25 -40.5q16 -47 4.5 -98.5t-17.5 -96.5 q-104 8 -190 72.5t-127 183.5q-20 63 -34.5 149.5t-19.5 181.5t-3 194.5zM130 1594.5q-1 11.5 1 18.5t10 9q-8 14 -10 35.5t-1 46.5t2 50.5t-1 45.5q47 0 98.5 -9t98.5 -9q0 -66 -3 -121t-3 -123h-181q2 18 -10 14q2 8 1 19.5zM455 0v207q4 18 19 29.5t34.5 24.5t38 31.5 t28.5 49.5q16 43 26.5 109.5t15 143.5t3 159t-6.5 155.5t-14 132t-24 91.5q-12 29 -28.5 44t-34.5 26t-33.5 22.5t-23.5 29.5v205h47q66 -23 132 -60.5t111 -121.5q45 -80 70 -208t27 -273.5t-18.5 -292t-67.5 -261t-122 -184t-179 -59.5zM510 1532v31q10 6 9 -3.5t7 -7.5 q4 16 -2 20.5t-14 8.5v201q23 -2 48.5 0t49.5 2q25 0 46.5 -4t33.5 -17v-231h-178z" />
<glyph unicode="&#xdc;" horiz-adv-x="1005" d="M-10 545.5q-4 148.5 3 307.5t13 317.5t-8 295.5h219q14 -96 11 -217t-10 -248t-12 -250.5t6 -229t45 -184.5t105 -112v-219q-141 10 -220 84t-113.5 190.5t-38.5 265zM122 1594.5q-1 11.5 1 18.5t10 9q-8 14 -10 35.5t-1 46.5t2 50.5t-1 45.5q47 0 98 -9t98 -9 q0 -66 -3 -121t-3 -123h-180q2 18 -10 14q2 8 1 19.5zM436 6v207q10 23 27.5 34t37 22.5t38 25.5t30.5 39q23 51 31 135t7 185.5t-7 213t-11 221t-5 205.5q0 98 10 172h207q-14 -135 -8 -293.5t13 -318.5t4 -308.5t-39 -265t-113.5 -190.5t-221.5 -84zM502 1532v31 q10 6 9 -3.5t7 -7.5q4 16 -2 20.5t-14 8.5v201q23 -2 48 0t50 2t46.5 -4t33.5 -17v-231h-178z" />
<glyph unicode="&#xdf;" horiz-adv-x="980" d="M-25 797q-2 92 5.5 173t26 156.5t54.5 159.5q18 43 47 73t62 50.5t67.5 33.5t67.5 25h49v-206q-8 -18 -26.5 -31.5t-39 -27t-36.5 -32t-21 -47.5q-8 -43 -10 -137t-2 -213q0 -117 3 -242.5t8.5 -232t9.5 -179.5t8 -85q0 -27 -24.5 -40t-60.5 -18.5t-78 -4.5t-77 5 q-4 193 -11 342.5t-13.5 267.5t-8.5 210zM415 818q-9 44 1 67.5t31.5 36t45 34t41 59.5t17.5 109q0 25 -11.5 41.5t-26.5 30.5t-32.5 31.5t-27 47.5t-9.5 75q1 44 19 114q76 2 129 -33.5t85 -92t43 -128t4 -143.5t-33.5 -135.5t-69.5 -104.5q72 -39 118.5 -117.5t68 -173 t13.5 -193.5t-50 -179t-117.5 -129t-190.5 -43v237q55 12 87 47t44 80t7 97.5t-23.5 99.5t-48 85t-66.5 56q-39 80 -48 124z" />
<glyph unicode="&#xe4;" horiz-adv-x="866" d="M-14 221v219q10 57 43.5 99.5t85 67t115 29.5t132.5 -13v-146q-57 6 -98 -11t-63.5 -50t-24.5 -80t17 -103q6 -25 31.5 -29.5t56.5 -4.5h55q25 0 26 -15q-2 -23 -1 -48t2.5 -50t-1 -47.5t-12.5 -36.5q-76 -20 -140.5 -13t-112.5 36.5t-76.5 79.5t-34.5 116zM23 928 q77 170 339 145v-219q-43 18 -74.5 12t-57 -23.5t-49 -40t-50.5 -34.5q-23 45 -56.5 79t-51.5 81zM101 1307.5q-1 11.5 1 18.5t11 9q-8 14 -10.5 36t-1.5 46.5t2 50t-1 45.5q47 0 98.5 -9t98.5 -9q0 -66 -3 -121t-3 -123h-180q2 18 -11 15q2 8 1 19t-2 22.5zM438 1245v31 q10 6 9 -3t8 -7q4 16 -2.5 20t-14.5 8v201q23 -2 48.5 0t50.5 2t46 -4t33 -16v-232h-178zM449 2v1047q86 -18 132 -77t64.5 -145t18.5 -190t-6.5 -215t-10.5 -219.5t8 -200.5h-206z" />
<glyph unicode="&#xf6;" horiz-adv-x="866" d="M2 526.5q-2 98.5 16.5 194.5t55.5 173t92 127t131 58q20 -6 24.5 -29.5t2.5 -52t-5.5 -59.5t3.5 -53q-53 -37 -76 -117t-26 -174t10.5 -189.5t29.5 -164.5q-2 -14 6 -18.5t19.5 -5.5t22.5 -2t14 -11v-207q-78 2 -137.5 49t-99.5 121t-60.5 168t-22.5 192.5zM101 1307.5 q-1 11.5 1 18.5t11 9q-8 14 -10.5 36t-1.5 46.5t2 50t-1 45.5q47 0 98.5 -9t98.5 -9q0 -66 -3 -121t-3 -123h-180q2 18 -11 15q2 8 1 19t-2 22.5zM404.5 86q1.5 27 3.5 54.5t-2 49.5q4 14 15 21.5t22.5 14.5t21.5 15.5t14 22.5q6 74 16.5 164t9.5 177t-22.5 160t-76.5 107 v207q82 -4 141 -51t98 -122t58.5 -169t19.5 -192t-20.5 -193.5t-58.5 -172.5t-95 -126t-131 -57q-10 16 -12.5 39.5t-1 50.5zM438 1245v31q10 6 9 -3t8 -7q4 16 -2.5 20t-14.5 8v201q23 -2 48.5 0t50.5 2t46 -4t33 -16v-232h-178z" />
<glyph unicode="&#xfc;" horiz-adv-x="874" d="M2 576.5q2 130.5 8 260.5t-2 238h207q8 -104 3 -220t-7 -229.5t7 -216t46 -176.5q33 -16 63.5 -19t69.5 7v-194q-135 -41 -215 -8.5t-121 112.5t-51 197.5t-8 248zM101 1307.5q-1 11.5 1 18.5t11 9q-8 14 -10.5 36t-1.5 46.5t2 50t-1 45.5q47 0 98.5 -9t98.5 -9 q0 -66 -3 -121t-3 -123h-180q2 18 -11 15q2 8 1 19t-2 22.5zM438 1245v31q10 6 9 -3t8 -7q4 16 -2.5 20t-14.5 8v201q23 -2 48.5 0t50.5 2t46 -4t33 -16v-232h-178zM483 14v1061h195v-1061h-195z" />
<glyph unicode="&#x2000;" horiz-adv-x="943" />
<glyph unicode="&#x2001;" horiz-adv-x="1886" />
<glyph unicode="&#x2002;" horiz-adv-x="943" />
<glyph unicode="&#x2003;" horiz-adv-x="1886" />
<glyph unicode="&#x2004;" horiz-adv-x="628" />
<glyph unicode="&#x2005;" horiz-adv-x="471" />
<glyph unicode="&#x2006;" horiz-adv-x="314" />
<glyph unicode="&#x2007;" horiz-adv-x="314" />
<glyph unicode="&#x2008;" horiz-adv-x="235" />
<glyph unicode="&#x2009;" horiz-adv-x="377" />
<glyph unicode="&#x200a;" horiz-adv-x="104" />
<glyph unicode="&#x2010;" horiz-adv-x="655" d="M-4 432v232h450q10 -20 12.5 -49t1.5 -60t-2 -62.5t1 -60.5h-463z" />
<glyph unicode="&#x2011;" horiz-adv-x="655" d="M-4 432v232h450q10 -20 12.5 -49t1.5 -60t-2 -62.5t1 -60.5h-463z" />
<glyph unicode="&#x2012;" horiz-adv-x="655" d="M-4 432v232h450q10 -20 12.5 -49t1.5 -60t-2 -62.5t1 -60.5h-463z" />
<glyph unicode="&#x2013;" horiz-adv-x="1214" d="M-4 432v232h992q23 -20 28.5 -49t3 -60t-4.5 -62.5t2 -60.5h-1021z" />
<glyph unicode="&#x2014;" horiz-adv-x="2238" d="M-4 432v232h1985q44 -20 55 -49t6.5 -60t-8.5 -62.5t4 -60.5h-2042z" />
<glyph unicode="&#x2018;" horiz-adv-x="413" d="M0 1026v360q35 41 54.5 60.5t37 32t36.5 26t52 39.5l35 -53v-465h-215z" />
<glyph unicode="&#x2019;" horiz-adv-x="417" d="M2 1001v84v465h215v-360q-41 -39 -68.5 -67.5t-51 -50t-45 -38t-50.5 -33.5z" />
<glyph unicode="&#x201c;" horiz-adv-x="722" d="M3 -56.5q11 62.5 40 108.5t68.5 81t78.5 70q10 -43 12.5 -94.5t1.5 -105.5t-2 -109.5t1 -104.5h-195q-16 92 -5 154.5zM311 8q18 29 42 52.5t49.5 45t50 45t43.5 52.5q20 -33 24 -84t2 -108.5t-6 -115t2 -106.5h-207v219z" />
<glyph unicode="&#x201d;" horiz-adv-x="675" d="M-6 1308.5q2 57.5 6 115t-2 106.5h207v-219q-18 -29 -42 -52.5t-49.5 -45t-50 -45t-43.5 -52.5q-20 35 -24 85t-2 107.5zM312 1316q1 54 3 109.5t-2 104.5h195q16 -92 5 -154.5t-40 -108.5t-67.5 -81t-79.5 -70q-10 43 -12.5 94.5t-1.5 105.5z" />
<glyph unicode="&#x2022;" horiz-adv-x="1593" d="M-10 549q0 18 18 14q-2 41 0 71.5t31 55.5q4 10 -2 14.5t0 10.5q14 4 31.5 5t27.5 9q0 -10 8 -10q45 -4 89.5 -7t82.5 -7q-4 -10 -9 -7.5t-9 -7.5q0 -16 18 -14q8 4 5 24q35 0 57 -8q-8 -4 -9 -13t-1 -20q0 -10 -3 -18t-16 -12q4 14 8.5 26.5t6.5 30.5q-12 0 -15.5 -13.5 t-3.5 -31.5v-37q0 -18 -4 -33q-4 -6 -16.5 -12t-3.5 -12q-23 -20 -67 -31.5t-85 4.5q-12 0 -18 -10q-4 10 -26 15t-38 -1q6 -4 18.5 -3t20.5 -3q-10 -8 -25.5 -5t-9.5 -13q-10 -2 -11 4t3 10q-23 0 -33 -4q-4 10 -5 13t3 12q-16 8 -18 14zM10 893q-4 29 4.5 59.5t-0.5 69.5 q74 4 130.5 6t113.5 -2q2 -4 0 -5t-4 -5q14 -16 27.5 -33.5t27.5 -34.5q0 -25 -2 -41t8 -33h-6l2 -1t3 -3t-3 -2q2 -8 15.5 -3t13.5 -3q10 0 12 6t10 6q16 -10 40 -9t32 14q4 0 3 -3.5t1 -7.5q4 4 6 6.5t9 -2.5q4 4 17 8.5t28.5 6.5t31 0t23.5 -15q6 6 -6 9.5t-17 7.5 q0 14 6.5 24.5t12.5 19.5t9 19.5t-5 24.5q12 23 16 43q8 -10 3 -13t12 1q-10 -6 -15.5 -26.5t15.5 -27.5q-4 -16 -5 -26t-6 -27q16 4 19.5 5t19.5 -3l4 2q0 2 -2 4l-4 4t0 5q23 -6 51.5 2t30.5 12q12 -4 15.5 1t19.5 -1q6 4 5 12t9 6q4 -10 -6 -10q2 -8 8.5 -2t10.5 -2 q4 8 5 20.5t15 8.5v-17h14q-6 4 -4 4h9q6 0 12 -1t8 -1q6 2 5 9.5t3 9.5q10 2 11.5 -6.5t9.5 -8.5q0 -6 -5.5 -1t-11.5 1q23 -6 37.5 -3t34.5 -1q-2 -12 3 -19t11 -13q6 2 7 8q0 6 4 10q12 -10 9 -27.5t15 -25.5q-4 8 -7 18t7 17q-6 10 -10 16t0 16q10 0 14 -11t0 -17 q10 0 12.5 13t-8.5 13q14 6 30.5 8t37.5 -6q0 -4 -2 -6t-2 -8h10q4 4 -1 9t1 13q35 0 66.5 4.5t52.5 24.5q4 -10 -2 -12t-8 -10q33 0 56.5 -2t39.5 -19q14 4 27.5 -2t23.5 -16q10 -2 11 6t14 4q4 -4 4 -10t-8 -8q4 -4 12 -12.5t12 1.5q25 -35 51 -53q6 0 4 7t0 11 q10 -6 11 -6l10 6q4 -12 -2 -16l-12 -8q10 -12 14 -34.5t0 -44t-16.5 -37t-30.5 -13.5q6 -4 3 -8t-10.5 -8.5t-14.5 -9.5t-9 -11q2 -4 5 -5t1 -5q-6 -4 -10 -9.5t-14 -5.5q2 -8 3 -15t1 -17q-29 4 -50.5 -1.5t-42 -11.5t-43 -10t-55.5 2q0 -6 -10 -8t-26.5 -3t-34.5 -1 t-33 -2q-4 6 -4 16q0 12 -10 15q4 -4 -1.5 -12.5t-19.5 -2.5q-4 8 0 10t2 9q-12 -2 -9 -8.5t-1 -12.5q-10 4 -29.5 5t-13.5 -9q0 -6 -7 -4t-12 0q2 16 11.5 20.5t7.5 16.5q14 -8 23.5 2t13.5 14q-2 6 -10.5 5t-4.5 10q-10 -10 -20 -3t-27 3q-4 -4 -7 -9.5t-11 2.5 q-2 -20 -14.5 -27t-28.5 -12q0 6 -4 7q8 8 15 13t11 15q-6 10 -8 -1t-10 -9q-2 6 -4 11t4 10q-29 -2 -48.5 4t-41.5 10q0 4 2 7t2 7q-16 -10 -35.5 0t-32.5 19q-10 -10 -26.5 -4t-20.5 -17q-6 0 -7 5t3 10q-27 -2 -39 1t-28 5q-4 -4 4 -13.5t-4 -19.5q-10 4 -9.5 16.5 t-5.5 16.5q-18 -10 -37.5 -4t-29.5 14q-8 -8 -17 -8q-6 0 -15 3t-18.5 6t-21.5 -1q-8 -2 -2 -10.5t-10 -3.5q0 -8 5 -9.5t9 -5.5q-4 -6 -8 -9t-8 -7q-4 0 -7.5 2t-7.5 4q-2 10 0 16.5t6 12.5q-4 6 -6 8q-4 -6 -7 -9t-5 -10q-6 12 -28.5 23.5t-39.5 -12.5q-8 -4 -7 4t-3 10 q-23 -6 -47.5 -1t-46.5 5q-2 0 -6 -4t-8 -4q-20 2 -41 8t-41 10q-25 4 -49.5 3t-42.5 22q27 4 69.5 10t69.5 8q0 6 -7.5 4t-11.5 0q-6 2 -4 3.5t4 1.5h9q4 0 2 2q-31 6 -63 3t-66 1q10 18 16 30.5t-2 30.5q-4 12 -14.5 17.5t-14.5 17.5zM100 553q8 -4 21.5 -16t17.5 -2 q-8 -2 -12 3t-8 9t-8.5 7t-10.5 -1zM123 768q8 4 7 -4t7 -6q0 4 3 3t3 3q-4 2 -10 7t-10 -3zM137 629q8 -2 15.5 -9.5t13.5 -14.5t13.5 -12t15.5 -3q-16 6 -32 25.5t-26 13.5zM176 850q16 0 38 -3t34 1q-20 14 -43 16q-4 -12 -12.5 -10t-16.5 -4zM176 893q20 -4 22.5 -10 t12.5 -19q12 4 23.5 -2t19.5 2q-10 6 2 7t10 8q-10 -2 -11 6t-11 4q-6 0 -11.5 -10.5t-13.5 0.5q4 8 10.5 12t10.5 12q-14 -6 -33 -2t-31 -8zM186 786q16 -2 25.5 2.5t17.5 -6.5q-2 10 6.5 7t4.5 8q-10 -4 -18.5 -1t-24.5 1q4 -10 -4.5 -7.5t-6.5 -3.5zM248 950q0 -2 14 -2 q16 0 21 -4q-4 10 -21 10q-14 0 -14 -4zM502 801q10 -2 22.5 -5t16.5 1q-10 0 -19.5 7t-19.5 -3zM539 907q-2 -8 3 -9t7 -9q6 4 11 6t7 8q-2 8 -7 10t-7 9q-4 -4 -4 -13q0 -6 -10 -2zM567 893q4 -12 11.5 -9t17.5 -5q0 4 1 6t1 4q-10 -2 -15 2t-16 2zM610 883q4 -1 2 -9 q10 4 16.5 -1t10.5 6q-10 4 -18 4h-11zM631 836q4 -20 14 -25q-4 10 -1 17.5t-5 11.5q-4 -4 -8 -4zM653 874q18 -12 48 -14t55 -10q-18 14 -48 16t-55 8zM768 844h20q2 4 0 6t-6 2h-8q-2 0 -4 2q0 -8 -2 -10zM821 764q8 4 9 2t12 -2q4 10 -2 12t-13 6q0 -4 -3 -7t-3 -11z M840 791q4 -12 16.5 -17.5t22.5 -11.5q0 4 3 7l7 7q-12 4 -22.5 9.5t-26.5 5.5zM854 811q8 -6 16.5 1t18.5 7v10q-25 0 -35 -18zM856 793q12 0 19.5 -4.5t17.5 2.5q0 6 -2 9t2 7q-12 0 -22.5 -2t-14.5 -12zM879 864q2 -10 5 -17t5 -18q10 -2 10 5v16q-6 -2 -8 0t-2 6t-2 7 t-8 1zM898 777.5q-5 -9.5 5 -13.5q0 6 1 22.5t-5 10.5q4 -10 -1 -19.5zM902 879.5q-1 -13.5 1 -17.5q4 6 9.5 10.5t9.5 10.5q-10 0 -11 8q0 8 -4 12q-4 -10 -5 -23.5zM907 776q14 4 15 19q0 16 -11 12q4 -2 1 -13.5t-5 -17.5zM999 754q8 -4 12.5 2t6.5 -2q-8 -10 -4 -15.5 t8 -17.5q-4 0 -5 3t-5 1v-14q8 4 9 2t0 -5t-1 -8q0 -4 6 -4q-2 6 -1 12.5t7 6.5q2 -10 10.5 -11.5t8.5 -11.5q8 0 11 5t7 -5q0 -4 -5 -5t-3 -9q12 2 9 -3t1 -16q10 -2 16.5 -5t2.5 -19q6 -2 10 -7t14 -3q-20 35 -33.5 65.5t-23.5 71.5q-18 4 -37 3t-21 -11zM1004 938 q0 -10 10 -8q0 6 -2 9t2 9q-10 2 -10 -10zM1100 606q4 0 7 -2t7 0q0 4 2 12.5t-8 4.5q2 -6 -3 -7.5t-5 -7.5zM1100 807q4 -8 2 -12t2 -9q16 -4 17 6.5t-3 18.5q-8 -4 -9 -2t-9 -2zM1151 786q4 -6 14.5 -8t21.5 -4t20 -4t7 -8q4 12 17.5 6t23.5 -4q-2 6 -10 7t-16 1t-13.5 3 t-3.5 16q-16 -8 -28.5 -9.5t-32.5 4.5zM1152 751.5q5 -6.5 3 -16.5q8 0 13.5 -1t7.5 9q-18 -4 -15.5 5.5t-5.5 15.5q-8 -6 -3 -12.5zM1169 725q13 -6 29 -6q0 6 -12 8t-17 -2zM1194 858h10q2 12 -6 14q-2 -4 -4 -7t0 -7zM1204 715q4 -4 27 -4q25 0 35 4q-12 2 -32 3t-30 -3z M1237 829q10 -2 5 -7t1 -7q2 4 8 4t4 10q-6 2 -11 6t-7 -6zM1276 768q2 -8 16.5 -10t20.5 4q-16 8 -37 6zM1276 819q10 -2 20.5 -11t16.5 3q-6 10 -18.5 12t-18.5 13q0 -6 2 -9.5t-2 -7.5zM1323 798q-2 -7 4 -7q0 2 10 2v14h-10q-2 -2 -4 -9zM1337 739q14 -4 11 15h-11v-15z " />
<glyph unicode="&#x202f;" horiz-adv-x="377" />
<glyph unicode="&#x205f;" horiz-adv-x="471" />
<glyph unicode="&#x20ac;" horiz-adv-x="1120" d="M-123 739v135l115 11q16 301 110 436q18 25 55.5 46.5t81.5 37.5t86 28.5t68 20.5h49v-207q-20 -8 -47.5 -18t-54.5 -24.5t-48.5 -33t-31.5 -45.5q-6 -18 -12 -38.5t-11.5 -45t-8.5 -57.5t-5 -78l164 11l31 -136l-199 -10v-88l197 12l30 -123l-225 -10q4 -86 13.5 -152.5 t25.5 -101.5q10 -18 37 -31.5t56.5 -25.5t55 -26.5t33.5 -37.5q16 -45 5 -98t-17 -96q-53 6 -113.5 27.5t-116 56.5t-98.5 85t-61 111q-16 59 -28.5 123t-18.5 148l-88 -8v122l82 9v84zM514 -6v219q47 2 87 22.5t69.5 52t49 72.5t25.5 84h220q-6 -98 -36 -183t-85.5 -146.5 t-137 -94t-192.5 -26.5zM514 1260v194h86q84 -10 148.5 -50t110.5 -101.5t72.5 -140.5t33.5 -169h-220q-2 49 -24.5 91t-56 76t-73.5 58.5t-77 41.5z" />
<glyph unicode="&#x2122;" horiz-adv-x="567" d="M6 1382v7v14q0 10 2 12q-2 0 -2 6v2h17h45q23 0 30 -2q2 -4 2 -18v-25q0 -14 2 -20q0 -2 -4 -6q0 -23 1 -46.5t1 -45.5v-17v-26q0 -12 -1 -23l-1 -12q-4 0 -6 3t-6 3q0 -4 2 -6t2 -6h-2h-6q0 -4 4 -5q4 0 4 -4v-2q4 0 3 2t3 2q4 -4 4 -6t-2 -2q-10 0 -15 2t-15 2h-9v68 v149h-10h-24h-19zM25 1391v4q2 0 2 2h4q0 -6 -6 -6zM27 1403q0 4 2 4h2q0 4 -2 4v2l2 2q4 0 4 -8q-4 0 -4 -4v-2h-2q0 2 -2 2zM33 1417v2h2q2 0 2 -2t-2 -2zM37 1413q0 2 1 1t1 1v2q6 0 6 -4h-8zM39 1409l2 2l4 -2q0 -2 -4 -2q-2 0 -2 2zM59 1161q0 2 4 2h3v-2h-3h-4z M63 1169v2v3v2h3v-2v-3q0 -2 -3 -2zM70 1231q2 2 6 2v-4h-2h-2q-2 0 -2 2zM72 1241v2v2h4v-4h-2h-2zM76 1186q6 0 6 4q-6 0 -6 -4zM76 1198q4 0 4 -4q-4 0 -4 4zM76 1303l2 2q0 2 -2 2h4v-2v-2q-2 -2 -2 -3q-2 0 -1 1.5t-1 1.5zM78 1202l2 4v2h2v-2v-4q0 -2 -2 -2zM82 1198 q4 0 4 -4q-4 0 -4 4zM88 1311v2q2 0 2 2h4l2 -4q0 -2 -2 -2t-2 2t-4 2v-2zM94 1174q0 2 4 2v-5h-2q-2 0 -2 3zM109 1305q0 4 2 7t2 7q0 2 -1 3t-1 3q0 4 1 8t1 8v7q4 2 2 9t4 7l-2 4q0 4 1 6t1 6q0 2 -2 2h-2v41h4h18q10 0 15 -2v-39h-11h-14h-2v-4q0 -10 -4 -12q0 -2 2 -2 t2 -4h-2q-6 -12 -5 -24.5t-5 -24.5v-2q0 -2 2 -2q-2 -2 -1 -4.5t-3 -2.5q-2 0 -2 5zM186 1346q-2 4 1 3t3 1q2 16 0 37.5t5 35.5q4 2 3 0t1 -2q4 4 13 3t17 -1q0 -4 4 -4q-2 -66 -1 -130t-1 -128q-4 -4 -12 -2t-16 0q-2 0 -1 3t-3 1q-4 0 -1 -1t3 -3q-6 -2 -6 0q0 4 -5 6 v174q0 4 -2 4t-2 3zM205 1350q-2 0 0 4h4q0 -4 -4 -4zM245 1324.5q-1 27.5 1 53.5q4 0 2 -4t2 -2q4 -20 10 -26q2 -14 6 -25.5t8 -22.5q0 -8 2.5 -13t6.5 -11q2 4 3 10t5 10q-2 4 0 5t0 6q0 -2 -2 -2t0 -5h-6q-4 4 0 9q2 2 4 1t2 1q2 0 2 -2h2q2 4 4 7t2 7l-8 4q0 4 2 4t2 2 q4 0 4 -4q4 6 6 11t2 14q4 2 4 6t4 6q-2 4 0 7t0 7q4 4 5.5 11.5t5.5 11.5q0 2 -2 1t-5 1q-2 -2 -1 -4t-1 -4q-4 0 -5 2t-5 0v6h8q2 0 1 3t1 5q2 -2 4.5 -3t6.5 -5q6 6 -2 6q-2 4 0 2t2 0q-2 0 -2 8q-6 0 -11 -4q0 4 -2 2t-2 2q4 2 4 11q-2 0 4 -7q4 4 9 2v9q4 -2 2 0t2 2 q-2 -4 0 -4t2 -5q4 0 6 2.5t6 2.5q-4 4 -4 8q4 0 4 -2h2l4 4q10 -2 15 -8q-4 -4 -7 -4q0 -4 1 -3.5t1 -3.5h9v-14q4 0 5 -2t5 -4q0 -2 -2 -1t0 -3q-2 0 -6 4q-2 -2 -2 -6h10q-6 -6 -10 -6v-232h-39v70h4v4q0 2 -2 2h-2v14h10q0 -4 4 -2t8 0q-2 -2 0 -2t2 -2h6q1 -6 7 -6 q-2 2 -2 4q0 4 -5 4q0 4 -2 4v2q-6 0 -14 4q0 2 2 1t2 4q-2 2 -6 2q-8 -8 -12 -9q0 6 -4 7v6q6 4 4 16t0 23q-4 -4 -4 -11q-6 -4 -6 -18q-4 -2 -5.5 -7t-5.5 -9q2 0 6 -5v-8q-2 0 -2 -2t-2 -2q-4 0 -4 4q-4 -4 -4 -8t-4 -8q0 -2 2 -1t4 -1v-4q-6 0 -8 4q0 -6 -2 -9t-2 -8 q-12 0 -14 -2q-10 2 -13.5 11.5t-7.5 19.5q-4 -2 -4 0t-4 2q4 4 2 10.5t-6 10.5q0 2 2 1t0 1q0 4 -4 4q0 27 -1 54.5zM259 1276q1 2 1 4q4 2 3 -1t3 -1v-6q-4 0 -2 -2h-4q-2 4 -1 6zM322 1427v7h4v-7h-4zM340 1233h6q-2 -4 0 -3t0 -1q-6 0 -6 4zM346 1425q2 2 10 2v-4 q-4 2 -6 1t-4 1z" />
<glyph unicode="&#xe000;" horiz-adv-x="1064" d="M0 0v1065h1065v-1065h-1065z" />
</font>
</defs>
</svg>
