<?xml version="1.0" standalone="no"?>
<!DOCTYPE svg PUBLIC "-//W3C//DTD SVG 1.1//EN" "http://www.w3.org/Graphics/SVG/1.1/DTD/svg11.dtd" >
<svg xmlns="http://www.w3.org/2000/svg">
<metadata></metadata>
<defs>
<font id="centabel_bookcentabel_book" horiz-adv-x="1024" >
<font-face units-per-em="2048" ascent="1638" descent="-410" />
<missing-glyph horiz-adv-x="512" />
<glyph horiz-adv-x="2048" />
<glyph horiz-adv-x="2048" />
<glyph unicode="&#xd;" horiz-adv-x="2048" />
<glyph unicode=" "  horiz-adv-x="512" />
<glyph unicode="&#x09;" horiz-adv-x="512" />
<glyph unicode="&#xa0;" horiz-adv-x="512" />
<glyph unicode="!" horiz-adv-x="512" d="M133 109q0 27 45 72.5t70 45.5t69.5 -46t44.5 -72q0 -27 -45 -73t-69 -46q-25 0 -70 46t-45 73zM145 1364h189l-37 -963h-119z" />
<glyph unicode="&#x22;" horiz-adv-x="681" d="M141 1378q25 41 66 41q40 0 65 -41l-4 -186l-14 -350q-20 -25 -47 -25q-31 0 -47 25zM410 1378q25 41 65 41q41 0 66 -41l-4 -186l-15 -350q-20 -25 -47 -25q-31 0 -47 25z" />
<glyph unicode="#" d="M14 451l4 106h230l43 303h-219l4 107h229l66 450h116l-65 -450h268l66 450h116l-65 -450h207l-4 -107h-217l-43 -303h206l-4 -106h-217l-63 -451h-117l63 451h-268l-63 -451h-117l63 451h-219zM365 557h268l43 303h-268z" />
<glyph unicode="$" d="M125 334q14 72 80 84l22 2q45 0 58 -39q0 -55 -54 -55q-8 0 -20 4q20 -57 102 -117q63 -45 187 -55v504q-182 55 -258 130.5t-76 215.5q0 147 108 241q88 78 226 92v158h90v-156q229 -20 303 -186q-8 -80 -70 -92l-22 -2q-41 0 -53 39q0 49 63 49q-37 55 -106 84 q-39 16 -115 25v-480q195 -49 275.5 -128t80.5 -210q0 -317 -356 -368v-191h-90v185q-131 2 -236 69q-113 72 -139 197zM289 1030q0 -104 82 -160q59 -40 129 -63v450q-211 -37 -211 -227zM590 162q84 12 145 67q80 72 80 179q0 109 -72 159q-38 29 -153 70v-475z" />
<glyph unicode="%" horiz-adv-x="1536" d="M41 1018q0 156 94.5 266.5t229.5 110.5t228 -109.5t93 -269.5t-94 -269.5t-232 -109.5q-133 0 -226 110.5t-93 270.5zM162 1016q0 -135 56 -217t149 -82q90 0 144 83t54 218q0 131 -55 215t-145 84q-92 0 -147.5 -83t-55.5 -218zM276 -29q316 537 873 1448h106 l-868 -1448h-111zM840 381q0 156 94 265.5t229 109.5q137 0 230.5 -108.5t93.5 -268.5t-95.5 -269.5t-232.5 -109.5q-133 0 -226 110.5t-93 270.5zM963 375q0 -133 56 -215t150 -82q90 0 144.5 82t54.5 217q0 131 -55.5 215t-145.5 84q-92 0 -148 -84t-56 -217z" />
<glyph unicode="&#x26;" horiz-adv-x="1366" d="M63 336q0 258 355 438q-20 29 -58 103q-55 109 -55 217q0 145 96.5 237t245.5 92q121 0 203 -69q88 -76 88 -193q0 -115 -117 -229q-90 -88 -219 -152q127 -197 295 -395q14 -16 35 -43q29 31 79 98.5t87 161.5q0 80 -103 80v35h133l134 -2l45 -68q-53 0 -75 -14.5 t-38 -67.5q-88 -172 -201 -291q119 -133 207 -198q80 0 84 90h29q-27 -172 -205 -189q-76 2 -156 99l-75 92q-35 -27 -125 -94q-129 -94 -265 -94q-199 0 -315 108q-109 98 -109 248zM227 356q0 -123 80 -202.5t197 -79.5q131 0 317 162q-14 16 -112 145q-78 102 -234 309 q-2 2 -8 10q-240 -168 -240 -344zM449 1130q0 -84 49 -178q26 -51 59 -104q100 47 166 123q80 88 80 184q0 80 -52.5 131t-127.5 51q-76 0 -123 -51q-51 -57 -51 -156z" />
<glyph unicode="'" horiz-adv-x="454" d="M162 1378q25 41 65 41q41 0 66 -41l-4 -186l-15 -350q-20 -25 -47 -25q-31 0 -47 25z" />
<glyph unicode="(" horiz-adv-x="739" d="M72 535q0 305 159.5 549.5t413.5 318.5l17 -84q-209 -70 -332 -295q-117 -215 -117 -489t117 -490q123 -225 332 -295l-17 -84q-254 74 -413.5 318.5t-159.5 550.5z" />
<glyph unicode=")" horiz-adv-x="739" d="M76 -250q209 70 332 295q116 216 116 490t-116 489q-123 225 -332 295l16 84q254 -74 414 -318.5t160 -549.5t-160 -550t-414 -319z" />
<glyph unicode="*" horiz-adv-x="909" d="M84 860q0 23 18 41q225 80 287 123q-41 33 -170 78q-119 45 -127 55t-8 31q0 16 12 41q25 41 60 41l14 -2q170 -147 252 -189l-2 82q-2 43 -35 230q10 43 68 43q57 0 67 -43q-37 -186 -37 -230v-82q49 25 74 43q53 37 178 146l15 2q33 0 57 -41q14 -29 14 -41 q0 -23 -18 -41q-225 -80 -287 -123q51 -39 287 -123q18 -27 18 -41q0 -16 -14 -41q-25 -41 -57 -41l-15 2q-170 147 -252 189v-84q0 -43 37 -228q-8 -43 -67 -43t-68 43q33 184 35 228l2 84q-49 -25 -74 -41q-53 -39 -178 -148l-14 -2q-29 0 -50.5 26.5t-21.5 55.5z" />
<glyph unicode="+" horiz-adv-x="1228" d="M117 442v117h438v434h117v-434h442v-117h-442v-438h-117v438h-438z" />
<glyph unicode="," horiz-adv-x="512" d="M76 -360q70 92 110 188q6 14 66 172q-86 4 -86 88q0 20 6 43q16 53 66 64q5 2 71 2t66 -91q0 -63 -88 -258.5t-133 -232.5q-14 4 -38 12t-40 13z" />
<glyph unicode="-" horiz-adv-x="626" d="M55 440v113h512v-113h-512z" />
<glyph unicode="." horiz-adv-x="512" d="M129 106q0 27 44 72t69 45t68.5 -45t43.5 -72t-44 -71.5t-68 -44.5q-25 0 -69 45t-44 71z" />
<glyph unicode="/" horiz-adv-x="569" d="M-29 -31l516 1467h111l-516 -1467h-111z" />
<glyph unicode="0" d="M63 700q0 311 128 522.5t321 211.5t319.5 -210.5t126.5 -523.5q0 -311 -128 -521t-320 -210q-193 0 -320 209t-127 522zM233 700q0 -289 72 -458q74 -178 207 -179q131 0 205 179q71 169 71 458t-72.5 464t-205.5 175q-131 0 -204 -175t-73 -464z" />
<glyph unicode="1" d="M176 1227q248 80 442 223h29v-1360q0 -45 76 -45h47v-35q-23 0 -56.5 -3t-46 -3t-102.5 -4q-23 0 -56.5 -3t-48 -3t-100.5 -4v35h48q76 0 75 45v1136q0 43 -104 43q-94 -55 -184 -102q-2 12 -9.5 39.5t-9.5 40.5z" />
<glyph unicode="2" d="M51 0q59 147 213 322q61 68 279 280q231 227 231 426q0 135 -86 224t-217 89t-217 -82.5t-88 -205.5q33 -145 192 -158q35 -16 35 -55q0 -96 -84 -117q-106 14 -174.5 93t-68.5 198q0 188 118.5 305t309.5 117q193 0 317.5 -118t124.5 -296q0 -248 -291 -481 q-309 -248 -401 -398h524q72 0 101.5 30t37.5 101h27l-19 -274h-864z" />
<glyph unicode="3" d="M55 297q0 43 56 65q41 16 59 17q23 0 41 -8q18 -27 18 -41q0 -18 -14 -39t-41 -21q-18 0 -37 11q12 -88 97 -153t202 -65q158 0 246 85t88 239q0 147 -74 227q-80 84 -223 78l-49 -2l-51 -4q-29 12 -29 49q0 31 27 47l82 -4q121 -6 203.5 71t82.5 210q0 129 -73.5 204.5 t-200.5 75.5q-115 0 -193.5 -53t-109.5 -133q14 8 33 8q12 0 26 -10q23 -22 23 -45q-27 -45 -46.5 -51t-25.5 -6q-25 0 -43 8q-41 35 -47 57q2 -6 2 55q27 106 129 183q115 82 264 82q186 0 305 -103.5t119 -263.5q0 -106 -70.5 -191t-193.5 -128q135 -25 219 -121.5 t84 -229.5q0 -190 -140.5 -309t-361.5 -119q-119 0 -225 70q-125 80 -147 205q-10 33 -11 53z" />
<glyph unicode="4" d="M14 377v45l672 1026h31l31 2v-967h229l-4 -55q0 -4 -6 -51h-219v-293q0 -43 53 -43h33v-35q-18 0 -46 -3t-37.5 -3t-84.5 -4l-187 -10v34h39q66 0 66 43v314h-570zM152 483h432v672z" />
<glyph unicode="5" d="M57 240q0 45 45 83.5t93 38.5q37 -18 36 -53q0 -59 -53 -59q-12 0 -37 8q25 -90 115 -145q82 -49 180 -50q156 0 253 102.5t97 258.5q0 164 -86 268q-92 115 -251 115q-184 0 -265 -139q0 -41 -24 -41q-14 0 -15 24q0 8 3.5 20.5t3.5 18.5l32 721q176 -25 353 -25 q163 0 325 25v-2q-12 -59 -45 -113q-150 -66 -364 -65q-90 0 -177 18l-20 -426q86 80 229 80q197 0 329 -131t132 -328q0 -201 -150.5 -338t-353.5 -137q-125 0 -245 72q-139 80 -140 199z" />
<glyph unicode="6" d="M70 561q0 283 163 543q160 254 390 352l43 -72q-203 -96 -314 -317q-74 -147 -100 -332q59 96 110 135q86 66 199 66q172 0 289 -133t117 -326q0 -223 -126 -365.5t-325 -142.5q-186 0 -311 158q-135 166 -135 434zM240 522q0 -459 292 -459q129 0 201 103.5t72 288.5v12 q0 379 -283 379q-216 -1 -282 -316v-8z" />
<glyph unicode="7" d="M90 1118l21 287h866v-45q-352 -666 -467 -1227l-2 -41l2 -35q-16 -74 -86 -73h-10q-63 0 -84 79l4 46q2 14 12 49q143 444 485 1104h-544q-80 0 -118 -32t-46 -112h-33z" />
<glyph unicode="8" d="M53 356q0 117 90 219q82 95 205 134q-254 96 -254 329q0 174 119 285t307 111q176 0 288 -99.5t112 -257.5q0 -211 -238 -325q129 -49 207 -147.5t78 -221.5q0 -184 -133.5 -299t-344.5 -115q-188 0 -312 109.5t-124 277.5zM195 360q0 -133 83.5 -215t219.5 -82 q135 0 227 80t92 203q0 246 -352 320q-270 -53 -270 -306zM236 1063q0 -217 327 -272q92 8 152 73q68 76 67 197q0 123 -74.5 200.5t-191.5 77.5q-123 0 -201.5 -77.5t-78.5 -198.5z" />
<glyph unicode="9" d="M55 922q0 225 125 369.5t322 144.5q186 0 315 -154q135 -164 135 -426q0 -297 -159.5 -553t-399.5 -354l-43 71q215 90 324 299q61 117 96 318q-49 -80 -100 -115q-88 -61 -199 -61q-170 0 -293 137.5t-123 323.5zM217 938q0 -387 285 -387q231 0 280 326q-2 201 -47 305 q-68 160 -237 159q-135 0 -208 -102t-73 -289v-12z" />
<glyph unicode=":" horiz-adv-x="512" d="M131 106q0 27 44 72t69 45t68.5 -45t43.5 -72t-44 -71.5t-68 -44.5q-25 0 -69 45t-44 71zM131 721q0 27 44 72t69 45t68.5 -45t43.5 -72t-44 -72t-68 -45q-25 0 -69 45t-44 72z" />
<glyph unicode=";" horiz-adv-x="512" d="M76 -360q70 92 110 188q6 14 66 172q-86 4 -86 88q0 20 6 43q16 53 66 64q5 2 71 2t66 -91q0 -63 -88 -258.5t-133 -232.5q-14 4 -38 12t-40 13zM152 721q0 27 43.5 72t68.5 45t69 -45t44 -72t-44 -72t-69 -45t-68.5 45t-43.5 72z" />
<glyph unicode="&#x3c;" horiz-adv-x="1228" d="M113 442v111l1001 451v-121l-858 -385l858 -385v-121z" />
<glyph unicode="=" horiz-adv-x="1228" d="M117 244v114h997v-114h-997zM117 637v115h997v-115h-997z" />
<glyph unicode="&#x3e;" horiz-adv-x="1228" d="M115 -8v121l858 385l-858 385v121l1001 -451v-111z" />
<glyph unicode="?" horiz-adv-x="909" d="M68 1147q0 33 28 90q103 209 365 209q164 0 272 -90q117 -96 117 -256q0 -170 -180 -316q-104 -84 -127 -112q-45 -57 -51 -158q0 -14 -7 -102l-79 -13v193q0 92 75 166q68 66 137 129q76 86 76 203q0 113 -73.5 187.5t-186.5 74.5q-98 0 -175 -56.5t-97 -150.5 q10 0 31 4q31 0 49 -31q-6 -57 -80 -57q-94 0 -94 86zM344 106q0 27 45 73t72 46t70.5 -46t43.5 -73t-44 -72.5t-70 -45.5q-27 0 -72 46t-45 72z" />
<glyph unicode="@" horiz-adv-x="1638" d="M100 711q0 291 220.5 509t531.5 218q293 0 491 -181q193 -174 193 -419q0 -219 -132 -388t-286 -169q-135 0 -174 145q-37 -55 -100 -94q-74 -47 -150 -47q-104 0 -168 73q-70 78 -69 222q0 184 131 350q137 178 313 178q139 0 182 -147l35 106h131l-162 -563 q-10 -35 -10 -62q0 -74 62 -73q100 0 196 141q104 152 105 336q0 205 -169 356.5t-413 151.5q-254 0 -436 -189.5t-182 -462.5q0 -272 190 -462q182 -182 424 -183q154 0 293 56q127 49 184 120l68 -26q-53 -88 -199 -156q-160 -78 -332 -78q-332 0 -553 222 q-215 215 -215 516zM598 575q0 -184 135 -184q125 0 221 162q86 143 86 278q0 72 -40 124.5t-99 52.5q-117 0 -213 -146q-90 -137 -90 -287z" />
<glyph unicode="A" horiz-adv-x="1366" d="M-31 0v35q94 0 125 100l568 1292h36l586 -1308q20 -47 42 -65.5t69 -18.5v-35l-346 -16v34q66 0 77 13q6 6 7 18q0 14 -11 45l-192 416h-551l-174 -391q-12 -27 -12 -51q0 -49 110 -50v-34zM426 618h455l-230 504z" />
<glyph unicode="B" horiz-adv-x="1196" d="M94 0v35h37q57 0 57 67v1203q0 67 -55 67h-2h-37v35h494q225 0 350 -92t125 -262q0 -123 -80 -208t-221 -110q168 -23 261 -115t93 -235q0 -172 -122 -278.5t-318 -106.5h-582zM356 160q37 -61 209 -62q186 0 273.5 65.5t87.5 213.5q0 299 -308 299h-262v-516zM356 776 h195q326 0 326 260q0 143 -82 208t-254 65q-147 0 -185 -49v-484z" />
<glyph unicode="C" horiz-adv-x="1253" d="M70 700q0 301 200.5 517.5t479.5 216.5q92 0 202 -41q55 -25 111 -50q27 0 41 39h24q0 -223 -18 -315q-131 268 -356 268q-231 0 -363.5 -170.5t-132.5 -459.5q0 -276 140.5 -456.5t359.5 -180.5q145 0 242.5 79.5t127.5 210.5q6 -18 21 -77q-31 -152 -138.5 -232 t-273.5 -80q-283 0 -475 210t-192 521z" />
<glyph unicode="D" horiz-adv-x="1366" d="M100 0v35h39q57 0 58 67v1203q0 67 -56 67h-2h-39v35h508q289 0 483.5 -198.5t194.5 -506.5q0 -305 -196.5 -503.5t-493.5 -198.5h-496zM365 164q35 -66 194 -66q539 0 539 602q0 608 -525 609q-84 0 -116 -9q-66 -12 -92 -61v-1075z" />
<glyph unicode="E" horiz-adv-x="1196" d="M106 0v35h35q59 0 60 67v1203q0 67 -58 67h-2h-35v35h959q4 -143 18 -315h-30q-55 217 -238 217h-326q-121 0 -120 -72v-463h290q84 0 117 25.5t43 97.5h29v-346h-29q-10 72 -43 97.5t-117 25.5h-290v-510q0 -66 77 -66h353q137 0 202 58q59 51 86 172h33 q-8 -86 -18 -328h-996z" />
<glyph unicode="F" d="M104 -6v35h37q57 0 58 67v1209q0 67 -54 67h-2h-37v35h889q4 -139 19 -311h-31q-57 213 -238 213h-258q-121 0 -120 -72v-461h219q82 0 115.5 27.5t43.5 103.5h29v-364h-29q-10 78 -43.5 105.5t-115.5 27.5h-219v-567q0 -68 67 -68h45v-35l-98 -4l-98 -2l-90 -4z" />
<glyph unicode="G" horiz-adv-x="1423" d="M68 686q0 319 197.5 534.5t494.5 215.5q213 0 409 -144h5q10 -2 28 29h31v-238q-12 -8 -34.5 -24.5t-35.5 -24.5q-53 143 -161.5 223t-235.5 80q-240 0 -375 -173t-135 -472q0 -272 140.5 -448t359.5 -176q264 0 334 223v219q0 59 -25 81.5t-88 22.5h-232l21 101h584v-37 h-13q-80 0 -80 -62v-536h-38q-16 49 -35 49q-68 -59 -176 -104q-137 -55 -265 -56q-272 0 -473.5 213t-201.5 504z" />
<glyph unicode="H" horiz-adv-x="1423" d="M92 -6v35h37q57 0 57 67v1213q0 67 -55 67h-2h-37v35h365v-22h-41q-61 0 -62 -68v-545h703v533q0 67 -54 67h-2h-36v35h356v-22h-39q-57 0 -57 -68v-1212q0 -68 57 -68h39v-47h-356v35h36q55 0 56 65v582h-703v-570q0 -65 60 -65h2h41v-47h-365z" />
<glyph unicode="I" horiz-adv-x="569" d="M102 -6v35q61 0 72 4q27 12 27 63v1213q0 51 -27 63q-10 4 -72 4v35h365v-22q-61 0 -72 -5q-27 -12 -26 -63v-1212q0 -51 26 -64q10 -4 72 -4v-47h-365z" />
<glyph unicode="J" horiz-adv-x="854" d="M-4 156q12 76 63 104q35 20 64 21q10 0 27 -5q14 -25 14 -38q0 -16 -14 -41q-20 -25 -48 -25q-20 0 -34 8q20 -45 71 -76q57 -36 124 -36h11q125 2 177.5 75.5t52.5 253.5v912q0 67 -60 67h-2h-41v35h371v-22h-41q-59 0 -59 -68v-956q0 -395 -383 -396q-127 0 -205 50.5 t-88 136.5z" />
<glyph unicode="K" horiz-adv-x="1196" d="M106 -6v35h39q59 0 60 67v1213q0 67 -58 67h-2h-39v35l91 2l92 4l86 2l86 4v-34h-35q-53 0 -53 -68v-315q0 -209 6 -314l541 619q23 35 22 57q-4 23 -84 23v34q55 -4 164 -12q147 -12 164 -12v-35q-70 0 -117 -53l-461 -516l504 -674q39 -66 111 -66v-34q-59 -6 -176 -17 q-29 -2 -87.5 -8t-87.5 -8v35q49 0 64 12q4 4 4 12q0 18 -27 62l-458 600q-27 -27 -82 -86v-516q0 -68 53 -68h35v-47h-355z" />
<glyph unicode="L" horiz-adv-x="968" d="M92 0v35h37q55 0 55 67v1207q0 67 -51 67h-2h-37v35h357v-22h-39q-60 0 -60 -68v-1157q0 -66 78 -66h252q188 0 240 230h32q-12 -115 -26 -328h-836z" />
<glyph unicode="M" horiz-adv-x="1650" d="M33 8v35h35q68 0 67 100l141 1180q0 68 -59 68h-39v34h242l403 -1099l404 1099h231v-34h-37q-53 0 -53 -68l141 -1214q0 -68 60 -68h41v-35l-94 -4l-93 -2l-88 -4l-90 -2l4 35h37q55 0 55 67l-102 1094l-432 -1206h-37l-436 1202l-94 -1059q0 -100 67 -100h35v-35z" />
<glyph unicode="N" horiz-adv-x="1423" d="M102 -6v35h41q61 0 62 67v1252l-17 16q-20 27 -57 27h-29v34h177q282 -364 841 -1099v983q0 67 -59 67h-2h-41v35h297v-22h-37q-53 0 -53 -68v-1348h-37l-14 23l-865 1124v-1011q0 -68 66 -68h43v-47h-316z" />
<glyph unicode="O" horiz-adv-x="1536" d="M63 702q0 307 204 520.5t499 213.5q297 0 500.5 -213.5t203.5 -520.5t-203.5 -520t-500.5 -213q-295 0 -499 213t-204 520zM250 702q0 -287 140 -460.5t376 -173.5q238 0 378 172.5t140 461.5t-140 462t-378 173q-236 0 -376 -174t-140 -461z" />
<glyph unicode="P" horiz-adv-x="1081" d="M94 -6v35h39q57 0 57 67v1209q0 67 -51 67h-2h-37v35h451q236 0 366 -109.5t130 -312.5t-128 -315.5t-352 -112.5h-209v-451q0 -65 58 -65h2h41v-47h-365zM360 655h89l88 2q166 4 242.5 81t76.5 247q0 150 -80 237t-221 87q-158 0 -195 -78v-576z" />
<glyph unicode="Q" horiz-adv-x="1536" d="M63 702q0 307 204 520.5t499 213.5q297 0 500.5 -213t203.5 -521q0 -305 -204 -520q-12 -12 -68 -63q145 -213 195 -213q68 0 80 100l4 -49q-2 -80 -53.5 -125t-125.5 -45q-127 0 -239 244q-119 -61 -293 -62q-295 0 -499 213t-204 520zM250 702q0 -287 140 -460.5 t376 -173.5h5q154 0 249 65q-106 242 -195 242q-57 0 -67 -68v-12q0 -66 80 -80q-119 4 -119 92q0 53 47 99.5t117 46.5q98 0 247 -228q6 4 13 17q141 188 141 460q0 289 -140 462t-378 173q-236 0 -376 -174t-140 -461z" />
<glyph unicode="R" horiz-adv-x="1138" d="M98 -6v35h39q57 0 58 67v1209q0 67 -56 67h-2h-39v35h500q199 0 317.5 -104.5t118.5 -282.5q0 -158 -106 -258q-113 -102 -312 -117q156 -94 363 -420q0 -2 37 -80q27 -55 41 -55q37 0 43 82h28q-12 -84 -62 -135q-45 -46 -115 -46q-8 0 -17 1q-47 4 -109 145 q-233 539 -400 539h-7l-31 -2l-25 2v-570q0 -65 60 -65h2h41v-47h-367zM362 727l97 -2h98q299 0 299 270q0 313 -309 314q-154 0 -185 -64v-518z" />
<glyph unicode="S" horiz-adv-x="1081" d="M78 96v266q29 12 80 39q33 -135 139 -231q117 -102 268 -102q127 0 212 75.5t85 188.5q0 129 -86 200q-78 63 -270 115q-223 59 -317.5 149.5t-94.5 245.5q0 170 121 282t307 112q178 0 365 -146q14 0 31 41l2 6h32v-237q-23 -14 -69 -45q-37 113 -123 190 q-100 92 -228 92q-131 0 -208.5 -65.5t-77.5 -181.5q0 -195 338 -283q231 -59 331.5 -153.5t100.5 -241.5q0 -205 -130 -324t-349 -119q-109 0 -226 60q-102 51 -157 116q-16 0 -48 -49h-28z" />
<glyph unicode="T" horiz-adv-x="1081" d="M14 1102q6 117 23 305h1012l6 -305h-31q-37 207 -205 207h-194v-1200q0 -68 59 -68h41v-35l-371 -12v35h41q59 0 60 67v1213h-205q-172 0 -205 -207h-31z" />
<glyph unicode="U" horiz-adv-x="1366" d="M80 1376l2 35q182 4 362 12v-34h-38q-59 0 -60 -68v-887q0 -176 89 -271t253 -95q193 0 294 107t101 310v805q0 86 -75 86h-35v35q154 4 307 12v-34h-31q-68 0 -67 -86v-840q0 -236 -133.5 -365t-372.5 -129q-242 0 -370 117t-128 342v881q0 67 -57 67h-2h-39z" />
<glyph unicode="V" horiz-adv-x="1251" d="M-29 1372v33l351 18v-34q-70 0 -86 -23q-6 -8 -7 -25q0 -16 13 -47l411 -1007l414 989q12 29 12 59q0 8 -4 25q-12 29 -82 29v36l289 -18v-35q-74 0 -96 -82l-545 -1306h-47l-520 1304q-20 84 -103 84z" />
<glyph unicode="W" horiz-adv-x="1763" d="M-2 1403q109 6 326 22v-34q-59 0 -66.5 -15.5t-7.5 -21.5q0 -23 6 -33l311 -971l303 901l-20 68q-14 47 -21 53q-16 18 -65 19v34h264v-34q-78 0 -78 -43q0 -20 6 -35l312 -961l297 928q10 33 10 63q0 10 -4 27q-12 20 -66 21h-18v34q197 -16 297 -22v-35q-70 0 -96 -82 l-439 -1302h-39l-319 1011l-342 -1011h-37l-438 1329q-10 55 -74 55z" />
<glyph unicode="X" horiz-adv-x="1253" d="M-6 20v35q86 2 135 70q178 250 426 604l-389 574q-25 49 -121 49v34q61 4 186 15l88 6q16 2 45 5t44 3v-35q-63 0 -74 -16l-2 -10q0 -14 12 -39l313 -445q43 59 299 443q12 18 13 37q0 2 -4 14q-13 16 -72 16v35q76 -8 229 -22l74 -7v-34q-84 0 -137 -78l-340 -500 l450 -655q33 -59 111 -60v-34q-31 -2 -94.5 -8.5t-94 -10.5t-94.5 -8q-33 -4 -96 -8v35q70 0 82 20q4 12 4 18q0 27 -22 60l-349 508q-59 -82 -174.5 -248t-175.5 -248q-29 -51 -28 -72l2 -12q10 -24 82 -24h6v-35q-27 2 -84 6q-29 4 -82 8q-16 2 -84 6q-29 4 -84 8z" />
<glyph unicode="Y" horiz-adv-x="1138" d="M-23 1405l357 18v-34q-86 0 -86 -35q0 -14 12 -37l361 -635l329 625q12 23 13 45l-7 18q-10 11 -82 19v34l306 -16v-35q-74 0 -109 -65l-405 -779l-117 -419q0 -68 67 -68h46v-35q-193 -10 -388 -12v35h43q63 0 64 67l115 469l-420 754q-29 53 -96 53z" />
<glyph unicode="Z" horiz-adv-x="1138" d="M37 0v18l797 1291h-463q-252 0 -269 -201h-30q6 92 22 299h969v-41l-780 -1268h493q135 0 203 60q57 53 82 170h33l-21 -328h-1036z" />
<glyph unicode="[" horiz-adv-x="626" d="M137 -334v1737h348v-84h-127q-90 0 -90 -72v-1425q0 -72 90 -72h127v-84h-348z" />
<glyph unicode="\" horiz-adv-x="569" d="M-104 1436h116l658 -1467h-117z" />
<glyph unicode="]" horiz-adv-x="626" d="M137 -250h129q88 0 88 72v1425q0 72 -88 72h-129v84h348v-1737h-348v84z" />
<glyph unicode="^" horiz-adv-x="1228" d="M143 592l416 827h111l417 -827h-129l-344 690l-342 -690h-129z" />
<glyph unicode="_" d="M0 -127h1024v-127h-1024v127z" />
<glyph unicode="`" horiz-adv-x="512" d="M-18 1397q18 51 106 51q49 -31 131 -121q88 -99 178 -197h-96q-88 70 -178 140q-104 84 -141 127z" />
<glyph unicode="a" horiz-adv-x="966" d="M43 276q0 131 110.5 230.5t270.5 126.5q18 3 43 2h27l41 -2q57 -2 131 -29v164q0 76 -62.5 117t-157.5 41q-68 0 -149 -25q-68 -23 -98 -43q45 -10 45 -55q0 -27 -27 -27q-6 0 -27 4q-53 16 -53 60q0 61 90 118q98 61 236 62q358 0 358 -291v-625q0 -57 31 -57 q41 0 41 72h29q0 -55 -50.5 -96t-115.5 -41h-1q-67 0 -81 165q-82 -174 -291 -174q-156 0 -248 85t-92 218zM213 279q0 -88 56.5 -145.5t152.5 -57.5q104 0 174 79.5t70 194.5v88q-12 63 -56 94q-39 27 -77 27h-9l-24 -2q-123 -10 -205 -91t-82 -187z" />
<glyph unicode="b" horiz-adv-x="1196" d="M57 1419q76 6 228 27v-631q133 203 354 203q213 0 347 -144.5t134 -371.5q0 -221 -148.5 -376t-359.5 -155q-150 0 -286 107q-143 109 -166 254q-31 193 -31 276v735q0 41 -35 41q-37 16 -37 35zM287 444q0 -180 89 -279t245 -99q154 0 244.5 116.5t90.5 306.5t-91 312.5 t-236 122.5q-147 0 -244.5 -125.5t-97.5 -315.5v-39z" />
<glyph unicode="c" d="M61 494q0 217 159 370.5t384 153.5q135 0 244 -70q100 -63 100 -129q0 -53 -78 -67q-23 -4 -30 -4q-41 0 -54 34q0 33 24 41t30 8l20 -2q-80 94 -254 95q-172 0 -273.5 -115t-101.5 -305q0 -193 101.5 -314.5t263.5 -121.5q104 0 201 55q71 43 100 88q12 -8 32.5 -27.5 t31.5 -29.5q-145 -180 -388 -181q-221 0 -366.5 148.5t-145.5 372.5z" />
<glyph unicode="d" horiz-adv-x="1196" d="M70 502q0 211 145 363.5t352 152.5q211 0 326 -193v518q0 41 -39 41q-41 16 -41 35q78 6 236 27v-1374q0 -43 69 -43v-29q-135 -12 -217 -20v202q-39 -84 -133 -143q-104 -66 -227 -66q-199 0 -335 154t-136 375zM238 496q0 -190 88 -309t231 -119q152 0 247 121t95 307 q0 195 -92 311.5t-244 116.5q-145 0 -235 -121t-90 -307z" />
<glyph unicode="e" d="M57 496q0 223 140.5 372.5t351.5 149.5q170 0 289 -109q113 -102 133 -260l-738 -252q25 -127 89 -207q97 -122 253 -122h3q195 0 348 176q6 -14 12 -44t12 -44q-145 -182 -401 -183q-207 0 -349.5 151.5t-142.5 371.5zM225 485q182 70 547 211q-37 227 -225 228 q-154 0 -238 -108.5t-84 -301.5v-29z" />
<glyph unicode="f" horiz-adv-x="626" d="M37 901v-3q2 0 14 97h148v117q0 332 381 332q102 0 108 -78q1 -9 1 -16q0 -32 -13 -52q-13 -25 -45 -25q-7 0 -15 1q-23 2 -22 24q0 35 20 48l-18 2l-37 2q-12 1 -22 1q-183 0 -183 -190v-166h267v-94h-267v-811q0 -45 64 -45h39l-2 -35q-57 -2 -174 -10t-177 -10v35h35 q59 0 60 45v831h-162z" />
<glyph unicode="g" d="M25 -137q0 98 211 119q20 2 63 8q-158 -33 -158 -82q0 -59 101 -129q111 -78 239 -78q137 0 236 59q108 65 108 170q0 102 -96 170q-91 64 -240 64h-18l-72 -2q-4 0 -123 4q-110 4 -110 56q0 36 45 91q41 49 78 70q-207 99 -207 285q0 152 115.5 251t287.5 99 q63 0 133 -19q211 92 285 93q63 0 64 -56q0 -41 -43 -43l-52 -2q-109 0 -122 -49q12 -8 30 -22q123 -98 123 -248q0 -143 -113.5 -236.5t-283.5 -93.5q-123 0 -195 33l-6 -2q-37 -12 -37 -31q0 -35 80 -47q49 -6 218 -10t276 -82q115 -84 114 -230q0 -162 -142 -264 t-345 -102q-162 0 -303 86t-141 170zM244 672q0 -117 67.5 -187.5t184.5 -70.5q111 0 178 70.5t67 185.5t-68.5 186.5t-174.5 71.5q-113 0 -183.5 -71t-70.5 -185z" />
<glyph unicode="h" horiz-adv-x="1081" d="M68 -10v35h26q45 0 45 45v1273q0 41 -35 41q-37 16 -36 35q76 8 227 27v-619q104 190 309 191q160 0 247 -97.5t87 -275.5v-555q0 -45 45 -45h27v-35q-147 -8 -228 -20v692q0 242 -213 242q-115 0 -194.5 -93.5t-79.5 -224.5v-516q0 -45 49 -45h31l-2 -35 q-25 -2 -115 -10q-74 -6 -117 -6q-8 0 -73 -4z" />
<glyph unicode="i" horiz-adv-x="512" d="M100 -10v35h29q49 0 49 43v833q0 41 -39 41q-39 16 -39 37q78 8 234 31v-920q0 -45 49 -45h29l2 -35q-51 -2 -155.5 -10t-158.5 -10zM135 1329q0 20 42 65.5t63 45.5q20 0 62 -45t42 -66q0 -20 -42 -65t-62 -45t-62.5 45t-42.5 65z" />
<glyph unicode="j" horiz-adv-x="512" d="M-137 -276q0 74 43 94q25 6 24 6q20 0 21 -27q0 -51 -41 -55q10 -18 53 -21l43 -2h12q81 0 128 53q51 56 51 195v934q0 41 -33 41q-33 14 -33 37q147 18 221 31v-1014q0 -367 -368 -369q-53 0 -87 31t-34 66zM154 1329q0 20 42 65.5t62 45.5t62 -45t42 -66 q0 -20 -41.5 -65t-62.5 -45q-20 0 -62 45t-42 65z" />
<glyph unicode="k" horiz-adv-x="968" d="M82 -10v35h29q49 0 49 45v1273q0 41 -37 41q-37 17 -37 27v8q76 6 229 27v-950l404 422q29 23 29 34l-3 9q-10 18 -71 18v33q158 -18 278 -29v-33q-57 0 -90 -35l-342 -362l373 -449q27 -43 82 -43v-34q-29 -4 -90.5 -17.5t-91.5 -17.5l-422 495q-37 -37 -56 -59v-338 q0 -45 47 -45h29l-2 -35q-51 -2 -153.5 -10t-153.5 -10z" />
<glyph unicode="l" horiz-adv-x="512" d="M100 -10v35h29q49 0 49 45v1273q0 41 -39 41q-39 17 -39 27v8q78 6 234 27v-1356q0 -45 49 -45h29l2 -35q-51 -2 -155.5 -10t-158.5 -10z" />
<glyph unicode="m" horiz-adv-x="1650" d="M76 -10v35h28q47 0 48 43v841q0 41 -35 41q-37 18 -37 37q37 4 110 10q57 4 109 13v-176q100 184 289 184q221 0 286 -195q96 195 304 195q311 0 311 -354v-574q0 -45 47 -45h29v-35q-133 -8 -232 -20v698q0 236 -194 236q-109 0 -173.5 -82t-64.5 -213v-539 q0 -45 45 -45h27v-35q-129 -6 -230 -20v698q0 236 -196 236q-111 0 -175.5 -84t-64.5 -228v-522q0 -45 49 -45h31l2 -35q-51 -2 -155.5 -10t-157.5 -10z" />
<glyph unicode="n" horiz-adv-x="1081" d="M68 -10v35h26q45 0 45 43v841q0 41 -35 41q-37 18 -36 37q18 2 55 6t53 4q53 4 111 13v-183q125 190 317 191q160 0 247 -97.5t87 -275.5v-555q0 -45 45 -45h27l2 -35q-150 -8 -230 -20v692q0 242 -213 242q-115 0 -194.5 -93.5t-79.5 -224.5v-516q0 -45 49 -45h31v-35 q-51 -2 -153.5 -10t-153.5 -10z" />
<glyph unicode="o" horiz-adv-x="1138" d="M57 496q0 219 148.5 370.5t363.5 151.5q217 0 365.5 -151.5t148.5 -370.5t-149.5 -371t-364.5 -152t-363.5 151.5t-148.5 371.5zM227 496q0 -197 91.5 -312.5t250.5 -115.5q160 0 252 115.5t92 312.5t-92 312.5t-252 115.5t-251 -116t-91 -312z" />
<glyph unicode="p" horiz-adv-x="1196" d="M49 -340h31q53 0 53 45v1204q0 41 -39 41q-39 20 -39 37q37 4 113 10q53 2 113 13v-219q113 227 346 227q209 0 347 -151.5t138 -377.5q0 -215 -140.5 -365.5t-340.5 -150.5q-235 0 -344 193v-440q0 -45 59 -45h35v-35q-55 -4 -166 -11.5t-166 -9.5v35zM289 457 q0 -174 92 -281.5t240 -107.5q147 0 237 115.5t90 299.5q0 199 -88 320t-239 121q-143 0 -237.5 -124t-94.5 -319v-24z" />
<glyph unicode="q" horiz-adv-x="1138" d="M53 496q0 209 151.5 365.5t354.5 156.5q98 0 195 -55q84 -49 133 -119q35 66 45 149q57 8 90 13v-1280q0 -45 49 -45h31v-35q-53 -4 -160 -11q-51 -4 -156 -10v35h31q47 0 47 45v445q-117 -176 -323 -177q-213 0 -350.5 147.5t-137.5 375.5zM223 494q0 -193 87 -309.5 t235 -116.5q143 0 232 111.5t89 301.5v17q0 199 -87 312.5t-234 113.5q-152 0 -237 -115t-85 -315z" />
<glyph unicode="r" horiz-adv-x="684" d="M68 -10v35q45 0 53 2q25 8 24 41v841q0 41 -36 41q-37 20 -37 37q135 8 223 23v-265q82 272 315 273q98 0 99 -72q0 -33 -34 -60.5t-67 -27.5q-31 0 -30 23q0 25 24 41q-4 0 -14 2h-17q-141 0 -215 -201q-55 -150 -55 -320v-313q0 -37 35 -43q4 -2 63 -2v-35 q-55 -2 -165.5 -10t-165.5 -10z" />
<glyph unicode="s" horiz-adv-x="854" d="M45 59v177q12 8 36.5 20t37.5 18q88 -206 301 -206h2q94 0 160.5 50t66.5 124q0 84 -63.5 129t-202.5 73q-322 66 -322 289q0 123 99.5 204t238.5 81q88 0 183 -35q74 -29 112 -61q18 0 23 26h33v-149q-33 -25 -68 -47q-80 172 -279 172q-98 0 -150 -42t-52 -112 q0 -66 53 -106.5t190 -71.5q193 -43 268.5 -113.5t75.5 -185.5q0 -143 -102 -231.5t-270 -88.5q-176 0 -314 119q-25 0 -28 -33h-29z" />
<glyph unicode="t" horiz-adv-x="626" d="M8 901l15 94q104 0 151 66q33 25 62 125q31 117 36 127h33v-318h283v-94h-283v-670q0 -90 35 -125.5t121 -35.5q68 0 117 137l28 -55q-18 -45 -43 -80q-57 -82 -139 -92q-23 -2 -43 -3q-111 0 -171 75t-60 200v649h-142z" />
<glyph unicode="u" horiz-adv-x="1081" d="M68 942v37q39 2 113.5 8t113.5 8v-671q0 -133 49 -194.5t160 -61.5q131 0 197.5 90t82.5 278v465q0 41 -53 41h-29v37q80 6 238 16v-909q0 -43 70 -43v-35q-74 -6 -219 -14v180q-121 -201 -326 -201q-158 0 -242 98.5t-84 282.5v549q0 41 -40 41h-7z" />
<glyph unicode="v" horiz-adv-x="966" d="M-37 961v34q152 4 301 13v-35q-57 0 -64 -12.5t-7 -16.5q0 -20 6 -31l307 -680l297 660q12 27 12 43q0 6 -4 18q-10 18 -68 19v35q129 -8 258 -13v-34q-63 -1 -90 -62l-407 -911h-49l-418 932q-12 27 -25.5 32.5t-48.5 8.5z" />
<glyph unicode="w" horiz-adv-x="1593" d="M-14 961l2 34q145 4 288 13v-35q-43 0 -53 -10l-2 -11q0 -18 6 -34l258 -654l283 662q-6 20 -23 43q-12 4 -57 4v35h236v-35q-55 0 -64 -8l-2 -11q0 -18 6 -28l285 -660l264 637q8 14 8 33q0 37 -73 37l-2 35q129 -8 258 -13v-34q-66 0 -86 -50l-377 -923h-43l-310 741 l-309 -741h-43l-370 930q-8 43 -80 43z" />
<glyph unicode="x" d="M8 20v35q80 0 121 51q156 197 295 383l-328 416q-23 29 -33 34t-47 5l-2 35q51 4 151.5 14.5t149.5 14.5v-35q-51 0 -58 -6t-7 -11q0 -12 12 -28l258 -328l242 307q16 27 16 39l-2 8q-10 16 -59 17l2 35l270 -25v-35q-76 0 -115 -49l-292 -371l346 -440q23 -29 86 -29 l-2 -34q-51 -4 -153.5 -14.5t-153.5 -14.5v35q55 0 57 10v6q0 4 -10 29l-267 336l-243 -318q-16 -20 -17 -43q2 -18 64 -18l2 -35z" />
<glyph unicode="y" horiz-adv-x="966" d="M-29 995q131 0 295 11v-35q-57 0 -67 -10l-2 -11q0 -23 16 -55l309 -635l285 641q8 18 8 39q0 12 -10 23q-25 10 -62 10v35q127 -8 252 -13v-34q-39 0 -54 -10.5t-26 -51.5l-485 -1069q-49 -106 -78 -143q-47 -59 -114 -60q-41 0 -69 25.5t-28 62.5l-2 23q0 43 31 43 q41 0 41 -35q0 -45 -49 -59q2 -4 8 -8.5t20 -4.5q72 0 117 125q43 96 133 285l-395 831q-14 45 -72 46z" />
<glyph unicode="z" horiz-adv-x="966" d="M27 0v39l643 856h-422q-115 0 -133 -117h-29l14 211h811v-28l-655 -867h442q145 0 185 150h28l-16 -244h-868z" />
<glyph unicode="{" horiz-adv-x="681" d="M100 514v41q61 10 99.5 67.5t38.5 141.5v379q0 260 227 260h57v-68h-33q-119 -14 -118 -217v-297q0 -135 -36 -197.5t-124 -88.5q88 -27 123 -86q37 -66 37 -201v-297q0 -203 118 -217h33v-68h-57q-227 0 -227 260v379q0 84 -38.5 141.5t-99.5 67.5z" />
<glyph unicode="|" horiz-adv-x="454" d="M168 0v1407h117v-1407h-117z" />
<glyph unicode="}" horiz-adv-x="681" d="M158 -266h30q121 14 121 217v297q0 135 39 201q37 59 125 86q-88 27 -126 89t-38 197v297q0 203 -121 217h-30v68h55q229 0 229 -260v-379q0 -84 40.5 -141.5t103.5 -67.5v-41q-63 -10 -103.5 -67.5t-40.5 -141.5v-379q0 -260 -229 -260h-55v68z" />
<glyph unicode="~" horiz-adv-x="1228" d="M141 444q74 176 248 177q92 0 235.5 -69t213.5 -69q113 0 176 148l76 -84q-33 -74 -97 -123q-70 -53 -151 -53q-100 0 -244 68.5t-207 68.5q-117 0 -176 -148q-33 35 -74 84z" />
<glyph unicode="&#xa0;" />
<glyph unicode="&#xa1;" horiz-adv-x="512" d="M150 948q0 27 45 73t69 46q25 0 70 -46t45 -73t-45 -73t-70 -46t-69.5 46.5t-44.5 72.5zM160 -319q14 100 26 198q14 113 17 211l10 559l43 2q20 0 45 4v-553l45 -409q0 -29 -44 -55.5t-83 -26.5q-59 0 -59 70z" />
<glyph unicode="&#xa2;" d="M100 727q0 158 102.5 274.5t258.5 145.5v248q29 4 45 6l43 6v-256q86 -2 160 -47q80 -51 102 -127q-16 -78 -82 -90q-20 -4 -31 -4q-41 0 -53 35q0 33 23.5 41t29.5 8l21 -2q-53 92 -168 92h-2v-656q70 4 137 58q53 45 70 86q12 -8 32.5 -27.5t30.5 -30.5 q-102 -162 -270 -180v-297l-43 -6q-16 -2 -45 -6v311q-143 14 -244 117q-117 119 -117 301zM270 739q0 -152 72 -243q47 -59 119 -84v635q-76 -25 -117 -74q-74 -88 -74 -234z" />
<glyph unicode="&#xa3;" d="M-20 145q0 39 31.5 65t84.5 26q96 0 269 -84q35 61 34 92q0 330 -67 387h-283q6 27 21 100h221q-43 63 -88 125q-51 84 -51 160q0 190 97 305t277 115q102 0 181 -56.5t108 -154.5q8 -27 23 -84q-16 -63 -88 -64h-11q-63 0 -63 45q0 51 47 56q-14 80 -69.5 125t-135.5 45 q-96 0 -156 -74q-66 -78 -65 -211q0 -82 74 -184l118 -148h295v-100h-260q33 -160 33 -367q0 -72 -82 -139q109 -23 180 -23q223 0 269 234q37 -16 90 -41q-68 -299 -344 -299q-199 0 -389 35q-70 -43 -146 -43q-70 0 -112.5 44.5t-42.5 112.5zM147 113q0 -51 86 -52 q50 0 95 33q-92 59 -133 60q-47 0 -48 -41z" />
<glyph unicode="&#xa4;" d="M23 305l110 111q-106 125 -106 299q0 178 106 299l-110 110l77 78l113 -108q125 106 299 106q172 0 299 -106l111 108q41 -37 77 -78l-108 -110q106 -133 106 -299q0 -174 -106 -299l108 -111q-37 -41 -77 -78l-113 109q-125 -106 -297 -107q-178 0 -299 107l-113 -109z M139 715q0 -154 109.5 -263.5t263.5 -109.5t263.5 109.5t109.5 263.5t-109.5 263t-263.5 109t-263.5 -109.5t-109.5 -262.5z" />
<glyph unicode="&#xa5;" d="M-12 1372v35l309 16v-34q-45 0 -59 -19q-6 -6 -7 -16q0 -18 15 -41l297 -629l305 623q10 31 10 45q0 6 -4 18q-14 18 -59 19v34l256 -16v-35q-53 -2 -78 -51l-277 -551h232v-96h-279l-55 -111v-43h313v-96h-313v-315q0 -68 59 -68h41v-35l-92 -4l-90 -2l-92 -4l-92 -2v35 h41q61 0 61 67v328h-315v96h315v39l-55 115h-281v96h234l-262 543q-29 59 -78 59z" />
<glyph unicode="&#xa6;" horiz-adv-x="454" d="M168 0v563h117v-563h-117zM168 840v567h117v-567h-117z" />
<glyph unicode="&#xa7;" d="M125 666q0 100 71.5 167.5t186.5 71.5q-158 127 -158 271q0 119 86 192q82 68 211 68q104 0 185 -60.5t106 -158.5q-20 -61 -78 -68l-18 -2q-43 0 -55 37q0 18 17 35.5t17 21.5q-14 49 -67.5 87t-114.5 38q-63 0 -115 -41q-57 -47 -57 -121q0 -84 176 -239 q68 -57 201 -174q174 -156 174 -336q0 -100 -71.5 -168t-186.5 -72q158 -127 158 -270q0 -119 -87.5 -189.5t-220.5 -70.5q-106 0 -189 60t-110 159q16 61 76 67l19 2q43 0 57 -36q0 -16 -16.5 -33t-18.5 -25q14 -49 70.5 -87t120.5 -38q68 0 125 44t57 118q0 86 -178 240 q-98 84 -199 174q-174 156 -174 336zM240 698q0 -121 159 -268q49 -55 117 -99t109 -44h20q61 0 97 36.5t36 98.5q0 109 -160 270q-131 134 -225 142l-24 2q-53 4 -91 -34t-38 -104z" />
<glyph unicode="&#xa8;" horiz-adv-x="512" d="M-31 1249q0 23 37 63t57 40t57.5 -40t37.5 -63t-37 -62.5t-58 -39.5q-20 0 -57 40t-37 62zM352 1249q0 23 37 63t57 40t57.5 -40t37.5 -63t-37 -62.5t-58 -39.5q-20 0 -57 40t-37 62z" />
<glyph unicode="&#xa9;" horiz-adv-x="1638" d="M94 698q0 301 212 513t511 212t511 -212t212 -511q0 -301 -212 -512t-511 -211t-511 211t-212 510zM207 700q0 -260 179 -444t431 -184t431 184t179 444t-179 444.5t-431 184.5t-431 -184t-179 -445zM406 711q0 199 120.5 314.5t337.5 115.5q109 0 195 -47 q94 -53 112 -142v-78h-73q-10 88 -76 138.5t-170 50.5q-152 0 -231.5 -95.5t-79.5 -254.5q0 -166 80 -262q84 -102 241 -103q98 0 170 55q66 51 84 132h72l-21 -80q-18 -76 -114.5 -132.5t-200.5 -56.5q-203 0 -324.5 121t-121.5 324z" />
<glyph unicode="&#xaa;" horiz-adv-x="579" d="M-6 989q0 78 70.5 137.5t173.5 73.5l69 2q37 -2 84 -18v100q0 94 -139 94q-96 0 -160 -41q29 -4 29 -32q0 -16 -19 -17l-16 2q-31 8 -31 58q41 86 207 86q229 0 230 -172v-375q0 -35 20 -35q25 0 25 41h18q0 -35 -31.5 -57.5t-74.5 -22.5q-42 0 -52 98 q-55 -104 -186 -104q-98 0 -157.5 51t-59.5 131zM102 989q0 -53 36 -87t98 -34q68 0 111.5 48t43.5 116v51q-18 74 -88 74l-18 -2q-78 -8 -130.5 -56t-52.5 -110z" />
<glyph unicode="&#xab;" horiz-adv-x="966" d="M123 498v12q199 174 344 324q39 -4 53 -50q-145 -186 -241 -280q102 -102 229 -281q-14 -45 -53 -49q-104 111 -332 324zM453 498v12q199 174 344 324q39 -4 53 -50q-146 -186 -242 -280q102 -102 230 -281q-14 -45 -54 -49q-104 111 -331 324z" />
<glyph unicode="&#xac;" horiz-adv-x="1228" d="M117 639v115h997v-533h-115v418h-882z" />
<glyph unicode="&#xad;" horiz-adv-x="626" d="M55 440v113h512v-113h-512z" />
<glyph unicode="&#xae;" horiz-adv-x="1638" d="M94 698q0 301 212 513t511 212t511 -212t212 -511q0 -301 -212 -512t-511 -211t-511 211t-212 510zM207 700q0 -260 179 -444t431 -184t431 184t179 444t-179 444.5t-431 184.5t-431 -184t-179 -445zM512 293v18q49 0 49 35v721q0 33 -49 33v16h334q281 0 280 -229 q0 -80 -53 -140.5t-139 -80.5q49 -72 151 -213q39 -53 119 -148v-12h-131q-45 39 -121 158q-66 100 -129 200h-141v-305q0 -35 51 -35v-18h-221zM682 725h152q172 0 172 166q0 154 -168 153h-156v-319z" />
<glyph unicode="&#xaf;" horiz-adv-x="512" d="M-55 1200v107h618v-107h-618z" />
<glyph unicode="&#xb0;" horiz-adv-x="819" d="M117 1157q0 123 86 210t209 87t209 -87t86 -210t-86 -209t-209 -86t-209 86t-86 209zM209 1157q0 -84 59.5 -142.5t143.5 -58.5t143 58.5t59 142.5t-59 143.5t-143 59.5t-143.5 -59.5t-59.5 -143.5z" />
<glyph unicode="&#xb1;" horiz-adv-x="1228" d="M117 0v117h997v-117h-997zM117 535v118h438v344h119v-344h440v-118h-440v-342h-119v342h-438z" />
<glyph unicode="&#xb2;" horiz-adv-x="614" d="M29 573q39 90 137 193q43 45 178 168q147 133 148 256q0 82 -55.5 135t-139.5 53t-139.5 -50t-55.5 -124q23 -90 123 -94q23 -10 23 -35l-2 -16q-10 -41 -51 -51q-68 8 -113 56t-45 118q0 113 76.5 183.5t197.5 70.5q123 0 203 -71t80 -179q0 -154 -184 -289 q-197 -145 -258 -238h335q80 0 88 78h19q-4 -25 -8 -82l-4 -82h-553z" />
<glyph unicode="&#xb3;" horiz-adv-x="614" d="M18 735q16 63 82 64q8 0 25 -4q12 -12 12 -25q0 -12 -8 -20q-12 -14 -29 -15q-14 0 -22 6q8 -53 62.5 -91t129.5 -38q213 0 213 193q0 88 -49 139t-141 45l-64 -4q-18 8 -18 31q0 18 16 28l27 -2h27q78 0 130 45.5t52 122.5q0 76 -47 121t-127 45q-150 0 -195 -110 q12 4 21 4q32 0 32 -31q-8 -12 -24 -14l-14 -2q-10 0 -27 4q-37 0 -37 49q14 63 84 111.5t168 48.5q119 0 194.5 -62.5t75.5 -159.5q0 -137 -170 -190q88 -16 141.5 -73.5t53.5 -137.5q0 -115 -90 -186.5t-232 -71.5q-102 0 -168.5 49t-83.5 131z" />
<glyph unicode="&#xb4;" horiz-adv-x="512" d="M117 1130q88 98 178 197q80 88 127 121q88 0 106 -51q-37 -43 -141 -127l-176 -140h-94z" />
<glyph unicode="&#xb6;" horiz-adv-x="1228" d="M115 1008q0 211 109.5 305t346.5 94h465v-66q-84 0 -84 -79v-1579h-118v1640h-187v-1640h-121v921q-190 2 -300.5 109.5t-110.5 294.5z" />
<glyph unicode="&#xb7;" horiz-adv-x="512" d="M129 498q0 27 44 71.5t69 44.5t68.5 -45t43.5 -71q0 -27 -44 -72t-68 -45q-25 0 -69 45t-44 72z" />
<glyph unicode="&#xb8;" horiz-adv-x="512" d="M45 -389q10 20 29 63q74 -27 133 -26q123 0 123 86q0 84 -105 78l-39 -2q-14 -4 -36 -7l-23 19l115 196h73l-90 -143q12 6 37 10l37 2q72 4 119 -39t47 -108q0 -76 -66.5 -122t-173.5 -46q-82 0 -180 39z" />
<glyph unicode="&#xb9;" horiz-adv-x="614" d="M96 1309q158 47 285 135h16v-817q0 -27 49 -27h31v-20l-65 -5l-66 -2l-65 -4l-66 -2v21h31q47 0 47 26v682q0 27 -66 27q-20 -10 -58 -29.5t-60 -31.5q0 4 -2.5 11t-4.5 11z" />
<glyph unicode="&#xba;" horiz-adv-x="684" d="M10 1120q0 131 95.5 222.5t232.5 91.5q139 0 234.5 -91.5t95.5 -222.5t-95.5 -222t-234.5 -91q-137 0 -232.5 91t-95.5 222zM121 1120q0 -119 57.5 -187.5t159.5 -68.5q104 0 162.5 69.5t58.5 186.5q0 119 -58.5 188.5t-162.5 69.5q-102 0 -159.5 -69.5t-57.5 -188.5z " />
<glyph unicode="&#xbb;" horiz-adv-x="966" d="M117 784q12 45 51 50q119 -121 348 -324v-12q-193 -174 -338 -324q-39 4 -51 49q116 164 233 281q-125 119 -243 280zM446 784q12 45 52 50q119 -121 348 -324v-12q-193 -174 -338 -324q-39 4 -51 49q116 164 233 281q-125 119 -244 280z" />
<glyph unicode="&#xbc;" horiz-adv-x="1536" d="M102 1309q158 47 285 135h16v-817q0 -27 50 -27h30v-20l-65 -5l-66 -2l-65 -4l-66 -2v21h31q47 0 47 26v682q0 27 -66 27q-20 -10 -58 -29.5t-60 -31.5q0 4 -2 11t-4 11zM315 -29l916 1465h112l-915 -1465h-113zM872 225v27l431 616h18l22 2v-579h146l-2 -35l-4 -31h-140 v-176q0 -25 33 -24h21v-21l-54 -4l-53 -2l-59 -4l-60 -2v20q66 0 66 25v188h-365zM961 291h276v401z" />
<glyph unicode="&#xbd;" horiz-adv-x="1536" d="M98 1309q158 47 285 135h16v-817q0 -27 50 -27h30l2 -20q-131 -8 -264 -13v21h31q47 0 47 26v682q0 27 -66 27q-20 -10 -58 -29.5t-60 -31.5q0 4 -2.5 11t-4.5 11zM248 -29l915 1465h113l-916 -1465h-112zM913 0q39 90 138 193q43 45 178 167q147 133 147 256 q0 82 -55 135.5t-139 53.5t-139.5 -50t-55.5 -124q23 -90 123 -94q23 -10 23 -35l-3 -17q-10 -41 -51 -51q-68 8 -112.5 56.5t-44.5 117.5q0 113 76.5 183.5t197.5 70.5q123 0 203 -70.5t80 -179.5q0 -154 -185 -288q-197 -145 -258 -238h336q80 0 88 78h19q-4 -25 -9 -82 l-4 -82h-553z" />
<glyph unicode="&#xbe;" horiz-adv-x="1536" d="M18 735q16 63 82 64q8 0 25 -4q12 -12 12 -25q0 -12 -8 -20q-12 -14 -29 -15q-14 0 -22 6q8 -53 62.5 -91t129.5 -38q213 0 213 193q0 88 -49 139t-141 45l-64 -4q-18 8 -18 31q0 18 16 28l27 -2h27q78 0 130 45.5t52 122.5q0 76 -47 121t-127 45q-150 0 -195 -110 q12 4 21 4q32 0 32 -31q-8 -12 -24 -14l-14 -2q-10 0 -27 4q-37 0 -37 49q14 63 84 111.5t168 48.5q119 0 194.5 -62.5t75.5 -159.5q0 -137 -170 -190q88 -16 141.5 -73.5t53.5 -137.5q0 -115 -90 -186.5t-232 -71.5q-102 0 -168.5 49t-83.5 131zM311 -29l916 1465h112 l-915 -1465h-113zM870 225v27l430 616h19l22 2v-579h146l-2 -35l-4 -31h-140v-176q0 -25 33 -24h21v-21l-54 -4l-53 -2l-59 -4l-60 -2v20q66 0 66 25v188h-365zM958 291h277v401z" />
<glyph unicode="&#xbf;" horiz-adv-x="909" d="M57 -41q0 98 45 174q39 66 134 141q102 82 126 117q45 57 50 154q0 8 2 26.5t2 26.5v49q8 2 21.5 4t19.5 2q-2 0 41 6v-190q0 -74 -45 -133q-27 -35 -105 -100q-135 -113 -135 -267q0 -111 71.5 -186.5t184.5 -75.5q100 0 175 57.5t99 149.5l-24 -2q-10 -2 -23 2 q-18 2 -32 27q0 25 27.5 41t53.5 16q16 0 43 -8q47 -14 48 -80q-27 -125 -125 -207q-111 -90 -269 -90q-178 0 -284 104q-100 98 -101 242zM328 952q0 27 45 73t71 46q25 0 70 -46t45 -73t-45 -72.5t-70 -45.5q-27 0 -71.5 46t-44.5 72z" />
<glyph unicode="&#xc0;" horiz-adv-x="1366" d="M-31 0v35q94 0 125 100l568 1292h36l586 -1308q20 -47 42 -65.5t69 -18.5v-35l-346 -16v34q66 0 77 13q6 6 7 18q0 14 -11 45l-192 416h-551l-174 -391q-12 -27 -12 -51q0 -49 110 -50v-34zM410 1764q18 51 106 51q49 -31 131 -121q88 -99 178 -197h-96q-88 70 -178 140 q-104 84 -141 127zM426 618h455l-230 504z" />
<glyph unicode="&#xc1;" horiz-adv-x="1366" d="M-31 0v35q94 0 125 100l568 1292h36l586 -1308q20 -47 42 -65.5t69 -18.5v-35l-346 -16v34q66 0 77 13q6 6 7 18q0 14 -11 45l-192 416h-551l-174 -391q-12 -27 -12 -51q0 -49 110 -50v-34zM426 618h455l-230 504zM545 1497q88 98 178 197q80 88 127 121q88 0 106 -51 q-37 -43 -141 -127l-176 -140h-94z" />
<glyph unicode="&#xc2;" horiz-adv-x="1366" d="M-31 0v35q94 0 125 100l568 1292h36l586 -1308q20 -47 42 -65.5t69 -18.5v-35l-346 -16v34q66 0 77 13q6 6 7 18q0 14 -11 45l-192 416h-551l-174 -391q-12 -27 -12 -51q0 -49 110 -50v-34zM375 1497l243 316h127l246 -316h-100l-209 209l-207 -209h-100zM426 618h455 l-230 504z" />
<glyph unicode="&#xc3;" horiz-adv-x="1366" d="M-31 0v35q94 0 125 100l568 1292h36l586 -1308q20 -47 42 -65.5t69 -18.5v-35l-346 -16v34q66 0 77 13q6 6 7 18q0 14 -11 45l-192 416h-551l-174 -391q-12 -27 -12 -51q0 -49 110 -50v-34zM360 1530q37 201 195 201q63 0 155.5 -46t135.5 -46q84 0 106 94h68 q-37 -201 -195 -201q-70 0 -161 46t-132 46q-82 0 -104 -94h-68zM426 618h455l-230 504z" />
<glyph unicode="&#xc4;" horiz-adv-x="1366" d="M-31 0v35q94 0 125 100l568 1292h36l586 -1308q20 -47 42 -65.5t69 -18.5v-35l-346 -16v34q66 0 77 13q6 6 7 18q0 14 -11 45l-192 416h-551l-174 -391q-12 -27 -12 -51q0 -49 110 -50v-34zM395 1616q0 23 37 63t57 40t57.5 -40t37.5 -63t-37 -62.5t-58 -39.5 q-20 0 -57 40t-37 62zM426 618h455l-230 504zM778 1616q0 23 37 63t57 40t57.5 -40t37.5 -63t-37 -62.5t-58 -39.5q-20 0 -57 40t-37 62z" />
<glyph unicode="&#xc5;" horiz-adv-x="1366" d="M-31 0v35q94 0 125 100l568 1292h36l586 -1308q20 -47 42 -65.5t69 -18.5v-35l-346 -16v34q66 0 77 13q6 6 7 18q0 14 -11 45l-192 416h-551l-174 -391q-12 -27 -12 -51q0 -49 110 -50v-34zM426 618h455l-230 504zM481 1692q0 84 59.5 143.5t143.5 59.5t144.5 -59.5 t60.5 -143.5t-60.5 -143.5t-144.5 -59.5t-143.5 59.5t-59.5 143.5zM551 1692q0 -57 38 -95t95 -38q59 0 97 38t38 95t-38 95t-97 38q-57 0 -95 -38t-38 -95z" />
<glyph unicode="&#xc6;" horiz-adv-x="1933" d="M-14 0v35q55 8 77 82l805 1212q8 12 9 23q0 12 -13 14q-43 6 -63 6v35h1003q2 -82 23 -315h-31q-55 217 -237 217h-287q-121 0 -121 -72v-463h266q82 0 116 25.5t44 97.5h29v-348h-29q-10 74 -44 99.5t-116 25.5h-266v-510q0 -66 78 -66h305q135 0 203 56q59 51 86 172 h32q-14 -166 -18 -326h-965v35h43q66 0 66 67v469h-479l-301 -454q-14 -23 -15 -47q0 -14 9 -23q16 -12 57 -12h22v-35h-288zM571 680h410v606h-8z" />
<glyph unicode="&#xc7;" horiz-adv-x="1253" d="M70 700q0 301 200.5 517.5t479.5 216.5q92 0 202 -41q55 -25 111 -50q27 0 41 39h24q0 -223 -18 -315q-131 268 -356 268q-231 0 -363.5 -170.5t-132.5 -459.5q0 -276 140.5 -456.5t359.5 -180.5q145 0 242.5 79.5t127.5 210.5q6 -18 21 -77q-31 -152 -138.5 -232 t-273.5 -80q-283 0 -475 210t-192 521zM518 -389q10 20 29 63q74 -27 133 -26q123 0 123 86q0 84 -105 78l-39 -2q-14 -4 -36 -7l-23 19l115 196h73l-90 -143q12 6 37 10l37 2q72 4 119 -39t47 -108q0 -76 -66.5 -122t-173.5 -46q-82 0 -180 39z" />
<glyph unicode="&#xc8;" horiz-adv-x="1196" d="M106 0v35h35q59 0 60 67v1203q0 68 -60 67h-35v35h959q4 -143 18 -315h-30q-55 217 -238 217h-326q-121 0 -120 -72v-463h290q84 0 117 25.5t43 97.5h29v-346h-29q-10 72 -43 97.5t-117 25.5h-290v-510q0 -66 77 -66h353q137 0 202 58q59 51 86 172h33q-8 -86 -18 -328 h-996zM353 1764q18 51 106 51q49 -31 131 -121q88 -99 178 -197h-96q-88 70 -178 140q-104 84 -141 127z" />
<glyph unicode="&#xc9;" horiz-adv-x="1196" d="M106 0v35h35q59 0 60 67v1203q0 68 -60 67h-35v35h959q4 -143 18 -315h-30q-55 217 -238 217h-326q-121 0 -120 -72v-463h290q84 0 117 25.5t43 97.5h29v-346h-29q-10 72 -43 97.5t-117 25.5h-290v-510q0 -66 77 -66h353q137 0 202 58q59 51 86 172h33q-8 -86 -18 -328 h-996zM488 1497q88 98 178 197q80 88 127 121q88 0 106 -51q-37 -43 -141 -127l-176 -140h-94z" />
<glyph unicode="&#xca;" horiz-adv-x="1196" d="M106 0v35h35q59 0 60 67v1203q0 68 -60 67h-35v35h959q4 -143 18 -315h-30q-55 217 -238 217h-326q-121 0 -120 -72v-463h290q84 0 117 25.5t43 97.5h29v-346h-29q-10 72 -43 97.5t-117 25.5h-290v-510q0 -66 77 -66h353q137 0 202 58q59 51 86 172h33q-8 -86 -18 -328 h-996zM318 1497l243 316h127l246 -316h-100l-209 209l-207 -209h-100z" />
<glyph unicode="&#xcb;" horiz-adv-x="1196" d="M106 0v35h35q59 0 60 67v1203q0 68 -60 67h-35v35h959q4 -143 18 -315h-30q-55 217 -238 217h-326q-121 0 -120 -72v-463h290q84 0 117 25.5t43 97.5h29v-346h-29q-10 72 -43 97.5t-117 25.5h-290v-510q0 -66 77 -66h353q137 0 202 58q59 51 86 172h33q-8 -86 -18 -328 h-996zM338 1616q0 23 37 63t57 40t57.5 -40t37.5 -63t-37 -62.5t-58 -39.5q-20 0 -57 40t-37 62zM721 1616q0 23 37 63t57 40t57.5 -40t37.5 -63t-37 -62.5t-58 -39.5q-20 0 -57 40t-37 62z" />
<glyph unicode="&#xcc;" horiz-adv-x="569" d="M11 1764q18 51 106 51q49 -31 131 -121q88 -99 178 -197h-96q-88 70 -178 140q-104 84 -141 127zM102 -6v35q61 0 72 4q27 12 27 63v1213q0 51 -27 63q-10 4 -72 4v35h365v-22q-61 0 -72 -5q-27 -12 -26 -63v-1212q0 -51 26 -64q10 -4 72 -4v-47h-365z" />
<glyph unicode="&#xcd;" horiz-adv-x="569" d="M102 -6v35q61 0 72 4q27 12 27 63v1213q0 51 -27 63q-10 4 -72 4v35h365v-22q-61 0 -72 -5q-27 -12 -26 -63v-1212q0 -51 26 -64q10 -4 72 -4v-47h-365zM146 1497q88 98 178 197q80 88 127 121q88 0 106 -51q-37 -43 -141 -127l-176 -140h-94z" />
<glyph unicode="&#xce;" horiz-adv-x="569" d="M-24 1497l243 316h127l246 -316h-100l-209 209l-207 -209h-100zM102 -6v35q61 0 72 4q27 12 27 63v1213q0 51 -27 63q-10 4 -72 4v35h365v-22q-61 0 -72 -5q-27 -12 -26 -63v-1212q0 -51 26 -64q10 -4 72 -4v-47h-365z" />
<glyph unicode="&#xcf;" horiz-adv-x="569" d="M-4 1616q0 23 37 63t57 40t57.5 -40t37.5 -63t-37 -62.5t-58 -39.5q-20 0 -57 40t-37 62zM102 -6v35q61 0 72 4q27 12 27 63v1213q0 51 -27 63q-10 4 -72 4v35h365v-22q-61 0 -72 -5q-27 -12 -26 -63v-1212q0 -51 26 -64q10 -4 72 -4v-47h-365zM379 1616q0 23 37 63 t57 40t57.5 -40t37.5 -63t-37 -62.5t-58 -39.5q-20 0 -57 40t-37 62z" />
<glyph unicode="&#xd0;" horiz-adv-x="1366" d="M39 688v109h160v514q0 66 -58 65h-39v31h508q289 0 483.5 -198.5t194.5 -506.5q0 -305 -196.5 -503.5t-493.5 -198.5h-496v35h39q57 0 58 67v586h-160zM367 164q35 -66 194 -66q539 0 539 602q0 608 -525 609q-84 0 -116 -9q-66 -12 -92 -61v-442h374v-109h-374v-524z " />
<glyph unicode="&#xd1;" horiz-adv-x="1423" d="M102 -6v35h41q61 0 62 67v1252l-17 16q-20 27 -57 27h-29v34h177q282 -364 841 -1099v983q0 68 -61 67h-41v35h297v-22h-37q-53 0 -53 -68v-1348h-37l-14 23l-865 1124v-1011q0 -68 66 -68h43v-47h-316zM401 1530q37 201 195 201q63 0 155.5 -46t135.5 -46q84 0 106 94 h68q-37 -201 -195 -201q-70 0 -161 46t-132 46q-82 0 -104 -94h-68z" />
<glyph unicode="&#xd2;" horiz-adv-x="1536" d="M63 702q0 307 204 520.5t499 213.5q297 0 500.5 -213.5t203.5 -520.5t-203.5 -520t-500.5 -213q-295 0 -499 213t-204 520zM250 702q0 -287 140 -460.5t376 -173.5q238 0 378 172.5t140 461.5t-140 462t-378 173q-236 0 -376 -174t-140 -461zM490 1764q18 51 106 51 q49 -31 131 -121q88 -99 178 -197h-96q-88 70 -178 140q-104 84 -141 127z" />
<glyph unicode="&#xd3;" horiz-adv-x="1536" d="M63 702q0 307 204 520.5t499 213.5q297 0 500.5 -213.5t203.5 -520.5t-203.5 -520t-500.5 -213q-295 0 -499 213t-204 520zM250 702q0 -287 140 -460.5t376 -173.5q238 0 378 172.5t140 461.5t-140 462t-378 173q-236 0 -376 -174t-140 -461zM625 1497q88 98 178 197 q80 88 127 121q88 0 106 -51q-37 -43 -141 -127l-176 -140h-94z" />
<glyph unicode="&#xd4;" horiz-adv-x="1536" d="M63 702q0 307 204 520.5t499 213.5q297 0 500.5 -213.5t203.5 -520.5t-203.5 -520t-500.5 -213q-295 0 -499 213t-204 520zM250 702q0 -287 140 -460.5t376 -173.5q238 0 378 172.5t140 461.5t-140 462t-378 173q-236 0 -376 -174t-140 -461zM455 1497l243 316h127 l246 -316h-100l-209 209l-207 -209h-100z" />
<glyph unicode="&#xd5;" horiz-adv-x="1536" d="M63 702q0 307 204 520.5t499 213.5q297 0 500.5 -213.5t203.5 -520.5t-203.5 -520t-500.5 -213q-295 0 -499 213t-204 520zM250 702q0 -287 140 -460.5t376 -173.5q238 0 378 172.5t140 461.5t-140 462t-378 173q-236 0 -376 -174t-140 -461zM440 1530q37 201 195 201 q63 0 155.5 -46t135.5 -46q84 0 106 94h68q-37 -201 -195 -201q-70 0 -161 46t-132 46q-82 0 -104 -94h-68z" />
<glyph unicode="&#xd6;" horiz-adv-x="1536" d="M63 702q0 307 204 520.5t499 213.5q297 0 500.5 -213.5t203.5 -520.5t-203.5 -520t-500.5 -213q-295 0 -499 213t-204 520zM250 702q0 -287 140 -460.5t376 -173.5q238 0 378 172.5t140 461.5t-140 462t-378 173q-236 0 -376 -174t-140 -461zM475 1616q0 23 37 63t57 40 t57.5 -40t37.5 -63t-37 -62.5t-58 -39.5q-20 0 -57 40t-37 62zM858 1616q0 23 37 63t57 40t57.5 -40t37.5 -63t-37 -62.5t-58 -39.5q-20 0 -57 40t-37 62z" />
<glyph unicode="&#xd7;" horiz-adv-x="1228" d="M113 82l415 416l-415 415l84 84l415 -415l416 415l84 -84l-416 -415l416 -416l-84 -84l-416 416l-415 -416z" />
<glyph unicode="&#xd8;" horiz-adv-x="1536" d="M63 702q0 307 204 520.5t499 213.5q221 0 377 -111l129 180q16 -4 50 -14t50 -14l-151 -213q31 -31 45 -41q205 -211 204 -521q0 -307 -203.5 -520t-500.5 -213q-227 0 -383 113l-154 -219q-16 4 -50 14t-50 14l178 252q-14 12 -41 39q-203 209 -203 520zM250 702 q0 -286 133 -452l694 981q-119 106 -311 106q-236 0 -376 -174t-140 -461zM451 176q111 -109 315 -108q238 0 378 173t140 461q0 281 -137 455z" />
<glyph unicode="&#xd9;" horiz-adv-x="1366" d="M80 1376l2 35q182 4 362 12v-34h-38q-59 0 -60 -68v-887q0 -176 89 -271t253 -95q193 0 294 107t101 310v805q0 86 -75 86h-35v35q154 4 307 12v-34h-31q-68 0 -67 -86v-840q0 -236 -133.5 -365t-372.5 -129q-242 0 -370 117t-128 342v881q0 68 -59 67h-39zM420 1764 q18 51 106 51q49 -31 131 -121q88 -99 178 -197h-96q-88 70 -178 140q-104 84 -141 127z" />
<glyph unicode="&#xda;" horiz-adv-x="1366" d="M80 1376l2 35q182 4 362 12v-34h-38q-59 0 -60 -68v-887q0 -176 89 -271t253 -95q193 0 294 107t101 310v805q0 86 -75 86h-35v35q154 4 307 12v-34h-31q-68 0 -67 -86v-840q0 -236 -133.5 -365t-372.5 -129q-242 0 -370 117t-128 342v881q0 68 -59 67h-39zM555 1497 q88 98 178 197q80 88 127 121q88 0 106 -51q-37 -43 -141 -127l-176 -140h-94z" />
<glyph unicode="&#xdb;" horiz-adv-x="1366" d="M80 1376l2 35q182 4 362 12v-34h-38q-59 0 -60 -68v-887q0 -176 89 -271t253 -95q193 0 294 107t101 310v805q0 86 -75 86h-35v35q154 4 307 12v-34h-31q-68 0 -67 -86v-840q0 -236 -133.5 -365t-372.5 -129q-242 0 -370 117t-128 342v881q0 68 -59 67h-39zM385 1497 l243 316h127l246 -316h-100l-209 209l-207 -209h-100z" />
<glyph unicode="&#xdc;" horiz-adv-x="1366" d="M80 1376l2 35q182 4 362 12v-34h-38q-59 0 -60 -68v-887q0 -176 89 -271t253 -95q193 0 294 107t101 310v805q0 86 -75 86h-35v35q154 4 307 12v-34h-31q-68 0 -67 -86v-840q0 -236 -133.5 -365t-372.5 -129q-242 0 -370 117t-128 342v881q0 68 -59 67h-39zM405 1616 q0 23 37 63t57 40t57.5 -40t37.5 -63t-37 -62.5t-58 -39.5q-20 0 -57 40t-37 62zM788 1616q0 23 37 63t57 40t57.5 -40t37.5 -63t-37 -62.5t-58 -39.5q-20 0 -57 40t-37 62z" />
<glyph unicode="&#xdd;" horiz-adv-x="1138" d="M-23 1405l357 18v-34q-86 0 -86 -35q0 -14 12 -37l361 -635l329 625q12 23 13 45l-7 18q-10 11 -82 19v34l306 -16v-35q-74 0 -109 -65l-405 -779l-117 -419q0 -68 67 -68h46v-35q-193 -10 -388 -12v35h43q63 0 64 67l115 469l-420 754q-29 53 -96 53zM455 1497 q88 98 178 197q80 88 127 121q88 0 106 -51q-37 -43 -141 -127l-176 -140h-94z" />
<glyph unicode="&#xde;" horiz-adv-x="1081" d="M98 -6v35h39q57 0 58 67v1213q0 68 -58 67h-39v35l90 2l91 4l92 2l92 4v-34h-41q-59 0 -60 -68v-147h97l98 2q229 4 357 -108t128 -314q0 -201 -125.5 -313.5t-347.5 -112.5h-207v-219q0 -68 60 -68h41v-35l-92 -4l-92 -2l-91 -4zM365 426h86l86 2q164 4 239.5 81 t75.5 245q0 150 -79 235.5t-218 85.5q-156 0 -190 -76v-573z" />
<glyph unicode="&#xdf;" horiz-adv-x="1196" d="M25 811l16 94h139v125q0 188 125 303q119 109 297 109t299 -104.5t121 -254.5q0 -111 -123 -200q-82 -53 -162 -107q111 -70 224 -141q166 -127 165 -277q0 -166 -104 -270q-111 -113 -295 -113q-94 0 -188 60q-86 51 -107 106q-10 0 -20 -24h-29l-10 231l71 8 q25 -133 97 -206q76 -80 190 -80q123 0 196.5 69.5t73.5 169.5q0 242 -362 279q-123 47 -123 117v55q0 41 51 63q33 14 68 27q238 27 239 233q0 127 -81 199q-74 66 -189 66q-268 0 -268 -363v-987q-37 -4 -115 -8l-115 -4v34q45 6 56 11q18 8 18 32v748h-155z" />
<glyph unicode="&#xe0;" horiz-adv-x="966" d="M43 276q0 131 110.5 230.5t270.5 126.5q27 4 70 2l41 -2q57 -2 131 -29v164q0 76 -62.5 117t-157.5 41q-68 0 -149 -25q-68 -23 -98 -43q45 -10 45 -55q0 -27 -27 -27q-6 0 -27 4q-53 16 -53 60q0 61 90 118q98 61 236 62q358 0 358 -291v-625q0 -57 31 -57q41 0 41 72 h29q0 -55 -50.5 -96t-115.5 -41q-68 -1 -82 165q-82 -174 -291 -174q-156 0 -248 85t-92 218zM197 1397q18 51 106 51q49 -31 131 -121q88 -99 178 -197h-96q-88 70 -178 140q-104 84 -141 127zM213 279q0 -88 56.5 -145.5t152.5 -57.5q104 0 174 79.5t70 194.5v88 q-12 63 -56.5 94t-85.5 27l-24 -2q-123 -10 -205 -91t-82 -187z" />
<glyph unicode="&#xe1;" horiz-adv-x="966" d="M43 276q0 131 110.5 230.5t270.5 126.5q27 4 70 2l41 -2q57 -2 131 -29v164q0 76 -62.5 117t-157.5 41q-68 0 -149 -25q-68 -23 -98 -43q45 -10 45 -55q0 -27 -27 -27q-6 0 -27 4q-53 16 -53 60q0 61 90 118q98 61 236 62q358 0 358 -291v-625q0 -57 31 -57q41 0 41 72 h29q0 -55 -50.5 -96t-115.5 -41q-68 -1 -82 165q-82 -174 -291 -174q-156 0 -248 85t-92 218zM213 279q0 -88 56.5 -145.5t152.5 -57.5q104 0 174 79.5t70 194.5v88q-12 63 -56.5 94t-85.5 27l-24 -2q-123 -10 -205 -91t-82 -187zM332 1130q88 98 178 197q80 88 127 121 q88 0 106 -51q-37 -43 -141 -127l-176 -140h-94z" />
<glyph unicode="&#xe2;" horiz-adv-x="966" d="M43 276q0 131 110.5 230.5t270.5 126.5q27 4 70 2l41 -2q57 -2 131 -29v164q0 76 -62.5 117t-157.5 41q-68 0 -149 -25q-68 -23 -98 -43q45 -10 45 -55q0 -27 -27 -27q-6 0 -27 4q-53 16 -53 60q0 61 90 118q98 61 236 62q358 0 358 -291v-625q0 -57 31 -57q41 0 41 72 h29q0 -55 -50.5 -96t-115.5 -41q-68 -1 -82 165q-82 -174 -291 -174q-156 0 -248 85t-92 218zM162 1130l243 316h127l246 -316h-100l-209 209l-207 -209h-100zM213 279q0 -88 56.5 -145.5t152.5 -57.5q104 0 174 79.5t70 194.5v88q-12 63 -56.5 94t-85.5 27l-24 -2 q-123 -10 -205 -91t-82 -187z" />
<glyph unicode="&#xe3;" horiz-adv-x="966" d="M43 276q0 131 110.5 230.5t270.5 126.5q27 4 70 2l41 -2q57 -2 131 -29v164q0 76 -62.5 117t-157.5 41q-68 0 -149 -25q-68 -23 -98 -43q45 -10 45 -55q0 -27 -27 -27q-6 0 -27 4q-53 16 -53 60q0 61 90 118q98 61 236 62q358 0 358 -291v-625q0 -57 31 -57q41 0 41 72 h29q0 -55 -50.5 -96t-115.5 -41q-68 -1 -82 165q-82 -174 -291 -174q-156 0 -248 85t-92 218zM147 1163q37 201 195 201q63 0 155.5 -46t135.5 -46q84 0 106 94h68q-37 -201 -195 -201q-70 0 -161 46t-132 46q-82 0 -104 -94h-68zM213 279q0 -88 56.5 -145.5t152.5 -57.5 q104 0 174 79.5t70 194.5v88q-12 63 -56.5 94t-85.5 27l-24 -2q-123 -10 -205 -91t-82 -187z" />
<glyph unicode="&#xe4;" horiz-adv-x="966" d="M43 276q0 131 110.5 230.5t270.5 126.5q27 4 70 2l41 -2q57 -2 131 -29v164q0 76 -62.5 117t-157.5 41q-68 0 -149 -25q-68 -23 -98 -43q45 -10 45 -55q0 -27 -27 -27q-6 0 -27 4q-53 16 -53 60q0 61 90 118q98 61 236 62q358 0 358 -291v-625q0 -57 31 -57q41 0 41 72 h29q0 -55 -50.5 -96t-115.5 -41q-68 -1 -82 165q-82 -174 -291 -174q-156 0 -248 85t-92 218zM182 1249q0 23 37 63t57 40t57.5 -40t37.5 -63t-37 -62.5t-58 -39.5q-20 0 -57 40t-37 62zM213 279q0 -88 56.5 -145.5t152.5 -57.5q104 0 174 79.5t70 194.5v88q-12 63 -56.5 94 t-85.5 27l-24 -2q-123 -10 -205 -91t-82 -187zM565 1249q0 23 37 63t57 40t57.5 -40t37.5 -63t-37 -62.5t-58 -39.5q-20 0 -57 40t-37 62z" />
<glyph unicode="&#xe5;" horiz-adv-x="966" d="M43 276q0 131 110.5 230.5t270.5 126.5q27 4 70 2l41 -2q57 -2 131 -29v164q0 76 -62.5 117t-157.5 41q-68 0 -149 -25q-68 -23 -98 -43q45 -10 45 -55q0 -27 -27 -27q-6 0 -27 4q-53 16 -53 60q0 61 90 118q98 61 236 62q358 0 358 -291v-625q0 -57 31 -57q41 0 41 72 h29q0 -55 -50.5 -96t-115.5 -41q-68 -1 -82 165q-82 -174 -291 -174q-156 0 -248 85t-92 218zM213 279q0 -88 56.5 -145.5t152.5 -57.5q104 0 174 79.5t70 194.5v88q-12 63 -56.5 94t-85.5 27l-24 -2q-123 -10 -205 -91t-82 -187zM268 1325q0 84 59.5 143.5t143.5 59.5 t144.5 -59.5t60.5 -143.5t-60.5 -143.5t-144.5 -59.5t-143.5 59.5t-59.5 143.5zM338 1325q0 -57 38 -95t95 -38q59 0 97 38t38 95t-38 95t-97 38q-57 0 -95 -38t-38 -95z" />
<glyph unicode="&#xe6;" horiz-adv-x="1708" d="M63 276q0 131 113 230.5t277 122.5q41 6 71 4l41 -2q59 -2 137 -29v166q0 76 -65.5 117t-163.5 41q-72 0 -154 -25q-72 -23 -100 -43q45 -10 45 -55q0 -27 -26 -27q-74 0 -74 96q27 63 112.5 105.5t204.5 42.5q263 0 353 -164q137 162 368 162q164 0 277.5 -106.5 t130.5 -262.5l-731 -250q25 -129 88 -209q98 -123 254 -122q195 0 348 176q6 -16 24 -88q-147 -182 -405 -183q-248 0 -385 201q-156 -201 -404 -201q-154 0 -245 85t-91 218zM233 279q0 -88 58.5 -145.5t159.5 -57.5q109 0 180 79.5t71 194.5v88q-12 61 -57 93t-90 28 l-27 -2q-129 -10 -212 -91t-83 -187zM870 487l545 211q-37 225 -225 226q-152 0 -236 -108.5t-84 -301.5v-27z" />
<glyph unicode="&#xe7;" d="M61 494q0 217 159 370.5t384 153.5q135 0 244 -70q100 -63 100 -129q0 -53 -78 -67q-23 -4 -30 -4q-41 0 -54 34q0 33 24 41t30 8l20 -2q-80 94 -254 95q-172 0 -273.5 -115t-101.5 -305q0 -193 101.5 -314.5t263.5 -121.5q104 0 201 55q71 43 100 88q12 -8 32.5 -27.5 t31.5 -29.5q-145 -180 -388 -181q-221 0 -366.5 148.5t-145.5 372.5zM352 -389q10 20 29 63q74 -27 133 -26q123 0 123 86q0 84 -105 78l-39 -2q-14 -4 -36 -7l-23 19l115 196h73l-90 -143q12 6 37 10l37 2q72 4 119 -39t47 -108q0 -76 -66.5 -122t-173.5 -46q-82 0 -180 39 z" />
<glyph unicode="&#xe8;" d="M57 496q0 223 140.5 372.5t351.5 149.5q170 0 289 -109q113 -102 133 -260l-738 -252q25 -127 89 -207q98 -123 256 -122q195 0 348 176q6 -14 12 -44t12 -44q-145 -182 -401 -183q-207 0 -349.5 151.5t-142.5 371.5zM225 485q182 70 547 211q-37 227 -225 228 q-154 0 -238 -108.5t-84 -301.5v-29zM267 1397q18 51 106 51q49 -31 131 -121q88 -99 178 -197h-96q-88 70 -178 140q-104 84 -141 127z" />
<glyph unicode="&#xe9;" d="M57 496q0 223 140.5 372.5t351.5 149.5q170 0 289 -109q113 -102 133 -260l-738 -252q25 -127 89 -207q98 -123 256 -122q195 0 348 176q6 -14 12 -44t12 -44q-145 -182 -401 -183q-207 0 -349.5 151.5t-142.5 371.5zM225 485q182 70 547 211q-37 227 -225 228 q-154 0 -238 -108.5t-84 -301.5v-29zM402 1130q88 98 178 197q80 88 127 121q88 0 106 -51q-37 -43 -141 -127l-176 -140h-94z" />
<glyph unicode="&#xea;" d="M57 496q0 223 140.5 372.5t351.5 149.5q170 0 289 -109q113 -102 133 -260l-738 -252q25 -127 89 -207q98 -123 256 -122q195 0 348 176q6 -14 12 -44t12 -44q-145 -182 -401 -183q-207 0 -349.5 151.5t-142.5 371.5zM225 485q182 70 547 211q-37 227 -225 228 q-154 0 -238 -108.5t-84 -301.5v-29zM232 1130l243 316h127l246 -316h-100l-209 209l-207 -209h-100z" />
<glyph unicode="&#xeb;" d="M57 496q0 223 140.5 372.5t351.5 149.5q170 0 289 -109q113 -102 133 -260l-738 -252q25 -127 89 -207q98 -123 256 -122q195 0 348 176q6 -14 12 -44t12 -44q-145 -182 -401 -183q-207 0 -349.5 151.5t-142.5 371.5zM225 485q182 70 547 211q-37 227 -225 228 q-154 0 -238 -108.5t-84 -301.5v-29zM252 1249q0 23 37 63t57 40t57.5 -40t37.5 -63t-37 -62.5t-58 -39.5q-20 0 -57 40t-37 62zM635 1249q0 23 37 63t57 40t57.5 -40t37.5 -63t-37 -62.5t-58 -39.5q-20 0 -57 40t-37 62z" />
<glyph unicode="&#xec;" horiz-adv-x="512" d="M-32 1397q18 51 106 51q49 -31 131 -121q88 -99 178 -197h-96q-88 70 -178 140q-104 84 -141 127zM104 -10v35h29q49 0 49 43v833q0 41 -39 41q-39 16 -39 37q78 8 234 31v-920q0 -45 49 -45h29v-35q-51 -4 -156 -10q-51 -4 -156 -10z" />
<glyph unicode="&#xed;" horiz-adv-x="512" d="M103 1130q88 98 178 197q80 88 127 121q88 0 106 -51q-37 -43 -141 -127l-176 -140h-94zM104 -10v35h29q49 0 49 43v833q0 41 -39 41q-39 16 -39 37q78 8 234 31v-920q0 -45 49 -45h29v-35q-51 -4 -156 -10q-51 -4 -156 -10z" />
<glyph unicode="&#xee;" horiz-adv-x="512" d="M-67 1130l243 316h127l246 -316h-100l-209 209l-207 -209h-100zM104 -10v35h29q49 0 49 43v833q0 41 -39 41q-39 16 -39 37q78 8 234 31v-920q0 -45 49 -45h29v-35q-51 -4 -156 -10q-51 -4 -156 -10z" />
<glyph unicode="&#xef;" horiz-adv-x="512" d="M-47 1249q0 23 37 63t57 40t57.5 -40t37.5 -63t-37 -62.5t-58 -39.5q-20 0 -57 40t-37 62zM104 -10v35h29q49 0 49 43v833q0 41 -39 41q-39 16 -39 37q78 8 234 31v-920q0 -45 49 -45h29v-35q-51 -4 -156 -10q-51 -4 -156 -10zM336 1249q0 23 37 63t57 40t57.5 -40 t37.5 -63t-37 -62.5t-58 -39.5q-20 0 -57 40t-37 62z" />
<glyph unicode="&#xf0;" horiz-adv-x="1138" d="M57 479q0 215 146.5 366.5t357.5 151.5q127 0 215 -49q-29 113 -145 234q-23 25 -72 63l-262 -106l-51 75l221 91q-61 37 -203 86l43 65q156 -37 275 -104l256 104l55 -74l-219 -90q123 -94 186 -168q215 -254 215 -594q0 -246 -141 -402.5t-369 -156.5 q-215 0 -361.5 146.5t-146.5 361.5zM227 496q0 -193 92.5 -311.5t245.5 -118.5q154 0 248 119.5t94 310.5q0 184 -92 298.5t-246 114.5t-248 -114.5t-94 -298.5z" />
<glyph unicode="&#xf1;" horiz-adv-x="1081" d="M68 -10v35h26q45 0 45 43v841q0 41 -35 41q-37 18 -36 37q18 2 55 6t53 4q53 4 111 13v-183q125 190 317 191q160 0 247 -97.5t87 -275.5v-555q0 -45 45 -45h27l2 -35q-150 -8 -230 -20v692q0 242 -213 242q-115 0 -194.5 -93.5t-79.5 -224.5v-516q0 -45 49 -45h31v-35 q-51 -2 -153.5 -10t-153.5 -10zM227 1163q37 201 195 201q63 0 155.5 -46t135.5 -46q84 0 106 94h68q-37 -201 -195 -201q-70 0 -161 46t-132 46q-82 0 -104 -94h-68z" />
<glyph unicode="&#xf2;" horiz-adv-x="1138" d="M57 496q0 219 148.5 370.5t363.5 151.5q217 0 365.5 -151.5t148.5 -370.5t-149.5 -371t-364.5 -152t-363.5 151.5t-148.5 371.5zM227 496q0 -197 91.5 -312.5t250.5 -115.5q160 0 252 115.5t92 312.5t-92 312.5t-252 115.5t-251 -116t-91 -312zM293 1397q18 51 106 51 q49 -31 131 -121q88 -99 178 -197h-96q-88 70 -178 140q-104 84 -141 127z" />
<glyph unicode="&#xf3;" horiz-adv-x="1138" d="M57 496q0 219 148.5 370.5t363.5 151.5q217 0 365.5 -151.5t148.5 -370.5t-149.5 -371t-364.5 -152t-363.5 151.5t-148.5 371.5zM227 496q0 -197 91.5 -312.5t250.5 -115.5q160 0 252 115.5t92 312.5t-92 312.5t-252 115.5t-251 -116t-91 -312zM428 1130q88 98 178 197 q80 88 127 121q88 0 106 -51q-37 -43 -141 -127l-176 -140h-94z" />
<glyph unicode="&#xf4;" horiz-adv-x="1138" d="M57 496q0 219 148.5 370.5t363.5 151.5q217 0 365.5 -151.5t148.5 -370.5t-149.5 -371t-364.5 -152t-363.5 151.5t-148.5 371.5zM227 496q0 -197 91.5 -312.5t250.5 -115.5q160 0 252 115.5t92 312.5t-92 312.5t-252 115.5t-251 -116t-91 -312zM258 1130l243 316h127 l246 -316h-100l-209 209l-207 -209h-100z" />
<glyph unicode="&#xf5;" horiz-adv-x="1138" d="M57 496q0 219 148.5 370.5t363.5 151.5q217 0 365.5 -151.5t148.5 -370.5t-149.5 -371t-364.5 -152t-363.5 151.5t-148.5 371.5zM227 496q0 -197 91.5 -312.5t250.5 -115.5q160 0 252 115.5t92 312.5t-92 312.5t-252 115.5t-251 -116t-91 -312zM243 1163q37 201 195 201 q63 0 155.5 -46t135.5 -46q84 0 106 94h68q-37 -201 -195 -201q-70 0 -161 46t-132 46q-82 0 -104 -94h-68z" />
<glyph unicode="&#xf6;" horiz-adv-x="1138" d="M57 496q0 219 148.5 370.5t363.5 151.5q217 0 365.5 -151.5t148.5 -370.5t-149.5 -371t-364.5 -152t-363.5 151.5t-148.5 371.5zM227 496q0 -197 91.5 -312.5t250.5 -115.5q160 0 252 115.5t92 312.5t-92 312.5t-252 115.5t-251 -116t-91 -312zM278 1249q0 23 37 63 t57 40t57.5 -40t37.5 -63t-37 -62.5t-58 -39.5q-20 0 -57 40t-37 62zM661 1249q0 23 37 63t57 40t57.5 -40t37.5 -63t-37 -62.5t-58 -39.5q-20 0 -57 40t-37 62z" />
<glyph unicode="&#xf7;" horiz-adv-x="1228" d="M117 440v115h997v-115h-997zM500 92q0 27 43.5 71t66.5 44q25 0 68 -44t43 -71t-43 -71t-68 -44q-23 0 -66.5 44.5t-43.5 70.5zM500 903q0 27 43.5 71t66.5 44q25 0 68 -44t43 -71t-43 -71t-68 -44q-23 0 -66.5 44.5t-43.5 70.5z" />
<glyph unicode="&#xf8;" horiz-adv-x="1138" d="M57 496q0 219 148.5 370.5t363.5 151.5q145 0 246 -62l121 183q14 -4 44 -12.5t42 -12.5l-135 -205q16 -16 47 -43q150 -154 149 -370q0 -219 -149.5 -371t-364.5 -152q-154 0 -256 66l-131 -201q-12 4 -41.5 11.5t-44.5 11.5l148 227q-23 14 -39 37q-147 152 -148 371z M227 496q0 -197 84 -306l447 678q-76 55 -189 56q-160 0 -251 -116t-91 -312zM373 127q68 -59 196 -59q160 0 252 115.5t92 312.5q0 195 -92 311v2z" />
<glyph unicode="&#xf9;" horiz-adv-x="1081" d="M68 942v37q39 2 113.5 8t113.5 8v-671q0 -133 49 -194.5t160 -61.5q131 0 197.5 90t82.5 278v465q0 41 -53 41h-29v37q80 6 238 16v-909q0 -43 70 -43v-35q-74 -6 -219 -14v180q-121 -201 -326 -201q-158 0 -242 98.5t-84 282.5v549q0 45 -47 41zM258 1397q18 51 106 51 q49 -31 131 -121q88 -99 178 -197h-96q-88 70 -178 140q-104 84 -141 127z" />
<glyph unicode="&#xfa;" horiz-adv-x="1081" d="M68 942v37q39 2 113.5 8t113.5 8v-671q0 -133 49 -194.5t160 -61.5q131 0 197.5 90t82.5 278v465q0 41 -53 41h-29v37q80 6 238 16v-909q0 -43 70 -43v-35q-74 -6 -219 -14v180q-121 -201 -326 -201q-158 0 -242 98.5t-84 282.5v549q0 45 -47 41zM393 1130q88 98 178 197 q80 88 127 121q88 0 106 -51q-37 -43 -141 -127l-176 -140h-94z" />
<glyph unicode="&#xfb;" horiz-adv-x="1081" d="M68 942v37q39 2 113.5 8t113.5 8v-671q0 -133 49 -194.5t160 -61.5q131 0 197.5 90t82.5 278v465q0 41 -53 41h-29v37q80 6 238 16v-909q0 -43 70 -43v-35q-74 -6 -219 -14v180q-121 -201 -326 -201q-158 0 -242 98.5t-84 282.5v549q0 45 -47 41zM223 1130l243 316h127 l246 -316h-100l-209 209l-207 -209h-100z" />
<glyph unicode="&#xfc;" horiz-adv-x="1081" d="M68 942v37q39 2 113.5 8t113.5 8v-671q0 -133 49 -194.5t160 -61.5q131 0 197.5 90t82.5 278v465q0 41 -53 41h-29v37q80 6 238 16v-909q0 -43 70 -43v-35q-74 -6 -219 -14v180q-121 -201 -326 -201q-158 0 -242 98.5t-84 282.5v549q0 45 -47 41zM243 1249q0 23 37 63 t57 40t57.5 -40t37.5 -63t-37 -62.5t-58 -39.5q-20 0 -57 40t-37 62zM626 1249q0 23 37 63t57 40t57.5 -40t37.5 -63t-37 -62.5t-58 -39.5q-20 0 -57 40t-37 62z" />
<glyph unicode="&#xfd;" horiz-adv-x="966" d="M-29 995q131 0 295 11v-35q-57 0 -67 -10l-2 -11q0 -23 16 -55l309 -635l285 641q8 18 8 39q0 12 -10 23q-25 10 -62 10v35q127 -8 252 -13v-34q-39 0 -54 -10.5t-26 -51.5l-485 -1069q-49 -106 -78 -143q-47 -59 -114 -60q-41 0 -69 25.5t-28 62.5l-2 23q0 43 31 43 q41 0 41 -35q0 -45 -49 -59q2 -4 8 -8.5t20 -4.5q72 0 117 125q43 96 133 285l-395 831q-14 45 -72 46zM357 1130q88 98 178 197q80 88 127 121q88 0 106 -51q-37 -43 -141 -127l-176 -140h-94z" />
<glyph unicode="&#xfe;" horiz-adv-x="1196" d="M51 -340h31q53 0 53 45v1638q0 41 -39 41q-39 14 -39 35q78 6 234 27v-655q109 227 340 227q211 0 350 -151.5t139 -377.5q0 -215 -141 -365.5t-344 -150.5q-235 0 -344 193v-440q0 -45 59 -45h35v-35q-57 -4 -172 -11q-53 -4 -162 -10v35zM293 459q0 -176 92 -283.5 t242 -107.5q147 0 238 115.5t91 299.5q0 201 -89 321t-240 120q-143 0 -238.5 -123t-95.5 -318v-24z" />
<glyph unicode="&#xff;" horiz-adv-x="966" d="M-29 995q131 0 295 11v-35q-57 0 -67 -10l-2 -11q0 -23 16 -55l309 -635l285 641q8 18 8 39q0 12 -10 23q-25 10 -62 10v35q127 -8 252 -13v-34q-39 0 -54 -10.5t-26 -51.5l-485 -1069q-49 -106 -78 -143q-47 -59 -114 -60q-41 0 -69 25.5t-28 62.5l-2 23q0 43 31 43 q41 0 41 -35q0 -45 -49 -59q2 -4 8 -8.5t20 -4.5q72 0 117 125q43 96 133 285l-395 831q-14 45 -72 46zM207 1249q0 23 37 63t57 40t57.5 -40t37.5 -63t-37 -62.5t-58 -39.5q-20 0 -57 40t-37 62zM590 1249q0 23 37 63t57 40t57.5 -40t37.5 -63t-37 -62.5t-58 -39.5 q-20 0 -57 40t-37 62z" />
<glyph unicode="&#x152;" horiz-adv-x="2048" d="M45 709q0 307 198.5 510.5t501.5 203.5q127 0 252 -49q113 -45 168 -106v139h781q4 -143 18 -315h-31q-55 217 -237 217h-248q-119 0 -119 -72v-463h238q82 0 115.5 25.5t43.5 97.5h29v-346h-29q-10 72 -43.5 97.5t-115.5 25.5h-238v-510q0 -66 78 -66h272q135 0 203 58 q59 51 86 172h33q-14 -168 -19 -328h-808l2 147q-123 -164 -443 -163q-297 0 -492.5 206.5t-195.5 518.5zM233 702q0 -285 134.5 -452.5t365.5 -167.5q180 0 303 111.5t123 287.5v441q0 178 -124 290.5t-304 112.5q-215 0 -356.5 -164t-141.5 -409v-50z" />
<glyph unicode="&#x153;" horiz-adv-x="1935" d="M66 496q0 219 147 370.5t360 151.5q285 0 426 -244q131 244 424 244q168 0 286 -106.5t134 -262.5l-737 -250q25 -129 88 -209q98 -123 258 -122q197 0 350 176q6 -14 12.5 -44t12.5 -44q-139 -182 -379 -183q-310 0 -449 250q-141 -250 -428 -250q-211 0 -358 151.5 t-147 371.5zM236 496q0 -199 90 -313.5t249 -114.5q160 0 252.5 115.5t92.5 312.5t-92.5 312.5t-252.5 115.5t-249.5 -115t-89.5 -313zM1098 487q184 70 551 211q-37 225 -228 226q-154 0 -238.5 -108.5t-84.5 -301.5v-27z" />
<glyph unicode="&#x178;" horiz-adv-x="1138" d="M-23 1405l357 18v-34q-86 0 -86 -35q0 -14 12 -37l361 -635l329 625q12 23 13 45l-7 18q-10 11 -82 19v34l306 -16v-35q-74 0 -109 -65l-405 -779l-117 -419q0 -68 67 -68h46v-35q-193 -10 -388 -12v35h43q63 0 64 67l115 469l-420 754q-29 53 -96 53zM305 1616 q0 23 37 63t57 40t57.5 -40t37.5 -63t-37 -62.5t-58 -39.5q-20 0 -57 40t-37 62zM688 1616q0 23 37 63t57 40t57.5 -40t37.5 -63t-37 -62.5t-58 -39.5q-20 0 -57 40t-37 62z" />
<glyph unicode="&#x2c6;" horiz-adv-x="512" d="M-53 1130l243 316h127l246 -316h-100l-209 209l-207 -209h-100z" />
<glyph unicode="&#x2dc;" horiz-adv-x="512" d="M-72 1163q37 201 195 201q63 0 155.5 -46t135.5 -46q84 0 106 94h68q-37 -201 -195 -201q-70 0 -161 46t-132 46q-82 0 -104 -94h-68z" />
<glyph unicode="&#x2000;" horiz-adv-x="947" />
<glyph unicode="&#x2001;" horiz-adv-x="1895" />
<glyph unicode="&#x2002;" horiz-adv-x="947" />
<glyph unicode="&#x2003;" horiz-adv-x="1895" />
<glyph unicode="&#x2004;" horiz-adv-x="631" />
<glyph unicode="&#x2005;" horiz-adv-x="473" />
<glyph unicode="&#x2006;" horiz-adv-x="315" />
<glyph unicode="&#x2007;" horiz-adv-x="315" />
<glyph unicode="&#x2008;" horiz-adv-x="236" />
<glyph unicode="&#x2009;" horiz-adv-x="379" />
<glyph unicode="&#x200a;" horiz-adv-x="105" />
<glyph unicode="&#x2010;" horiz-adv-x="626" d="M55 440v113h512v-113h-512z" />
<glyph unicode="&#x2011;" horiz-adv-x="626" d="M55 440v113h512v-113h-512z" />
<glyph unicode="&#x2012;" horiz-adv-x="626" d="M55 440v113h512v-113h-512z" />
<glyph unicode="&#x2013;" d="M0 446v103h1024v-103h-1024z" />
<glyph unicode="&#x2014;" horiz-adv-x="2048" d="M0 446v103h2048v-103h-2048z" />
<glyph unicode="&#x2018;" horiz-adv-x="454" d="M92 1122q2 135 180 330q12 -8 31 -22.5t29 -22.5q-78 -98 -90 -141q-4 -20 -4 -27q0 -29 18 -47q-8 -10 -8 -27v-26q76 0 76 -62q0 -29 -39 -74t-66 -45q-35 0 -78 50q-49 53 -49 114z" />
<glyph unicode="&#x2019;" horiz-adv-x="454" d="M123 1006q102 102 110 174l3 16q0 29 -31 80q-76 0 -76 63q0 25 39.5 69t64.5 44q37 0 83 -49t46 -113q-2 -141 -180 -332q-45 33 -59 48z" />
<glyph unicode="&#x201a;" horiz-adv-x="454" d="M123 -264q102 102 110 174l3 16q0 29 -31 80q-76 0 -76 64q0 25 39.5 68.5t64.5 43.5q37 0 83 -49t46 -113q-2 -141 -180 -331q-45 33 -59 47z" />
<glyph unicode="&#x201c;" horiz-adv-x="739" d="M72 1122q2 135 180 330q12 -8 30.5 -22.5t28.5 -22.5q-78 -98 -90 -141q-4 -20 -4 -27q0 -29 19 -47q-8 -10 -9 -27v-26q76 0 76 -62q0 -29 -38.5 -74t-65.5 -45q-35 0 -78 50q-49 53 -49 114zM381 1122q2 135 180 330q12 -8 30.5 -22.5t29.5 -22.5q-78 -98 -91 -141 q-4 -20 -4 -27q0 -29 19 -47q-8 -10 -8 -27v-26q76 0 75 -62q0 -29 -38.5 -74t-65.5 -45q-35 0 -78 50q-49 53 -49 114z" />
<glyph unicode="&#x201d;" horiz-adv-x="739" d="M119 1006q102 102 110 174l2 16q0 29 -30 80q-76 0 -76 63q0 25 39.5 69t64.5 44q37 0 83 -49t46 -113q-2 -141 -180 -332q-45 33 -59 48zM428 1006q102 102 111 174l2 16q0 29 -31 80q-76 0 -76 63q0 25 40 69t65 44q37 0 83 -49t46 -113q-2 -141 -181 -332 q-45 33 -59 48z" />
<glyph unicode="&#x201e;" horiz-adv-x="739" d="M123 -264q102 102 110 174l3 16q0 29 -31 80q-76 0 -76 64q0 25 39.5 68.5t64.5 43.5q37 0 83 -49t46 -113q-2 -141 -180 -331q-45 33 -59 47zM426 -264q102 102 111 174l2 16q0 29 -31 80q-76 0 -76 64q0 25 40 68.5t65 43.5q37 0 83 -49t46 -113q-2 -141 -181 -331 q-45 33 -59 47z" />
<glyph unicode="&#x2022;" d="M158 705q0 147 102.5 249.5t249.5 102.5t249.5 -102.5t102.5 -249.5t-102.5 -250t-249.5 -103t-249.5 102.5t-102.5 250.5z" />
<glyph unicode="&#x2026;" horiz-adv-x="2048" d="M227 106q0 27 44 72t69 45t69 -45t44 -72t-44 -71.5t-69 -44.5t-69 45t-44 71zM911 106q0 27 44 72t69 45t69 -45t44 -72t-44 -71.5t-69 -44.5t-69 45t-44 71zM1595 106q0 27 44 72t69 45t69 -45t44 -72t-44 -71.5t-69 -44.5t-69 45t-44 71z" />
<glyph unicode="&#x202f;" horiz-adv-x="379" />
<glyph unicode="&#x2039;" horiz-adv-x="569" d="M86 498v12q199 174 344 324q39 -4 53 -50q-145 -186 -241 -280q102 -102 229 -281q-14 -45 -53 -49q-104 111 -332 324z" />
<glyph unicode="&#x203a;" horiz-adv-x="569" d="M80 784q12 45 51 50q119 -121 348 -324v-12q-193 -174 -338 -324q-39 4 -51 49q117 164 234 281q-125 119 -244 280z" />
<glyph unicode="&#x205f;" horiz-adv-x="473" />
<glyph unicode="&#x2122;" horiz-adv-x="2027" d="M123 1264v143h674v-143h-23q-10 66 -72 65h-180v-618q0 -55 17 -74q10 -10 32 -14v-39h-225v39q49 8 49 88v618h-182q-59 0 -70 -65h-20zM928 584v39q27 4 40 21.5t13 66.5v569q0 80 -53 88v39h198l293 -643l287 643h195v-39q-51 -8 -52 -88v-569q0 -80 52 -88v-39h-226 v39q49 8 49 88v557l-305 -684h-49l-305 686l2 -559q0 -80 53 -88v-39h-192z" />
<glyph unicode="&#xe000;" horiz-adv-x="1003" d="M0 0v1004h1004v-1004h-1004z" />
</font>
</defs>
</svg>
